<svg id="Capa_1" enable-background="new 0 0 512 512" height="512" viewBox="0 0 512 512" width="512" xmlns="http://www.w3.org/2000/svg"><g><path d="m372.286 406.351 46.784-126.278-46.784-137.497c-50.273-9.365-105.739-26.644-156.012-36.009l.001.01-40.296 149.423 40.293 114.345c50.274 9.365 105.74 26.643 156.014 36.008z" fill="#f9efcd"/><path d="m216.276 370.347c30.269 5.638 62.419 14.144 94.187 22.067-30.962-15.822-65.085-43.451-94.187-79.414l-11.375 30.257z" fill="#f8debb"/><g><g><path d="m216.276 106.577c-54.738-10.196-103.325-11.018-132.338 17.995v263.777c29.013-29.013 77.6-28.191 132.338-17.995z" fill="#e06e7e"/><g><path d="m216.276 313.027c-44.794-55.341-77.665-130.433-68.802-212.649-25.62 1.295-47.553 8.211-63.536 24.194v263.777c29.013-29.013 77.6-28.191 132.338-17.995z" fill="#d7495d"/></g><path d="m473.249 143.294c-27.632 8.939-62.802 6.389-100.964-.719v263.776c38.31 7.136 73.607 9.68 101.288.615 18.534-6.069 31.05-23.39 31.05-42.893v-198.061c.001-16.281-15.882-27.729-31.374-22.718z" fill="#e06e7e"/></g></g><path d="m65.342 512h-20.323c-10.27 0-18.596-8.326-18.596-18.596v-367.364h57.515v367.364c0 10.27-8.325 18.596-18.596 18.596z" fill="#deb597"/><path d="m26.423 126.04h57.515v30.906h-57.515z" fill="#d79882"/><ellipse cx="55.181" cy="41.441" fill="#edcf76" rx="41.441" ry="41.441" transform="matrix(.707 -.707 .707 .707 -13.141 51.157)"/><path d="m85.115 75.073h-59.869c-9.869 0-17.87 8.001-17.87 17.87v15.227c0 9.869 8.001 17.87 17.87 17.87h59.869c9.869 0 17.87-8.001 17.87-17.87v-15.227c0-9.869-8.001-17.87-17.87-17.87z" fill="#f3e872"/><path d="m289.284 271.477c3.276.816 6.718.816 9.993 0 39.973-9.955 27.454-26.572 27.454-41.948 0-5.378.718-10.038 2.115-14.255 2.253-6.8-2.645-13.834-9.808-13.834h-24.758-24.758c-7.163 0-12.061 7.034-9.808 13.834 1.397 4.217 2.115 8.877 2.115 14.255.001 15.377-12.518 31.993 27.455 41.948z" fill="#f8debb"/><path d="m292.604 251.452v-50.011h-23.081c-7.163 0-12.061 7.034-9.808 13.834 1.397 4.217 2.115 8.877 2.115 14.255 0 1.833-.179 3.683-.424 5.538z" fill="#a1dcfc"/><path d="m289.284 271.477c3.276.816 6.718.816 9.993 0 35.209-8.768 29.693-22.705 27.878-36.41h-65.75c-1.814 13.705-7.33 27.642 27.879 36.41z" fill="#e06e7e"/><path d="m276.822 321.907c-2.006 0-4.007-.8-5.484-2.382-2.826-3.028-2.663-7.774.365-10.601 3.3-3.08 11.942-10.244 20.902-10.244l.335.001h.131c19.396 0 29.2-5.872 34.014-10.804 2.893-2.965 7.641-3.022 10.606-.129 2.964 2.893 3.022 7.642.129 10.606-6.828 6.997-20.132 15.327-44.752 15.327-.05 0-.099 0-.149 0l-.314-.001c-1.667 0-6.078 1.926-10.667 6.209-1.446 1.35-3.283 2.018-5.116 2.018z" fill="#7fd29b"/><path d="m308.387 321.907c-1.833 0-3.67-.668-5.116-2.017-4.588-4.283-9-6.209-10.666-6.209l-.315.001c-.048 0-.1 0-.148 0-24.623.001-37.924-8.33-44.752-15.327-2.893-2.964-2.835-7.713.129-10.606s7.712-2.835 10.606.129c4.813 4.932 14.62 10.804 34.014 10.804h.131l.335-.001c8.96 0 17.602 7.164 20.901 10.244 3.028 2.827 3.191 7.572.365 10.601-1.477 1.581-3.478 2.381-5.484 2.381z" fill="#8ce0cd"/></g></svg>