<svg id="Capa_1" enable-background="new 0 0 512 512" height="512" viewBox="0 0 512 512" width="512" xmlns="http://www.w3.org/2000/svg"><g><g><path d="m477.207 127.138c21.567 21.567 13.203 64.899-15.784 93.885-42.442 42.442-96.682 61.715-118.249 40.148s-2.294-75.807 40.148-118.249c28.987-28.987 72.318-37.351 93.885-15.784z" fill="#8ce0cd"/><path d="m394.577 217.268c-1.92 0-3.839-.732-5.304-2.197-2.929-2.929-2.929-7.678 0-10.606l41.349-41.348c2.931-2.93 7.679-2.929 10.607 0 2.929 2.929 2.929 7.678 0 10.606l-41.349 41.348c-1.464 1.465-3.384 2.197-5.303 2.197z" fill="#7fd29b"/></g><path d="m201.073 254.09c-9.982-37.529-9.405-76.229 50.02-119.048 35.86-25.839 53.862-48.368 49.061-83.905-2.848-21.079 18.71-37.148 38.093-28.387 52.231 23.607 66.247 70.749 55.85 118.018-13.62 61.916 24.124 101.064 49.339 113.323h-242.363z" fill="#f9efcd"/><path d="m198.684 461.261c-57.136 0-106.167-12.979-141.792-37.536-36.687-25.289-56.892-61.33-56.892-101.483 0-50.656 43.32-91.868 96.568-91.868 31.783 0 61.526 14.869 79.563 39.775 8.613 11.894 5.954 28.519-5.941 37.134-11.896 8.612-28.521 5.953-37.134-5.94-8.065-11.136-21.706-17.785-36.488-17.785-23.923 0-43.386 17.355-43.386 38.685 0 50.539 59.832 85.836 145.501 85.836 14.686 0 26.591 11.905 26.591 26.591.001 14.685-11.904 26.591-26.59 26.591z" fill="#deb597"/><g fill="#d79882"><path d="m198.684 408.078c-38.15 0-71.169-7.005-96.07-19.233 4.344 20.889 9.797 42.343 16.623 62.724 23.978 6.399 50.683 9.692 79.446 9.692 14.686 0 26.591-11.905 26.591-26.591.001-14.687-11.904-26.592-26.59-26.592z"/><path d="m86.52 267.572c.258 4.182.653 9.884 1.229 16.79 2.849-.527 5.798-.805 8.819-.805 14.783 0 28.423 6.649 36.488 17.785 8.613 11.893 25.238 14.552 37.134 5.94 11.895-8.615 14.554-25.24 5.94-37.134-18.036-24.906-47.779-39.775-79.563-39.775-.398 0-.794.01-1.192.014-6.487 11.171-9.661 24.137-8.855 37.185z"/></g><path d="m476.972 228.537h-324.646c-20.175 0-36.203 16.994-34.96 37.13 3.015 48.84 11.646 112.402 27.689 165.14l169.594 34.701 169.594-34.701c16.043-52.738 24.674-116.301 27.689-165.14 1.243-20.136-14.785-37.13-34.96-37.13z" fill="#f8debb"/><path d="m145.055 430.808 64.958 13.291c.714-12.348 2.591-42.899 4.541-59.072h.003c-14.854-60.225-14.02-125.106-1.203-156.49h-61.027c-20.175 0-36.203 16.994-34.96 37.13 3.014 48.84 11.646 112.402 27.688 165.141z" fill="#f6c5a3"/><g><path d="m120.902 21.964c21.567-21.567 64.898-13.203 93.885 15.784 42.442 42.442 61.715 96.682 40.148 118.249s-75.807 2.294-118.249-40.148c-28.987-28.987-37.351-72.318-15.784-93.885z" fill="#8ce0cd"/><path d="m203.532 112.094c-1.919 0-3.839-.732-5.303-2.197l-41.349-41.349c-2.929-2.929-2.929-7.678 0-10.606 2.929-2.929 7.678-2.929 10.606 0l41.349 41.349c2.929 2.929 2.929 7.678 0 10.606-1.464 1.464-3.383 2.197-5.303 2.197z" fill="#7fd29b"/></g><path d="m423.587 415.022v-15.836c0-8.718-7.067-15.785-15.785-15.785h-41.055c-8.718 0-15.785 7.067-15.785 15.785v15.836c0 8.718-7.067 15.785-15.785 15.785h-41.055c-8.718 0-15.785-7.067-15.785-15.785v-15.836c0-8.718-7.067-15.785-15.785-15.785h-41.055c-8.718 0-15.785 7.067-15.785 15.785v15.836c0 8.718-7.067 15.785-15.785 15.785h-44.871c3.002 9.869 6.262 19.361 9.795 28.304 10.273 26.005 35.433 43.056 63.394 43.056h192.811c27.961 0 53.122-17.052 63.395-43.057 3.533-8.943 6.792-18.435 9.794-28.303h-44.871c-8.72.001-15.787-7.067-15.787-15.785z" fill="#cfc2e7"/><g><g fill="#eda1ab"><ellipse cx="228.562" cy="337.501" rx="31.765" ry="25.296"/><ellipse cx="400.737" cy="337.501" rx="31.765" ry="25.296"/></g><g fill="#565e75"><path d="m247.074 320.34c-4.142 0-7.5-3.358-7.5-7.5v-12.362c0-4.142 3.358-7.5 7.5-7.5s7.5 3.358 7.5 7.5v12.362c0 4.142-3.358 7.5-7.5 7.5z"/><path d="m314.649 328.38c-8.996 0-17.551-3.896-23.471-10.689-2.722-3.123-2.396-7.86.727-10.582 3.122-2.721 7.86-2.396 10.582.727 3.07 3.523 7.503 5.544 12.162 5.544 4.658 0 9.091-2.021 12.161-5.544 2.723-3.122 7.459-3.448 10.582-.727 3.122 2.722 3.448 7.459.727 10.582-5.92 6.793-14.474 10.689-23.47 10.689z"/><path d="m398.936 319.995c-4.143 0-7.5-3.358-7.5-7.5 0-3.764-3.063-6.826-6.826-6.826-3.764 0-6.825 3.062-6.825 6.826 0 4.142-3.357 7.5-7.5 7.5s-7.5-3.358-7.5-7.5c0-12.035 9.791-21.826 21.825-21.826 12.035 0 21.826 9.791 21.826 21.826 0 4.142-3.357 7.5-7.5 7.5z"/></g></g><path d="m214.554 385.026c-5.232 2.571-8.842 7.937-8.842 14.16v15.836c0 8.718-7.067 15.785-15.785 15.785h-44.871c3.002 9.869 6.262 19.361 9.795 28.304 10.273 26.005 35.433 43.056 63.394 43.056h65.636c-34.815-22.306-57.254-68.181-69.327-117.141z" fill="#aeabe0"/></g></svg>