<svg id="Capa_1" enable-background="new 0 0 512 512" height="512" viewBox="0 0 512 512" width="512" xmlns="http://www.w3.org/2000/svg"><g><path d="m328.504 147.478 41.279 41.279v140.872c-18.903-34.441-63.204-54.438-113.783-54.438s-94.88 19.997-113.783 54.439v-140.872l41.279-41.279h145.008z" fill="#d79882"/><path d="m257.171 88.072c-10.028 0-18.157-8.129-18.157-18.157 0-11.856-11.883-27.245-27.642-35.796-8.813-4.782-12.081-15.804-7.299-24.618 4.783-8.814 15.802-12.082 24.619-7.299 12.27 6.658 23.551 16.311 31.765 27.18 9.729 12.875 14.871 26.891 14.871 40.533 0 10.028-8.129 18.157-18.157 18.157z" fill="#f8debb"/><path d="m123.042 481.319c-34.072-10.149-47.531-31.172-52.822-47.021-11.801-35.345 5.283-76.644 23.497-101.269 5.963-8.061 17.334-9.765 25.394-3.8 8.063 5.963 9.764 17.332 3.801 25.394-19.414 26.247-23.068 53.738-18.248 68.176 3.781 11.325 13.183 19.083 28.744 23.718 9.61 2.863 15.081 12.974 12.217 22.584-2.858 9.597-12.965 15.086-22.583 12.218z" fill="#f8debb"/><path d="m144.525 451.048c-7.88-7.88-20.968-7.568-29.232.696s-8.576 21.352-.696 29.232c5.669 5.669 9.749 14.656 11.12 23.111 1.025 6.322 7.948 9.801 13.63 6.848 6.937-3.605 14.443-8.57 20.505-14.632s11.027-13.568 14.632-20.505c2.953-5.682-.527-12.605-6.848-13.631-8.454-1.37-17.442-5.45-23.111-11.119z" fill="#e06e7e"/><path d="m366.375 469.101c-2.863-9.61 2.607-19.722 12.217-22.584 15.561-4.635 24.963-12.393 28.744-23.718 4.819-14.437 1.166-41.929-18.248-68.176-5.962-8.062-4.261-19.432 3.801-25.394 8.06-5.965 19.431-4.262 25.395 3.8 18.214 24.626 35.297 65.924 23.497 101.269-5.291 15.849-18.75 36.872-52.822 47.021-9.674 2.881-19.741-2.67-22.584-12.218z" fill="#f8debb"/><path d="m367.475 451.048c7.88-7.88 20.968-7.568 29.232.696s8.576 21.352.696 29.232c-5.669 5.669-9.749 14.656-11.12 23.111-1.025 6.322-7.948 9.801-13.63 6.848-6.936-3.605-14.443-8.57-20.505-14.632s-11.027-13.568-14.632-20.505c-2.953-5.682.527-12.605 6.848-13.631 8.454-1.37 17.442-5.45 23.111-11.119z" fill="#e06e7e"/><path d="m418.284 333.029c-5.964-8.063-17.334-9.765-25.395-3.8-8.063 5.963-9.764 17.333-3.802 25.395 14.243 19.256 19.996 39.176 20.151 54.126 12.847.265 25.452-4.044 35.598-12.105-3.138-24.123-14.602-47.459-26.552-63.616z" fill="#f6c5a3"/><path d="m102.762 408.749c.155-14.95 5.907-34.869 20.151-54.126 5.962-8.062 4.261-19.432-3.802-25.395-8.06-5.964-19.431-4.26-25.395 3.8-11.954 16.163-23.422 39.508-26.555 63.639 10.173 8.096 22.784 12.358 35.601 12.082z" fill="#f6c5a3"/><g><path d="m191.639 224.89c-13.086-25.679-51.033-23.681-72.416-8.934-3.453 40.59-13.468 80.913-38.954 124.904-13.286 22.934 14.457 47.788 35.812 32.09 38.62-28.389 46.318-102.49 75.558-148.06z" fill="#aeabe0"/><path d="m431.73 340.859c-25.486-43.991-35.501-84.314-38.954-124.904-21.382-14.747-59.329-16.745-72.416 8.934 29.24 45.57 36.938 119.671 75.557 148.06 21.356 15.698 49.1-9.156 35.813-32.09z" fill="#cfc2e7"/></g><path d="m391.177 174.016c0-61.728-60.521-111.768-135.177-111.768-23.967 0-46.471 5.164-65.99 14.209-41.783 56.226-26.411 122.723 17.965 128.668 12.237-11.11 27.645-17.94 48.025-17.94 30.665 0 50.081 15.45 64.361 37.704 23.186-1.803 48.809-4.634 72.416-8.934-1.183-13.895-1.6-27.822-1.6-41.939z" fill="#e06e7e"/><path d="m190.01 76.457c-41.281 19.131-69.187 55.647-69.187 97.559 0 14.116-.417 28.044-1.6 41.94 23.607 4.3 49.23 7.131 72.416 8.934 4.789-7.464 10.161-14.157 16.336-19.764-18.497-35.189-30.954-83.731-17.965-128.669z" fill="#d7495d"/><g><g fill="#eda1ab"><ellipse cx="174.042" cy="158.872" rx="30.241" ry="24.082"/><ellipse cx="337.958" cy="158.872" rx="30.241" ry="24.082"/></g><g fill="#565e75"><path d="m191.666 143.189c-4.143 0-7.5-3.358-7.5-7.5v-12.362c0-4.142 3.357-7.5 7.5-7.5s7.5 3.358 7.5 7.5v12.362c0 4.142-3.357 7.5-7.5 7.5z"/><path d="m320.333 143.189c-4.143 0-7.5-3.358-7.5-7.5v-12.362c0-4.142 3.357-7.5 7.5-7.5s7.5 3.358 7.5 7.5v12.362c0 4.142-3.357 7.5-7.5 7.5z"/><path d="m256 150.548c-8.668 0-16.911-3.754-22.615-10.3-2.722-3.122-2.395-7.86.727-10.581s7.859-2.397 10.582.727c2.854 3.275 6.975 5.154 11.307 5.154 4.331 0 8.452-1.879 11.307-5.154 2.723-3.123 7.457-3.448 10.582-.727 3.122 2.721 3.448 7.459.727 10.581-5.706 6.546-13.949 10.3-22.617 10.3z"/></g></g></g></svg>