<svg id="Capa_1" enable-background="new 0 0 512 512" height="512" viewBox="0 0 512 512" width="512" xmlns="http://www.w3.org/2000/svg"><g><path d="m158.333 81.703c0-23.655-20.633-42.831-46.086-42.831s-46.086 19.176-46.086 42.831c0 45.803 9.857 98.163 32.955 122.109 3.64 43.038 48.781 87.832 98.79 92.557 20.1 22.045 50.657 24.49 78.901 24.49 41.553 0 69.129-33.686 69.129-75.239s-27.575-75.239-69.129-75.239c-72.122 0-118.474-14.736-118.474-88.678z" fill="#eda1ab"/><g fill="#e06e7e"><path d="m197.897 303.87c-3.813 0-7.075-2.895-7.455-6.768-2.758-28.086 6.697-56.779 17.039-67.256 2.911-2.949 7.66-2.979 10.606-.069 2.948 2.91 2.979 7.659.069 10.606-6.917 7.007-15.127 31.417-12.787 55.253.405 4.123-2.608 7.793-6.731 8.197-.248.025-.495.037-.741.037z"/><path d="m99.109 211.313c-1.344 0-2.704-.361-3.932-1.119-3.525-2.175-4.619-6.796-2.444-10.321 8.606-13.945 26.683-25.899 43.957-29.071 4.077-.749 7.983 1.949 8.731 6.023s-1.948 7.983-6.022 8.731c-14.958 2.746-28.377 13.244-33.9 22.195-1.418 2.297-3.875 3.562-6.39 3.562z"/></g><path d="m482.928 250.289c0 40.774-36.959 113.329-65.707 141.136h-153.815c-6.163-14.323-7.406-35.024 8.298-62.464-8.534-29.506-15.51-61.227-15.51-82.804 0-31.637 27.641-55.342 57.883-52.026 5.178.568 10.284-1.808 13.151-6.157 9.354-14.193 25.429-23.562 43.698-23.562 19.467 0 36.445 10.635 45.452 26.411 2.6 4.554 7.486 7.32 12.728 7.16 28.937-.888 53.822 22.391 53.822 52.306z" fill="#8ce0cd"/><path d="m482.489 258.441c-6.042-2.671-12.716-4.166-19.735-4.166-50.988.361-53.034-.864-62.177 1.215-17.405-6.758-38.122-3.233-52.401 11.045l-35.693 35.692c-6.84-32.241-26.75-57.97-54.06-71.217-1.436 4.768-2.229 9.842-2.229 15.147 0 21.577 6.976 53.297 15.51 82.804-15.704 27.439-14.461 48.14-8.298 62.464h153.815c26.918-26.037 61.034-91.307 65.268-132.984z" fill="#7fd29b"/><path d="m462.754 372.741h-51.389c-9.988 0-18.086-8.097-18.086-18.086v-51.389c0-9.988 8.097-18.085 18.086-18.085h51.389c9.988 0 18.086 8.097 18.086 18.085v51.389c-.001 9.989-8.098 18.086-18.086 18.086z" fill="#eda1ab"/><path d="m431.943 350.304-36.337 36.337c-7.063 7.063-18.514 7.063-25.577 0l-36.338-36.337c-7.063-7.063-7.063-18.514 0-25.577l36.338-36.338c7.063-7.063 18.514-7.063 25.577 0l36.337 36.338c7.063 7.063 7.063 18.514 0 25.577z" fill="#f3c7d1"/><path d="m96.571 163.448c0-23.655-20.633-42.83-46.086-42.83s-46.086 19.176-46.086 42.83c0 45.803 9.857 98.163 32.955 122.109 3.64 43.038 48.781 87.833 98.79 92.557 20.099 22.045 50.656 24.489 78.901 24.489 41.553 0 69.129-33.686 69.129-75.239s-27.575-75.239-69.129-75.239c-72.122.001-118.474-14.735-118.474-88.677z" fill="#f3c7d1"/><g><g fill="#eda1ab"><path d="m136.136 385.615c-3.813 0-7.075-2.895-7.455-6.767-2.758-28.085 6.697-56.777 17.038-67.255 2.909-2.949 7.658-2.979 10.606-.07s2.979 7.658.069 10.606c-6.916 7.008-15.126 31.418-12.786 55.253.405 4.123-2.608 7.793-6.731 8.197-.249.024-.496.036-.741.036z"/><path d="m37.347 293.058c-1.344 0-2.704-.361-3.932-1.119-3.525-2.175-4.619-6.796-2.444-10.321 8.606-13.945 26.683-25.9 43.958-29.071 4.076-.749 7.983 1.948 8.731 6.023.748 4.074-1.949 7.983-6.022 8.731-14.959 2.746-28.378 13.244-33.901 22.195-1.419 2.298-3.876 3.562-6.39 3.562z"/></g></g><path d="m454.733 419.233-198.733-28.286-198.733 28.286 13.698 28.808c7.286 15.324 22.74 25.087 39.708 25.087h290.655c16.968 0 32.421-9.764 39.708-25.087z" fill="#d79882"/><path d="m496.043 362.662h-329.94c-29.532 23.255-3.902 50.14 21.722 56.571h281.998c16.729 0 31.722-10.327 37.685-25.957l3.429-8.989c3.983-10.436-3.724-21.625-14.894-21.625z" fill="#deb597"/><path d="m15.957 362.662c-11.17 0-18.877 11.189-14.895 21.625l3.429 8.989c5.963 15.63 20.956 25.957 37.685 25.957h145.648c-13.006-9.547-26.056-34.655-21.722-56.571z" fill="#d79882"/></g></svg>