<svg id="Capa_1" enable-background="new 0 0 512 512" height="512" viewBox="0 0 512 512" width="512" xmlns="http://www.w3.org/2000/svg"><g><path d="m191.404 118.818c-8.124-8.123-8.124-21.294 0-29.417 30.184-30.184 85.854-46.376 129.5-37.656 11.266 2.25 18.575 13.207 16.325 24.472-2.249 11.267-13.207 18.579-24.472 16.325-29.664-5.922-71.766 6.109-91.935 26.276-8.122 8.123-21.294 8.124-29.418 0z" fill="#deb597"/><path d="m320.904 51.744c-15.802-3.157-33.18-3.034-50.354-.178-5.422 15.571-9.985 31.149-13.563 46.283 18.445-6.288 39.077-8.641 55.769-5.309 11.265 2.254 22.223-5.058 24.472-16.325 2.251-11.264-5.058-22.221-16.324-24.471z" fill="#d79882"/><path d="m299.553 187.931c-11.488 0-20.802-9.313-20.802-20.802 0-42.904 15.982-102.454 41.709-155.412 5.02-10.334 17.464-14.644 27.801-9.621 10.333 5.02 14.641 17.467 9.621 27.801-27.698 57.016-37.526 109.56-37.526 137.232-.001 11.489-9.314 20.802-20.803 20.802z" fill="#deb597"/><g><path d="m74.085 262.951c-14.229-1.334-25.48-12.585-26.814-26.814-3.118-33.244 9.015-78.398 44.823-114.206 44.555-44.555 98.943-56.89 126.015-29.818s14.737 81.46-29.818 126.015c-35.808 35.808-80.962 47.941-114.206 44.823z" fill="#7fd29b"/><path d="m107.155 210.566c-1.92 0-3.839-.732-5.303-2.197-2.929-2.929-2.929-7.678 0-10.606l59.638-59.638c2.929-2.929 7.678-2.929 10.607 0s2.929 7.678 0 10.606l-59.638 59.638c-1.465 1.465-3.384 2.197-5.304 2.197z" fill="#5ec581"/></g><path d="m299.553 151.163c-37.412 0-70.761 18.974-97.557 47.337-66.81 144.839-87.798 341.831 216.034 281.809 29.66-26.163 47.168-66.818 47.168-115.496.001-88.065-69.38-213.65-165.645-213.65z" fill="#8ce0cd"/><path d="m201.996 198.499c-42.153 44.617-68.088 112.474-68.088 166.313 0 96.104 68.21 160.973 163.534 144.683.695-.119 1.405-.179 2.111-.179.707 0 1.417.06 2.111.179 47.04 8.039 87.47-3.696 116.366-29.186-248.012-23.087-237.253-222.001-216.034-281.81z" fill="#7fd29b"/><path d="m299.553 190.166c-45.02 0-84.548 43.381-107.006 92.948-14.351 89.498 34.627 181.215 163.925 186.737 44.953-11.59 69.723-53.768 69.723-105.038.001-69.944-56.699-174.647-126.642-174.647z" fill="#f3c7d1"/><path d="m192.547 283.114c-12.432 27.44-19.636 56.775-19.636 81.698 0 67.39 42.784 119.085 117.959 106.237 5.745-.982 11.621-.982 17.366 0 17.981 3.073 34.104 2.445 48.236-1.198-122.515-31.717-158.936-117.072-163.925-186.737z" fill="#eda1ab"/><g fill="#f3e872"><path d="m256.035 346.337h-6.934c-4.142 0-7.5-3.358-7.5-7.5s3.358-7.5 7.5-7.5h6.934c4.142 0 7.5 3.358 7.5 7.5s-3.358 7.5-7.5 7.5z"/><path d="m261.57 295.48c-1.919 0-3.839-.732-5.304-2.197l-4.451-4.451c-2.929-2.929-2.928-7.678.001-10.607 2.929-2.928 7.678-2.928 10.607.001l4.451 4.451c2.929 2.929 2.928 7.678 0 10.607-1.465 1.464-3.385 2.196-5.304 2.196z"/><path d="m254.59 401.829c-1.919 0-3.839-.732-5.304-2.197-2.929-2.929-2.928-7.678.001-10.606l2.891-2.891c2.929-2.929 7.678-2.929 10.606.001 2.929 2.929 2.928 7.678-.001 10.607l-2.891 2.891c-1.464 1.463-3.383 2.195-5.302 2.195z"/><path d="m350.005 346.337h-6.934c-4.142 0-7.5-3.358-7.5-7.5s3.358-7.5 7.5-7.5h6.934c4.142 0 7.5 3.358 7.5 7.5s-3.358 7.5-7.5 7.5z"/><path d="m337.537 295.48c-1.919 0-3.838-.732-5.303-2.196-2.929-2.929-2.929-7.678 0-10.607l4.451-4.451c2.929-2.929 7.677-2.929 10.607-.001 2.929 2.929 2.929 7.678 0 10.607l-4.451 4.451c-1.465 1.465-3.384 2.197-5.304 2.197z"/><path d="m344.517 401.829c-1.919 0-3.839-.732-5.303-2.197l-2.891-2.891c-2.929-2.929-2.929-7.678 0-10.606 2.929-2.929 7.678-2.929 10.606 0l2.891 2.891c2.929 2.929 2.929 7.678 0 10.606-1.465 1.465-3.384 2.197-5.303 2.197z"/></g></g></svg>