<svg id="Capa_1" enable-background="new 0 0 512 512" height="512" viewBox="0 0 512 512" width="512" xmlns="http://www.w3.org/2000/svg"><g><circle cx="445.664" cy="358.158" fill="#d79882" r="36.656"/><path d="m436.73 348.719c-2.798 0-5.482-1.572-6.77-4.264-8.241-17.22-34.187-104.734-34.187-182.111 0-4.142 3.358-7.5 7.5-7.5s7.5 3.358 7.5 7.5c0 74.997 24.83 159.156 32.717 175.635 1.788 3.736.209 8.215-3.527 10.003-1.045.5-2.148.737-3.233.737z" fill="#deb597"/><path d="m256 512c-30.416 0-54.719-25.315-53.479-55.706l6.6-161.748h93.757l6.6 161.748c1.241 30.391-23.062 55.706-53.478 55.706z" fill="#deb597"/><path d="m304.56 335.754-1.681-41.208h-93.757l-1.682 41.208z" fill="#d79882"/><path d="m203.001 294.546c-81.337 0-147.273-65.936-147.273-147.273s65.936-147.273 147.273-147.273h105.998v294.546z" fill="#e06e7e"/><g fill="#f8debb"><path d="m189.541 167.586h-133.813c-11.219 0-20.313-9.094-20.313-20.313s9.094-20.313 20.313-20.313h133.813c11.219 0 20.313 9.094 20.313 20.313s-9.095 20.313-20.313 20.313z"/><path d="m215.805 83.623h-133.812c-11.219 0-20.313-9.094-20.313-20.313s9.094-20.313 20.313-20.313h133.813c11.219 0 20.313 9.094 20.313 20.313-.001 11.219-9.095 20.313-20.314 20.313z"/><path d="m215.805 251.55h-133.812c-11.219 0-20.313-9.094-20.313-20.313s9.094-20.313 20.313-20.313h133.813c11.219 0 20.313 9.094 20.313 20.313-.001 11.219-9.095 20.313-20.314 20.313z"/></g><path d="m71.148 348.719c-1.085 0-2.188-.237-3.232-.737-3.736-1.788-5.315-6.267-3.527-10.003 7.8-16.298 36.838-101.644 36.838-175.635 0-4.142 3.358-7.5 7.5-7.5s7.5 3.358 7.5 7.5c0 77.624-29.86 164.46-38.308 182.111-1.288 2.692-3.973 4.264-6.771 4.264z" fill="#deb597"/><circle cx="66.336" cy="358.158" fill="#d79882" r="36.656"/><circle cx="308.999" cy="147.273" fill="#f9efcd" r="147.273"/><g><g><ellipse cx="226.95" cy="156.517" fill="#eda1ab" rx="30.274" ry="24.109"/><ellipse cx="391.047" cy="156.517" fill="#eda1ab" rx="30.274" ry="24.109"/><path d="m333.408 137.993c0-15.085-10.928-16.502-24.409-16.502-13.48 0-24.409 1.417-24.409 16.502s10.928 27.313 24.409 27.313c13.48 0 24.409-12.229 24.409-27.313z" fill="#565e75"/></g><g fill="#565e75"><path d="m232.011 135.233c-4.142 0-7.5-3.358-7.5-7.5v-12.362c0-4.142 3.358-7.5 7.5-7.5s7.5 3.358 7.5 7.5v12.362c0 4.143-3.358 7.5-7.5 7.5z"/><path d="m385.986 135.233c-4.142 0-7.5-3.358-7.5-7.5v-12.362c0-4.142 3.358-7.5 7.5-7.5s7.5 3.358 7.5 7.5v12.362c0 4.143-3.358 7.5-7.5 7.5z"/></g></g></g></svg>