<svg id="Capa_1" enable-background="new 0 0 512 512" height="512" viewBox="0 0 512 512" width="512" xmlns="http://www.w3.org/2000/svg"><g><path d="m470.827 132.454c-5.356-1.515-9.685-5.396-12.103-10.41-15.317-31.766-47.824-53.685-85.452-53.685-47.467 0-86.783 34.883-93.722 80.411-.562 3.686-3.725 6.411-7.454 6.411h-10.381c-35.138 0-63.601 28.582-63.408 63.765.075 13.62 11.293 24.559 24.913 24.559h232.15v-.001c.012 0 .023.001.035.001 31.256 0 56.594-25.338 56.594-56.594.001-26.027-17.527-47.768-41.172-54.457z" fill="#b8e5ff"/><g><g fill="#fff"><ellipse cx="455.23" cy="203.637" rx="30.241" ry="24.082"/><ellipse cx="291.315" cy="203.637" rx="30.241" ry="24.082"/></g><g fill="#565e75"><path d="m437.605 187.955c-4.143 0-7.5-3.358-7.5-7.5v-12.362c0-4.142 3.357-7.5 7.5-7.5 4.142 0 7.5 3.358 7.5 7.5v12.362c0 4.142-3.357 7.5-7.5 7.5z"/><path d="m308.939 187.955c-4.143 0-7.5-3.358-7.5-7.5v-12.362c0-4.142 3.357-7.5 7.5-7.5s7.5 3.358 7.5 7.5v12.362c0 4.142-3.357 7.5-7.5 7.5z"/><path d="m373.272 195.313c-8.668 0-16.911-3.754-22.615-10.299-2.722-3.122-2.396-7.86.727-10.581 3.121-2.722 7.859-2.397 10.582.726 2.855 3.276 6.976 5.154 11.307 5.154s8.452-1.878 11.307-5.154c2.722-3.123 7.46-3.449 10.582-.726 3.123 2.721 3.448 7.459.727 10.581-5.705 6.546-13.949 10.299-22.617 10.299z"/></g></g><path d="m287.529 230.832c-22.692-19.824-49.027-31.643-80.254-31.643-105.211 0-155 133.959-196.403 257.403-5.368 16.005 6.554 32.557 23.436 32.557h48.329c59.736-53.933 141.666-196.838 204.892-258.317z" fill="#e06e7e"/><path d="m169.874 382.216c-26.54-60.402-37.073-129.151-22.447-166.343-66.075 39.625-103.923 143.428-136.555 240.719-5.368 16.005 6.554 32.557 23.436 32.557h48.329c25.998-23.474 56.202-63.802 87.237-106.933z" fill="#d7495d"/><path d="m157.716 489.148c92.903-49.296 158.873-136.638 178.829-195.648-14.346-24.875-30.458-46.457-49.016-62.668-96.959-21.995-167.688 140.896-204.893 258.316z" fill="#f3e872"/><path d="m157.716 489.148c33.672-14.415 34.844-40.974 29.948-71.988-16.203-27.583-28.904-59.203-36.969-89.958-28.775 49.68-51.67 110.223-68.058 161.947z" fill="#edcf76"/><path d="m377.689 310.933.008-.003c-16.827-11.775-35.3-18.62-55.621-18.62-78.584 0-129.578 102.27-164.361 196.838h61.335c60.697-50.061 115.2-126.421 158.639-178.215z" fill="#b8e5ff"/><path d="m267.065 443.517c-17.696-45.924-14.858-106.677 2.228-134.506-49.728 32.79-85.285 108.658-111.576 180.138h61.336c16.494-13.607 32.528-29.163 48.012-45.632z" fill="#a1dcfc"/><path d="m429.866 368.82c-15.384-23.95-32.671-44.24-52.177-57.887-75.047-10.637-134.656 106.717-158.638 178.215h92.616c39.962-30.66 93.965-80.963 118.199-120.328z" fill="#e06e7e"/><path d="m299.496 489.148c-24.216-17.581-37.703-51.107-42.454-85.489-16.532 29.101-29.498 60.169-37.991 85.489z" fill="#d7495d"/><path d="m311.667 489.148h138.699c17.535 0 29.547-17.776 22.904-34.004-12.513-30.57-26.852-60.575-43.396-86.336-51.61-19.191-105.702 54.932-118.207 120.34z" fill="#cfc2e7"/><path d="m166.949 136.567c21.96 0 40.591-17.966 40.43-39.926-.192-26.273-25.081-44.208-49.15-38.166-3.727.936-7.645-.723-9.363-4.16-9.327-18.652-28.599-31.463-50.872-31.463-25.665 0-47.346 17.009-54.413 40.367-1.098 3.629-4.535 6.136-8.322 5.955-18.793-.9-35.381 14.155-35.258 33.903.116 18.656 15.806 33.49 34.462 33.49z" fill="#b8e5ff"/></g></svg>