<svg id="Capa_1" enable-background="new 0 0 512 512" height="512" viewBox="0 0 512 512" width="512" xmlns="http://www.w3.org/2000/svg"><g><path d="m151.214 512h-42.333c-14.633 0-26.495-11.862-26.495-26.495v-459.01c0-14.633 11.862-26.495 26.495-26.495h42.333c14.633 0 26.495 11.862 26.495 26.495v459.009c0 14.634-11.862 26.496-26.495 26.496z" fill="#f6c5a3"/><path d="m246.538 440.507h-42.333c-14.633 0-26.495-11.862-26.495-26.495v-387.517c-.001-14.633 11.862-26.495 26.495-26.495h42.333c14.633 0 26.495 11.862 26.495 26.495v387.517c0 14.633-11.862 26.495-26.495 26.495z" fill="#f8debb"/><path d="m341.862 369.014h-42.333c-14.633 0-26.495-11.862-26.495-26.495v-316.024c-.001-14.633 11.862-26.495 26.495-26.495h42.333c14.633 0 26.495 11.862 26.495 26.495v316.024c0 14.633-11.862 26.495-26.495 26.495z" fill="#f6c5a3"/><path d="m437.186 297.521h-42.333c-14.633 0-26.495-11.862-26.495-26.495v-244.531c-.001-14.633 11.861-26.495 26.494-26.495h42.333c14.633 0 26.495 11.862 26.495 26.495v244.531c.001 14.633-11.861 26.495-26.494 26.495z" fill="#f8debb"/><path d="m273.033 158.608h95.324v63.818h-95.324z" fill="#deb597"/><path d="m82.386 158.608h95.324v63.818h-95.324z" fill="#deb597"/><path d="m368.357 158.608h95.324v63.818h-95.324z" fill="#f6c5a3"/><path d="m177.709 158.608h95.324v63.818h-95.324z" fill="#f6c5a3"/><path d="m465.312 191.521h-384.557c-18.177 0-32.912-14.735-32.912-32.913v-61.461c0-18.177 14.735-32.912 32.912-32.912h384.557c18.177 0 32.913 14.735 32.913 32.912v61.461c-.001 18.177-14.736 32.913-32.913 32.913z" fill="#8ce0cd"/><g fill="#5ec581"><path d="m30.512 218.665c-1.897 0-3.846-.065-5.857-.2-4.133-.277-7.259-3.853-6.981-7.985.277-4.133 3.85-7.251 7.985-6.981 26.803 1.795 42.061-10.424 54.438-43.586 1.449-3.881 5.767-5.853 9.649-4.404 3.88 1.448 5.852 5.768 4.403 9.649-9.944 26.645-25.325 53.507-63.637 53.507z"/><path d="m57.769 182.801c-14.332 0-29.438-3.02-40.491-9.986-3.504-2.208-4.555-6.839-2.346-10.344s6.839-4.555 10.344-2.347c14.245 8.977 39.776 9.545 54.682 4.445 3.914-1.338 8.183.748 9.523 4.668 1.342 3.919-.749 8.183-4.668 9.524-7.571 2.591-17.123 4.04-27.044 4.04z"/></g><path d="m80.755 64.234c-18.177 0-32.912 14.735-32.912 32.912v61.461c0 18.177 14.735 32.913 32.912 32.913h141.257c-29.985-28.125-28.493-97.522-21.699-127.286z" fill="#7fd29b"/><g><g fill="#fff"><ellipse cx="192.291" cy="143.775" rx="29.792" ry="23.725"/><ellipse cx="353.776" cy="143.775" rx="29.792" ry="23.725"/></g><g fill="#565e75"><path d="m223.834 125.457c-4.143 0-7.5-3.358-7.5-7.5 0-3.684-2.997-6.681-6.681-6.681s-6.681 2.997-6.681 6.681c0 4.142-3.357 7.5-7.5 7.5s-7.5-3.358-7.5-7.5c0-11.955 9.725-21.681 21.681-21.681 11.955 0 21.681 9.726 21.681 21.681 0 4.143-3.357 7.5-7.5 7.5z"/><path d="m350.593 125.457c-4.143 0-7.5-3.358-7.5-7.5 0-3.684-2.997-6.681-6.681-6.681s-6.681 2.997-6.681 6.681c0 4.142-3.357 7.5-7.5 7.5-4.142 0-7.5-3.358-7.5-7.5 0-11.955 9.726-21.681 21.681-21.681s21.681 9.726 21.681 21.681c0 4.143-3.357 7.5-7.5 7.5z"/><path d="m273.034 148.884c-7.933 0-15.477-3.436-20.696-9.425-2.722-3.123-2.395-7.86.727-10.582 3.122-2.721 7.859-2.397 10.582.727 2.37 2.72 5.792 4.28 9.388 4.28 3.595 0 7.017-1.56 9.387-4.28 2.721-3.123 7.457-3.448 10.582-.727 3.122 2.721 3.448 7.459.727 10.582-5.222 5.99-12.765 9.425-20.697 9.425z"/></g></g><g fill="#f3e872"><path d="m126.755 127.877 6.606-6.606c2.929-2.929 2.929-7.678 0-10.606-2.93-2.929-7.678-2.929-10.607 0l-6.606 6.606-6.606-6.606c-2.93-2.929-7.678-2.929-10.607 0s-2.929 7.678 0 10.606l6.606 6.606-6.606 6.606c-2.929 2.929-2.929 7.678 0 10.606 2.93 2.929 7.677 2.929 10.607 0l6.606-6.606 6.606 6.606c2.93 2.929 7.677 2.929 10.607 0 2.929-2.929 2.929-7.678 0-10.606z"/><path d="m440.525 127.877 6.607-6.606c2.929-2.929 2.929-7.678 0-10.606-2.93-2.929-7.678-2.929-10.608 0l-6.606 6.606-6.606-6.606c-2.93-2.929-7.678-2.929-10.607 0s-2.929 7.678 0 10.606l6.606 6.606-6.606 6.606c-2.929 2.929-2.929 7.678 0 10.606 2.93 2.929 7.677 2.929 10.607 0l6.606-6.606 6.606 6.606c2.93 2.929 7.677 2.929 10.608 0 2.929-2.929 2.929-7.678 0-10.606z"/></g></g></svg>