<svg id="Capa_1" enable-background="new 0 0 512 512" height="512" viewBox="0 0 512 512" width="512" xmlns="http://www.w3.org/2000/svg"><g><path d="m240.629 69.258c56.259 60.777 147.793 167.962 81.526 234.229-87.12 87.12-204.676 49.004-251.866-47.392-3.421-6.988-8.645-12.976-15.339-16.94-81-47.967-61.294-134.995-12.41-183.879 50.84-50.839 138.841-50.025 198.089 13.982z" fill="#cfc2e7"/><path d="m322.155 303.487c53.428-53.428 4.279-133.447-46.257-194.305-4.877 6.283-9.198 13.112-12.867 20.472-67.755 32.149-94.096 129.577-67.956 195.235-4.149 7.713-7.493 15.957-10.037 24.536 45.175 9.174 94.745-3.566 137.117-45.938z" fill="#aeabe0"/><g fill="#aeabe0"><path d="m69.454 254.525c9.067-16.465 28.063-39.851 38.027-43.777 3.854-1.518 5.747-5.873 4.229-9.727-1.519-3.854-5.873-5.748-9.728-4.229-13.164 5.186-31.612 27.154-42.672 45.412 4.169 3.359 7.58 7.58 10.144 12.321z"/><path d="m85.997 108.156c-2.794-3.057-2.581-7.801.476-10.596 5.574-5.094 26.214-28.531 37.608-32.989 3.855-1.508 8.207.394 9.717 4.251s-.395 8.208-4.252 9.717c-7.286 2.851-28.252 25.795-32.952 30.092-3.067 2.801-7.807 2.575-10.597-.475z"/><path d="m155.514 266.09c-1.987-3.634-.653-8.191 2.98-10.179 6.206-3.388 22.452-11.996 27.833-17.377 2.93-2.929 7.679-2.929 10.607-.001 2.93 2.929 2.93 7.678.001 10.607-6.957 6.957-23.176 15.506-31.241 19.931-3.644 1.991-8.196.646-10.18-2.981z"/><path d="m237.789 66.261c-3.619-3.731-7.34-7.229-11.146-10.507-10.607 7.476-21.719 18.026-33.243 31.608-2.68 3.159-2.292 7.892.866 10.571 3.155 2.676 7.888 2.296 10.571-.866 11.76-13.859 22.782-24.145 32.952-30.806z"/></g><path d="m493.362 189.791c-2.602-3.006-4.695-6.434-5.848-10.239-24.905-82.169-153.14-107.697-188.975-28.631-2.973 6.561-8.181 11.849-14.83 14.62-2.102.876-4.142 1.861-6.133 2.928-23.588 44.013-78.445 286.393 67.414 324.459 56.762-1.389 101.161-31.417 103.053-96.599.286-9.842 5.623-18.977 14.317-23.598 44.212-23.503 68.884-139.174 31.002-182.94z" fill="#f8debb"/><path d="m289.567 374.142c3.305-5.673 3.18-12.736-.118-18.413-13.212-22.745-8.641-68.552 5.899-91.441 3.732-5.876 3.826-13.382.259-19.359-10.397-17.423-17.089-48.594-18.031-76.46-46.772 25.088-62.855 101.364-42.523 145.11 3.993 8.59 3.732 18.603-1.268 26.649-26.593 42.795-17.793 129.907 63.621 147.807 16.363 3.597 32.414 5.264 47.585 4.893-50.396-26.031-76.615-82.41-55.424-118.786z" fill="#f6c5a3"/><g><path d="m272.559 402.805c.686-4.085-2.07-7.952-6.156-8.637-13.785-2.312-34.315-8.865-45.502-13.757-.521 5.246-.675 10.612-.435 16.018 13.112 5.121 31.144 10.467 43.456 12.532 4.065.685 7.95-2.057 8.637-6.156z" fill="#d79882"/><path d="m486.369 176.041c-1.996-5.773-4.518-11.243-7.475-16.409-17.189-1.209-35.399 3.926-46.008 3.653-4.125-.113-7.578 3.178-7.677 7.32-.099 4.141 3.179 7.578 7.319 7.676 14.66.346 38.025-6.973 53.841-2.24z" fill="#f6c5a3"/><path d="m361.686 372.146c-4.101-.586-6.95-4.385-6.364-8.486.587-4.101 4.399-6.945 8.485-6.364 3.694.528 33.409 1.146 42.068-.009 4.098-.546 7.878 2.337 8.426 6.442.547 4.106-2.337 7.879-6.443 8.426-9.504 1.268-40.687.775-46.172-.009z" fill="#d79882"/><path d="m316.86 441.375c-3.891-1.421-5.893-5.728-4.472-9.618s5.726-5.893 9.618-4.472c8.182 2.989 30.701 4.777 37.863 4.357 4.125-.246 7.685 2.911 7.928 7.046s-2.912 7.684-7.047 7.927c-8.938.532-33.701-1.519-43.89-5.24z" fill="#f6c5a3"/><path d="m364.124 196.378c-9.356-.962-26.03-8.221-30.784-10.977-3.583-2.078-4.805-6.666-2.727-10.25 2.078-3.583 6.667-4.803 10.25-2.727 4.477 2.595 18.779 8.414 24.796 9.033 4.12.424 7.117 4.107 6.693 8.228-.423 4.113-4.099 7.116-8.228 6.693z" fill="#d79882"/></g><g><g fill="#eda1ab"><ellipse cx="276.658" cy="287.29" rx="31.765" ry="25.296"/><ellipse cx="448.833" cy="287.29" rx="31.765" ry="25.296"/></g><g fill="#565e75"><path d="m295.171 270.128c-4.143 0-7.5-3.358-7.5-7.5v-12.362c0-4.142 3.357-7.5 7.5-7.5s7.5 3.358 7.5 7.5v12.362c0 4.142-3.357 7.5-7.5 7.5z"/><path d="m362.745 278.169c-8.995 0-17.549-3.896-23.47-10.689-2.722-3.123-2.395-7.86.727-10.582 3.122-2.721 7.86-2.396 10.582.727 3.07 3.523 7.503 5.544 12.161 5.544s9.092-2.021 12.162-5.544c2.723-3.123 7.459-3.448 10.582-.727 3.122 2.722 3.448 7.46.727 10.582-5.921 6.793-14.476 10.689-23.471 10.689z"/><path d="m447.033 269.783c-4.143 0-7.5-3.358-7.5-7.5 0-3.764-3.063-6.826-6.826-6.826-3.764 0-6.826 3.062-6.826 6.826 0 4.142-3.358 7.5-7.5 7.5-4.143 0-7.5-3.358-7.5-7.5 0-12.035 9.791-21.826 21.826-21.826s21.826 9.791 21.826 21.826c0 4.142-3.357 7.5-7.5 7.5z"/></g></g></g></svg>