<svg id="Capa_1" enable-background="new 0 0 512 512" height="512" viewBox="0 0 512 512" width="512" xmlns="http://www.w3.org/2000/svg"><g><path d="m414.99 195.209c8.464-3.564 38.149-2.207 60.816 1.311 11.464 1.779 19.605-10.801 13.37-20.585-12.61-19.786-35.967-41.65-65.798-47.189z" fill="#f3e872"/><path d="m197.353 404.789s-82.443 57.076-126.894 76.948c-10.08 4.506-21.878 2.521-30.017-4.939l-15.798-14.482c-7.033-6.447-4.324-18.126 4.843-20.769 42.847-12.354 116.82-44.296 134.769-57.562z" fill="#565e75"/><path d="m164.255 383.985c-9.51 7.029-34.751 19.302-62.755 31.125 4.626 14.883 13.142 27.279 25.162 35.683 36.321-22.211 70.691-46.004 70.691-46.004z" fill="#404656"/><path d="m322.875 472.937c-12.442-33.434-15.456-73.63-13.583-85.802 1.577-10.248 11.167-17.275 21.409-15.699 10.233 1.575 17.257 11.136 15.705 21.367-.785 6.244 1.306 39.227 11.655 67.039 3.616 9.717-1.33 20.525-11.046 24.14-9.718 3.619-20.525-1.329-24.14-11.045z" fill="#f8debb"/><path d="m253.963 499.769c-12.441-33.431-15.456-73.627-13.583-85.801 1.575-10.248 11.163-17.275 21.408-15.7 10.233 1.574 17.256 11.134 15.707 21.365-.786 6.242 1.304 39.228 11.655 67.042 3.616 9.716-1.33 20.525-11.046 24.14-9.737 3.624-20.532-1.348-24.141-11.046z" fill="#f8debb"/><path d="m330.701 371.436c-10.243-1.577-19.832 5.451-21.409 15.699-1.47 9.551.072 36.358 6.815 63.612 12.12-4.56 23.812-9.966 34.8-16.134-4.175-19.765-5.053-37.414-4.5-41.809 1.551-10.231-5.473-19.793-15.706-21.368z" fill="#f6c5a3"/><path d="m277.495 419.633c1.55-10.231-5.474-19.791-15.707-21.365-10.245-1.575-19.833 5.452-21.408 15.7-1.277 8.301-.278 29.634 4.429 52.965 12.356-1.021 24.812-2.991 37.111-5.84-4.112-19.624-4.975-37.092-4.425-41.46z" fill="#f6c5a3"/><path d="m481.846 74.942c0-41.389-37.608-74.942-83.998-74.942-38.358 0-70.696 22.943-80.748 54.285-1.244 3.88-4.127 7.024-7.957 8.417-53.156 19.341-75.167 74.444-51.373 118.55 4.713 8.737 1.49 19.637-7.353 24.149-31.834 16.243-58.388 44.45-76.859 77.084-31.952 56.452-44.377 132.572 9.098 148.658 78.172 23.515 232.751-25.692 232.751-149.068 0-16.272-4.904-31.55-13.501-44.785-5.289-8.143-3.154-18.889 4.853-24.381 23.222-15.929 38.207-40.861 38.322-68.884.018-4.271 2.041-8.253 5.507-10.751 19.065-13.738 31.258-34.764 31.258-58.332z" fill="#e06e7e"/><path d="m360.639 391.032c-118.162 20.031-150.499-117.009-114.84-183.16-29.784 16.544-54.671 43.571-72.241 74.613-31.952 56.452-44.377 132.572 9.098 148.658 48.323 14.536 125.829 1.271 177.983-40.111z" fill="#d7495d"/><path d="m300.826 321.707c-13.531 73.322-111.6 114.636-146.032 104.073-26.803-8.223-30.619-52.452-4.17-94.756 2.424-3.878 6.517-6.378 11.069-6.818 42.899-4.151 75.996-23.602 101.545-53.372 3.669-4.275 9.529-6.042 14.933-4.451 25.483 7.503 27.055 31.48 22.655 55.324z" fill="#565e75"/><g><ellipse cx="361.205" cy="162.998" fill="#eda1ab" rx="33.93" ry="27.02"/><path d="m397.13 141.095c-4.142 0-7.5-3.358-7.5-7.5 0-4.77-3.88-8.65-8.65-8.65s-8.65 3.88-8.65 8.65c0 4.142-3.358 7.5-7.5 7.5s-7.5-3.358-7.5-7.5c0-13.041 10.609-23.65 23.65-23.65 13.04 0 23.65 10.609 23.65 23.65 0 4.142-3.358 7.5-7.5 7.5z" fill="#565e75"/></g></g></svg>