<svg id="Capa_1" enable-background="new 0 0 512 512" height="512" viewBox="0 0 512 512" width="512" xmlns="http://www.w3.org/2000/svg"><g><path d="m24.289 406.754c-4.917-82.359 18.994-241.697 72.888-241.697 24.621 0 57.319 50.52 75.034 82.771 3.195 5.817 11.921 4.427 13.141-2.096 12.88-68.868 57.807-210.531 126.731-210.531 51.648 0 78.934 93.836 108.195 119.095 64.345 55.546 89.267 178.238 91.719 301.842.225 11.344-8.921 20.661-20.268 20.661h-28.667z" fill="#7fd29b"/><path d="m421.361 373.689c-49.137-33.394-138.191-72.389-227.463-72.389-96.047 0-117.27 26.109-158.087 44.956-3.636 1.679-7.374 3.625-11.133 5.871-1.209 19.944-1.339 38.724-.39 54.628l407.234 70.045h30.906c0-62.156-22.332-90.379-41.067-103.111z" fill="#5ec581"/><path d="m403.99 399.25c-38.512-26.173-122.634-67.044-210.092-67.044s-101.838 22.12-145.131 42.109c-39.681 18.321-47.418 55.772-48.739 81.213-.601 11.574 8.652 21.271 20.242 21.271h22.618l65.614-17.463 65.614 17.463h169.721l86.623-20.315c-2.255-20.89-8.855-45.263-26.47-57.234z" fill="#8ce0cd"/><path d="m367.787 391.29h-89.896c-11.684 0-21.155-9.471-21.155-21.155v-19.906c0-11.684 9.471-21.155 21.155-21.155h89.896c11.684 0 21.155 9.471 21.155 21.155v19.906c0 11.684-9.472 21.155-21.155 21.155z" fill="#a6aeba"/><path d="m416.78 432.598h-100.007c-9.269 0-16.782-7.514-16.782-16.782v-20.404c0-9.269 7.514-16.782 16.782-16.782h78.698c11.638 0 22.572 5.578 29.403 15l5.493 7.577c2.077 2.865 3.195 6.312 3.195 9.851v4.758c0 9.269-7.514 16.782-16.782 16.782z" fill="#8c9aad"/><path d="m463.061 476.799h-119.223v-36.206c0-6.893 5.588-12.481 12.481-12.481h94.261c6.893 0 12.481 5.588 12.481 12.481z" fill="#a6aeba"/><g fill="#7fd29b"><path d="m254.315 447.043h-41.651c-4.142 0-7.5-3.358-7.5-7.5s3.358-7.5 7.5-7.5h41.651c4.142 0 7.5 3.358 7.5 7.5 0 4.143-3.358 7.5-7.5 7.5z"/><path d="m224.512 410.26h-41.652c-4.142 0-7.5-3.358-7.5-7.5s3.358-7.5 7.5-7.5h41.652c4.142 0 7.5 3.358 7.5 7.5s-3.358 7.5-7.5 7.5z"/></g><g><g><ellipse cx="236.462" cy="257.185" fill="#fff" rx="31.872" ry="25.381"/><ellipse cx="409.216" cy="257.185" fill="#fff" rx="31.872" ry="25.381"/><ellipse cx="322.839" cy="237.684" fill="#565e75" rx="16.918" ry="18.932"/></g><g fill="#565e75"><path d="m241.79 234.057c-4.142 0-7.5-3.358-7.5-7.5v-12.362c0-4.142 3.358-7.5 7.5-7.5s7.5 3.358 7.5 7.5v12.362c0 4.142-3.358 7.5-7.5 7.5z"/><path d="m403.888 234.057c-4.142 0-7.5-3.358-7.5-7.5v-12.362c0-4.142 3.358-7.5 7.5-7.5s7.5 3.358 7.5 7.5v12.362c0 4.142-3.358 7.5-7.5 7.5z"/></g></g><path d="m273.578 184.466c-4.142 0-7.5-3.358-7.5-7.5 0-15.672 6.656-28.333 13.092-40.576 5.548-10.553 10.788-20.52 11.897-32.225.39-4.124 4.046-7.152 8.174-6.758 4.124.391 7.149 4.05 6.758 8.174-1.389 14.649-7.573 26.413-13.553 37.789-5.847 11.122-11.37 21.627-11.37 33.597.002 4.141-3.356 7.499-7.498 7.499z" fill="#5ec581"/><path d="m461.3 386.13c-2.314 0-4.596-1.067-6.065-3.08-13.327-18.264-27.113-51.958-27.113-76.729 0-4.142 3.358-7.5 7.5-7.5s7.5 3.358 7.5 7.5c0 21.423 12.577 51.918 24.23 67.887 2.441 3.346 1.708 8.038-1.638 10.48-1.333.974-2.881 1.442-4.414 1.442z" fill="#5ec581"/><path d="m42.888 476.799v-15.468c0-8.168 3.245-16.001 9.02-21.777l7.391-7.391c5.776-5.776 13.609-9.02 21.777-9.02h53.457c8.168 0 16.001 3.245 21.777 9.02l8.787 8.787c5.775 5.775 9.02 13.609 9.02 21.776v14.071h-131.229z" fill="#a6aeba"/><path d="m97.569 423.144h-16.493c-8.168 0-16.001 3.245-21.777 9.02l-7.391 7.391c-5.775 5.775-9.02 13.609-9.02 21.777v15.468h65.627c-7.878-11.901-15.29-40.355-10.946-53.656z" fill="#8c9aad"/><path d="m89.846 302.158c-4.142 0-7.5-3.358-7.5-7.5 0-9.45 2.347-17.568 4.617-25.418 2.344-8.105 4.767-16.487 4.767-26.928 0-4.142 3.358-7.5 7.5-7.5s7.5 3.358 7.5 7.5c0 12.566-2.846 22.41-5.357 31.095-2.161 7.473-4.027 13.927-4.027 21.252 0 4.141-3.358 7.499-7.5 7.499z" fill="#5ec581"/></g></svg>