<svg id="Capa_1" enable-background="new 0 0 512 512" height="512" viewBox="0 0 512 512" width="512" xmlns="http://www.w3.org/2000/svg"><g><path d="m83.99 409.581c-6.506-11.574-13.231-32.952-14.029-48.899-.469-9.377 7.075-17.215 16.464-17.245 197.269-.629 259.532-14.458 259.532 72.955 0 64.581-261.967-6.811-261.967-6.811z" fill="#7fd29b"/><path d="m86.425 343.437c-9.389.03-16.932 7.868-16.464 17.245.15 3 .51 6.193 1.039 9.476 10.983 6.462 23.968 10.217 37.881 10.217 13.108 0 25.928-3.351 37.076-9.693.01-.005.019-.011.027-.015 11.15 6.351 23.997 9.706 37.16 9.706 12.468 0 24.727-3.037 35.464-8.784 11.31 5.747 24.238 8.785 37.395 8.785 13.166 0 26.101-3.042 37.371-8.794 10.739 5.753 23.003 8.794 35.477 8.794 3.753 0 7.479-.282 11.149-.82-19.6-46.186-90.4-36.638-253.575-36.117z" fill="#5ec581"/><path d="m426.292 410.308c5.921-4.358 20.039-30.438 22.262-52.461 1.055-10.448-7.303-19.472-17.804-19.478-134.455-.073-208.02.292-222.801 75.882z" fill="#8ce0cd"/><path d="m430.75 338.369c-105.22-.057-173.147.158-204.797 36.478 9.419 3.626 19.661 5.527 30.049 5.527 13.166 0 26.101-3.042 37.371-8.794 10.739 5.753 23.003 8.794 35.477 8.794 13.182 0 26.048-3.366 37.211-9.734-.013.011-.022.025-.02.042 11.148 6.341 23.969 9.693 37.077 9.693 16.654 0 31.98-5.375 44.128-14.346.587-2.756 1.037-5.499 1.308-8.181 1.055-10.449-7.303-19.473-17.804-19.479z" fill="#7fd29b"/><path d="m403.119 273.016c-8.955 0-17.302 2.319-24.34 6.323-7.921 4.506-17.53 4.571-25.441.047-14.443-8.259-33.135-8.521-47.881-.585-7.383 3.973-16.217 4.034-23.687.228-15.734-8.016-35.802-8.02-51.54 0-7.468 3.806-16.302 3.746-23.682-.227-14.752-7.942-33.442-7.669-47.88.584-7.913 4.523-17.521 4.462-25.444-.045-7.039-4.005-15.387-6.324-24.342-6.324-25.143 0-45.525 18.268-45.525 40.802s20.382 40.802 45.525 40.802c8.955 0 17.302-2.32 24.341-6.323 7.921-4.506 17.53-4.571 25.441-.047 14.442 8.258 33.134 8.522 47.882.585 7.382-3.973 16.216-4.034 23.686-.228 15.734 8.016 35.802 8.02 51.54 0 7.468-3.806 16.302-3.746 23.682.228 14.752 7.942 33.442 7.669 47.88-.584 7.913-4.523 17.521-4.461 25.444.045 7.039 4.004 15.387 6.324 24.342 6.324 25.143 0 45.525-18.268 45.525-40.802-.001-22.535-20.383-40.803-45.526-40.803z" fill="#deb597"/><path d="m245.78 213.097c80.095-33.677 113.582 6.458 173.792-53.752 15.84-15.84 15.84-41.521 0-57.361-6.773-6.773-15.347-10.64-24.18-11.621 7.461-15.152 4.899-33.988-7.708-46.595s-31.444-15.168-46.595-7.708c-.981-8.833-4.848-17.407-11.621-24.18-15.84-15.84-41.521-15.84-57.361 0-60.21 60.21-20.075 93.697-53.752 173.792z" fill="#8ce0cd"/><path d="m306.144 132.809c-1.919 0-3.839-.732-5.304-2.197-2.929-2.929-2.929-7.678 0-10.606l39.506-39.507c2.93-2.929 7.678-2.929 10.607 0s2.929 7.678 0 10.607l-39.506 39.507c-1.465 1.464-3.384 2.196-5.303 2.196z" fill="#7fd29b"/><path d="m289.828 88.806c13.264 0 23.237 12.299 20.274 25.229-9.553 41.689-43.434 72.398-97.345 72.398-52.263 0-103.155-28.861-120.395-68.608-5.945-13.706 4.111-29.019 19.05-29.019z" fill="#f9efcd"/><path d="m257.187 88.806c0 27.422-18.212 49.652-50.924 49.652s-64.367-22.23-64.367-49.652z" fill="#edcf76"/><path d="m432.067 287.419h-352.134c-12.074 0-21.862-9.788-21.862-21.862v-50.198c0-16.767 13.592-30.359 30.359-30.359h335.138c16.767 0 30.359 13.592 30.359 30.359v50.198c.001 12.074-9.786 21.862-21.86 21.862z" fill="#f3e872"/><path d="m193.263 185h-104.832c-16.767 0-30.359 13.592-30.359 30.359v50.198c0 12.074 9.788 21.862 21.862 21.862h131.971c-24.019-25.267-27.876-69.55-18.642-102.419z" fill="#edcf76"/><path d="m79.933 409.581h352.134c12.074 0 21.862 9.788 21.862 21.862v50.198c0 16.767-13.592 30.359-30.359 30.359h-335.139c-16.767 0-30.359-13.592-30.359-30.359v-50.198c0-12.074 9.787-21.862 21.861-21.862z" fill="#f3e872"/><path d="m79.933 409.581c-12.074 0-21.862 9.788-21.862 21.862v50.198c0 16.767 13.592 30.359 30.359 30.359h140.716c-30.11-16.3-39.357-76.779-31.414-102.419z" fill="#edcf76"/><g><g fill="#eda1ab"><ellipse cx="174.042" cy="255.917" rx="30.241" ry="24.082"/><ellipse cx="337.958" cy="255.917" rx="30.241" ry="24.082"/></g><g fill="#565e75"><path d="m191.666 240.235c-4.142 0-7.5-3.358-7.5-7.5v-12.362c0-4.142 3.358-7.5 7.5-7.5s7.5 3.358 7.5 7.5v12.362c0 4.142-3.357 7.5-7.5 7.5z"/><path d="m320.333 240.235c-4.143 0-7.5-3.358-7.5-7.5v-12.362c0-4.142 3.357-7.5 7.5-7.5s7.5 3.358 7.5 7.5v12.362c0 4.142-3.357 7.5-7.5 7.5z"/><path d="m256 247.594c-8.669 0-16.912-3.754-22.616-10.3-2.721-3.122-2.396-7.86.727-10.581s7.861-2.396 10.582.727c2.855 3.275 6.976 5.154 11.307 5.154s8.452-1.879 11.307-5.154c2.723-3.123 7.457-3.448 10.582-.727 3.122 2.721 3.448 7.459.727 10.581-5.705 6.546-13.948 10.3-22.616 10.3z"/></g></g></g></svg>