<svg id="Capa_1" enable-background="new 0 0 512 512" height="512" viewBox="0 0 512 512" width="512" xmlns="http://www.w3.org/2000/svg"><g><path d="m351.983 152.048v-131.244c-17.301-7.342-51.933-15.888-95.983-15.888s-78.682 8.546-95.983 15.888v131.244z" fill="#deb597"/><path d="m19.388 197.825c16.113 43.034 103.329 151.671 236.612 151.671s220.499-108.637 236.612-151.67h.003c-16.22-53.193-36.425-110.059-52.46-145.655-3.235-7.181-9.361-12.642-16.864-15.033l-72.791-23.204c-9.336-2.976-19.351 2.034-22.543 11.298-11.487 33.338-34.871 58.381-55.435 73.84-9.768 7.343-23.276 7.343-33.043 0-20.564-15.459-43.948-40.502-55.435-73.84-3.192-9.264-13.207-14.274-22.543-11.298l-72.792 23.203c-7.503 2.392-13.63 7.853-16.864 15.033-16.035 35.596-36.24 92.462-52.46 145.655z" fill="#f9efcd"/><path d="m19.388 197.825c10.973 29.305 54.93 89.025 123.944 124.151-31.72-97.602-26.292-226.907-4.877-300.696l-49.746 15.857c-7.503 2.392-13.63 7.853-16.864 15.033-16.035 35.596-36.24 92.462-52.46 145.655z" fill="#f8debb"/><path d="m256 507.084c-11.802 0-21.37-9.567-21.37-21.37v-90.39c0-11.802 9.567-21.37 21.37-21.37s21.37 9.567 21.37 21.37v90.39c0 11.803-9.568 21.37-21.37 21.37z" fill="#7fd29b"/><path d="m256 373.955c-11.802 0-21.37 9.568-21.37 21.37v61.212c7 1.611 14.154 2.442 21.37 2.442s14.37-.831 21.37-2.442v-61.212c0-11.802-9.568-21.37-21.37-21.37z" fill="#5ec581"/><path d="m125.922 467.763c-11.333-3.293-17.852-15.15-14.559-26.483 8.59-29.559 12.661-72.472 12.661-79.602 0-11.802 9.567-21.37 21.37-21.37 11.802 0 21.37 9.567 21.37 21.37 0 10.151-4.319 56.979-14.358 91.527-3.298 11.352-15.173 17.846-26.484 14.558z" fill="#b8e5ff"/><path d="m158.446 427.974c5.756-28.945 8.318-58.484 8.318-66.297 0-11.802-9.567-21.37-21.37-21.37-11.802 0-21.37 9.567-21.37 21.37 0 4.833-1.874 26.114-5.756 48.53 13.592 6.239 27.142 12.225 40.178 17.767z" fill="#a1dcfc"/><path d="m21.023 422.498c-10.773-4.821-15.598-17.462-10.778-28.234 6.857-15.325 14.238-46.434 14.238-78.521 0-11.802 9.567-21.37 21.37-21.37s21.37 9.567 21.37 21.37c0 41.206-9.678 77.456-17.965 95.977-4.806 10.741-17.43 15.611-28.235 10.778z" fill="#e06e7e"/><path d="m67.223 315.743c0-11.802-9.567-21.37-21.37-21.37s-21.37 9.567-21.37 21.37c0 15.563-1.739 30.89-4.31 44.303 11.797 6.943 25.028 14.178 39.063 21.447 4.541-18.343 7.987-41.162 7.987-65.75z" fill="#d7495d"/><path d="m386.078 467.763c11.333-3.293 17.852-15.15 14.559-26.483-8.59-29.559-12.661-72.472-12.661-79.602 0-11.802-9.567-21.37-21.37-21.37-11.802 0-21.37 9.567-21.37 21.37 0 10.151 4.319 56.979 14.358 91.527 3.298 11.352 15.173 17.846 26.484 14.558z" fill="#b8e5ff"/><path d="m387.976 361.677c0-11.802-9.567-21.37-21.37-21.37-11.802 0-21.37 9.567-21.37 21.37 0 7.813 2.562 37.352 8.318 66.297 13.037-5.542 26.586-11.528 40.177-17.767-3.882-22.415-5.755-43.696-5.755-48.53z" fill="#a1dcfc"/><path d="m490.977 422.498c10.773-4.821 15.598-17.462 10.778-28.234-6.857-15.325-14.238-46.434-14.238-78.521 0-11.802-9.567-21.37-21.37-21.37s-21.37 9.567-21.37 21.37c0 41.206 9.678 77.456 17.965 95.977 4.806 10.741 17.43 15.611 28.235 10.778z" fill="#e06e7e"/><path d="m487.517 315.743c0-11.802-9.567-21.37-21.37-21.37-11.802 0-21.37 9.567-21.37 21.37 0 24.587 3.446 47.406 7.986 65.751 14.035-7.27 27.266-14.504 39.063-21.447-2.57-13.414-4.309-28.741-4.309-44.304z" fill="#d7495d"/><path d="m510.062 259.949c-4.758-18.921-10.768-40.213-17.449-62.124-18.65 16.523-39.209 32.298-60.296 46.799-2.707 1.862-6.392-.062-6.392-3.347v-6.742c0-8.843-7.169-16.011-16.011-16.011h-36.147c-8.843 0-16.011 7.169-16.011 16.011v46.905c0 5.262-2.924 10.102-7.596 12.525-18.297 9.491-35.422 17.359-50.271 23.224-4.709 1.86-9.805-1.608-9.805-6.67v-16.558c0-8.843-7.168-16.011-16.011-16.011h-36.147c-8.843 0-16.011 7.168-16.011 16.011v16.558c0 5.063-5.096 8.53-9.805 6.67-14.849-5.865-31.974-13.734-50.271-23.224-4.671-2.423-7.596-7.262-7.596-12.525v-46.906c0-8.843-7.168-16.011-16.011-16.011h-36.147c-8.842 0-16.011 7.168-16.011 16.011v6.742c0 3.285-3.685 5.209-6.392 3.347-21.087-14.502-41.645-30.276-60.296-46.799-6.681 21.911-12.691 43.203-17.45 62.124-6.899 27.434 5.029 56.094 29.257 70.694 54.237 32.682 150.929 76.319 204.435 94.128 13.23 4.403 27.509 4.403 40.739 0 53.506-17.809 150.197-61.445 204.435-94.128 24.231-14.599 36.159-43.259 29.26-70.693z" fill="#deb597"/><path d="m123.332 218.524h-21.245c-8.843 0-16.011 7.168-16.011 16.011v6.742c0 3.285-3.685 5.209-6.392 3.347-21.087-14.501-41.645-30.276-60.296-46.799-6.681 21.911-12.691 43.203-17.449 62.124-6.899 27.434 5.029 56.094 29.257 70.694 40.959 24.681 106.126 55.607 158.625 76.941-40.036-44.071-60.064-115.881-66.489-189.06z" fill="#d79882"/><g><g><ellipse cx="174.042" cy="187.755" fill="#eda1ab" rx="30.241" ry="24.082"/><ellipse cx="337.958" cy="187.755" fill="#eda1ab" rx="30.241" ry="24.082"/><path d="m256 162.168c-11.997 0-22.681-8.062-29.401 1.88-6.816 10.085 8.45 25.723 29.401 25.723s36.217-15.638 29.401-25.723c-6.72-9.941-17.404-1.88-29.401-1.88z" fill="#565e75"/></g><g fill="#565e75"><path d="m191.666 170.408c-7.281 0-14.207-3.154-19-8.652-2.722-3.122-2.397-7.86.725-10.582 3.125-2.722 7.859-2.397 10.582.725 1.944 2.23 4.748 3.509 7.693 3.509 2.946 0 5.751-1.279 7.693-3.508 2.722-3.123 7.457-3.448 10.582-.727 3.122 2.722 3.448 7.459.727 10.582-4.793 5.499-11.719 8.653-19.002 8.653z"/><path d="m320.334 170.408c-7.283 0-14.209-3.154-19.002-8.653-2.722-3.123-2.396-7.86.727-10.582 3.122-2.721 7.859-2.396 10.582.727 1.942 2.229 4.747 3.508 7.693 3.508 2.945 0 5.749-1.279 7.693-3.509 2.721-3.123 7.458-3.448 10.582-.725 3.122 2.722 3.446 7.46.725 10.582-4.793 5.498-11.719 8.652-19 8.652z"/></g></g></g></svg>