<svg id="Capa_1" enable-background="new 0 0 497 497" height="512" viewBox="0 0 497 497" width="512" xmlns="http://www.w3.org/2000/svg"><g><path d="m479.406 264.446h-73.214c-8.807 0-15.947-7.14-15.947-15.947 0-8.807 7.139-15.947 15.947-15.947h73.214c9.61 0 17.771-7.864 17.59-17.472-.175-9.317-7.782-16.816-17.141-16.816h-78.862l29.721-29.721c6.696-6.695 6.696-17.55 0-24.245-6.695-6.695-17.55-6.695-24.245.001l-37.431 37.432c-2.817 2.817-7.634.822-7.634-3.162v-42.129c0-9.61-7.864-17.77-17.472-17.59-9.317.175-16.816 7.782-16.816 17.141v40.197c0 10.705-7.913 19.761-18.521 21.198-12.838 1.738-24.262-8.243-24.262-21.198v-80.304c0-9.61-7.864-17.77-17.472-17.59-9.317.175-16.816 7.782-16.816 17.141v95.951c0 7.977-5.897 14.727-13.802 15.797-9.567 1.296-18.081-6.143-18.081-15.797v-125.94c0-9.61-7.864-17.771-17.472-17.59-9.317.175-16.816 7.782-16.816 17.141v136.623c0 3.41-3.36 5.798-6.582 4.682-20.27-7.021-43.306 1.503-53.798 20.885-1.379 2.547-4.004 4.168-6.9 4.168h-99.001c-9.61 0-17.77 7.864-17.59 17.472.175 9.317 7.782 16.816 17.141 16.816h99.451c2.896 0 5.521 1.622 6.9 4.169 10.49 19.376 33.524 27.908 53.798 20.885 3.222-1.116 6.582 1.272 6.582 4.682v136.174c0 9.61 7.864 17.77 17.472 17.59 9.317-.175 16.816-7.782 16.816-17.141v-126.388c0-9.654 8.514-17.093 18.081-15.797 7.905 1.07 13.802 7.82 13.802 15.797v95.502c0 9.61 7.864 17.77 17.472 17.59 9.317-.175 16.816-7.782 16.816-17.141v-80.753c0-12.955 11.424-22.936 24.262-21.198 10.608 1.436 18.521 10.493 18.521 21.198v39.747c0 9.61 7.864 17.77 17.472 17.59 9.317-.175 16.816-7.782 16.816-17.141v-42.578c0-3.984 4.817-5.979 7.634-3.162l37.431 37.432c6.694 6.695 17.549 6.695 24.245 0s6.696-17.55 0-24.245l-29.721-29.721h78.862c9.359 0 16.966-7.499 17.141-16.816.18-9.608-7.981-17.472-17.591-17.472z" fill="#deb597"/><path d="m250.045 305.614v95.502c0 9.61 7.864 17.77 17.472 17.59 9.317-.175 16.816-7.782 16.816-17.141v-80.753c0-5.04 1.734-9.625 4.603-13.25-33.273-20.303-49.101-58.598-44.418-104.128-2.273 1.966-5.107 3.318-8.275 3.747-9.567 1.296-18.081-6.143-18.081-15.797v-125.938c0-9.61-7.864-17.771-17.472-17.59-9.317.175-16.816 7.782-16.816 17.141v136.623c0 3.41-3.36 5.798-6.582 4.682-20.27-7.021-43.306 1.503-53.798 20.885-1.379 2.547-4.004 4.168-6.9 4.168h-99.001c-9.61 0-17.77 7.864-17.59 17.472.175 9.317 7.782 16.816 17.141 16.816h99.451c2.896 0 5.521 1.622 6.9 4.168 10.49 19.376 33.524 27.908 53.798 20.885 3.222-1.116 6.582 1.272 6.582 4.682v136.174c0 9.61 7.864 17.77 17.472 17.59 9.317-.175 16.816-7.782 16.816-17.141v-126.387c0-9.654 8.514-17.093 18.081-15.797 7.904 1.071 13.801 7.82 13.801 15.797z" fill="#d79882"/></g></svg>