<svg id="Capa_1" enable-background="new 0 0 512 512" height="512" viewBox="0 0 512 512" width="512" xmlns="http://www.w3.org/2000/svg"><g><path d="m356.219 451.864h-200.438c-60.182 0-108.969-48.787-108.969-108.969v-168.016h418.377v168.017c0 60.181-48.788 108.968-108.97 108.968z" fill="#f9efcd"/><g><g><path d="m170.017 359.532c-2.607-.869-4.548-2.819-5.326-5.35-2.324-7.556 1.572-5.519 46.52-69.741 13.065-18.668 12.51-27.889 12.696-28.459-.238-13.484-11.282-24.379-24.822-24.379-11.838 0-22.083 8.414-24.359 20.005-.798 4.064-4.739 6.71-8.805 5.914-4.064-.798-6.712-4.74-5.914-8.805 3.655-18.608 20.089-32.115 39.078-32.115 21.96 0 39.826 17.866 39.826 39.826 0 .931-.738 6.235-.818 6.581-2.112 9.111-7.022 19.216-14.593 30.033-19.485 27.84-31.44 43.584-38.12 52.335 12.456.096 32.724-.027 51.292-.261 4.129-.043 7.542 3.264 7.594 7.405.052 4.142-3.264 7.542-7.405 7.594-4.847.06-62.214.959-66.844-.583z" fill="#565e75"/></g><path d="m330.79 276.191c7.01-6.254 11.445-15.334 11.445-25.445 0-18.821-15.313-34.133-34.134-34.133s-34.134 15.312-34.134 34.133c0 10.109 4.421 19.2 11.426 25.456-12.769 7.718-21.324 21.732-21.324 37.71 0 24.279 19.753 44.032 44.032 44.032s44.032-19.753 44.032-44.032c0-15.985-8.564-30.006-21.343-37.721zm-22.688-44.578c10.55 0 19.134 8.583 19.134 19.133s-8.583 19.134-19.134 19.134c-10.55 0-19.134-8.583-19.134-19.134s8.583-19.133 19.134-19.133zm0 111.331c-16.008 0-29.032-13.024-29.032-29.032s13.023-29.032 29.032-29.032 29.032 13.023 29.032 29.032c-.001 16.008-13.024 29.032-29.032 29.032z" fill="#565e75"/></g><path d="m405.75 57.068h-299.5c-32.827 0-59.438 26.612-59.438 59.438v58.372h418.377v-58.372c0-32.827-26.612-59.438-59.439-59.438z" fill="#e06e7e"/><path d="m137.337 57.068h-31.087c-32.827 0-59.438 26.612-59.438 59.438v58.372h89.662c-.186-35.753.798-74.908.863-117.81z" fill="#d7495d"/><path d="m46.812 342.895c0 60.182 48.787 108.969 108.969 108.969h142.21c-143.678-56.738-160.823-142.977-161.517-276.986h-89.662z" fill="#f8debb"/><path d="m121.424 115.973c-14.662 0-26.549-11.886-26.549-26.549v-62.875c0-14.663 11.887-26.549 26.549-26.549 14.662 0 26.549 11.886 26.549 26.549v62.876c0 14.662-11.886 26.548-26.549 26.548z" fill="#565e75"/><path d="m390.576 115.973c14.663 0 26.549-11.886 26.549-26.549v-62.875c0-14.663-11.887-26.549-26.549-26.549-14.662 0-26.549 11.886-26.549 26.549v62.876c0 14.662 11.887 26.548 26.549 26.548z" fill="#565e75"/><ellipse cx="348.634" cy="382.349" fill="#7fd29b" rx="30.353" ry="50.763"/><ellipse cx="458.443" cy="435.897" fill="#7fd29b" rx="50.763" ry="30.353"/><ellipse cx="163.366" cy="382.349" fill="#5ec581" rx="30.353" ry="50.763"/><ellipse cx="53.557" cy="435.897" fill="#5ec581" rx="50.763" ry="30.353"/><path d="m46.016 304.547c11.139-.55 20.566 8.253 21.006 19.415l.014.356c.75 19.064 1.777 45.174 23.069 67.407 28.145 29.387 83.96 44.288 165.896 44.288 65.47 0 85.171 27.365 96.942 43.715l.165.229c6.527 9.065 4.47 21.705-4.595 28.232-9.027 6.499-21.676 4.51-28.232-4.595l-.167-.231c-9.077-12.608-19.365-26.898-64.113-26.898-66.176 0-149.393-9.024-195.11-56.76-31.896-33.304-33.443-72.655-34.275-93.796-.564-8.894 7.366-20.768 19.4-21.362z" fill="#7fd29b"/><path d="m465.984 304.547c-11.139-.55-20.566 8.253-21.006 19.415l-.014.356c-.75 19.064-1.777 45.174-23.069 67.407-28.145 29.387-83.96 44.288-165.896 44.288-65.47 0-85.171 27.365-96.942 43.715l-.165.229c-6.527 9.065-4.47 21.705 4.595 28.232 9.027 6.499 21.676 4.51 28.232-4.595l.167-.231c9.077-12.608 19.365-26.898 64.113-26.898 66.176 0 149.393-9.024 195.11-56.76 31.896-33.304 33.443-72.655 34.275-93.796.564-8.894-7.366-20.768-19.4-21.362z" fill="#8ce0cd"/><g><g fill="#eda1ab"><ellipse cx="174.042" cy="137.094" rx="30.241" ry="24.082"/><ellipse cx="337.958" cy="137.094" rx="30.241" ry="24.082"/></g><g fill="#565e75"><path d="m191.667 121.412c-4.142 0-7.5-3.358-7.5-7.5v-12.362c0-4.142 3.358-7.5 7.5-7.5s7.5 3.358 7.5 7.5v12.362c0 4.142-3.358 7.5-7.5 7.5z"/><path d="m320.333 121.412c-4.142 0-7.5-3.358-7.5-7.5v-12.362c0-4.142 3.358-7.5 7.5-7.5s7.5 3.358 7.5 7.5v12.362c0 4.142-3.357 7.5-7.5 7.5z"/><path d="m256 128.771c-8.668 0-16.911-3.754-22.615-10.299-2.722-3.123-2.396-7.86.726-10.582s7.86-2.397 10.582.726c2.855 3.276 6.977 5.155 11.308 5.155s8.452-1.879 11.307-5.155c2.72-3.123 7.458-3.448 10.582-.726 3.122 2.721 3.448 7.459.726 10.582-5.705 6.545-13.948 10.299-22.616 10.299z"/></g></g></g></svg>