<svg id="Capa_1" enable-background="new 0 0 512 512" height="512" viewBox="0 0 512 512" width="512" xmlns="http://www.w3.org/2000/svg"><g><ellipse cx="241.838" cy="78.464" fill="#5ec581" rx="43.754" ry="43.754" transform="matrix(.23 -.973 .973 .23 109.91 295.805)"/><path d="m224.128 43.512c-.729-23.115-19.311-42.173-42.402-43.442-14.451-.794-27.517 5.241-36.27 15.171-5.079 5.762-12.855 8.273-20.27 6.265-27.106-7.339-56.636 12.602-56.636 43.465 0 26.046 21.545 45.248 45.431 45.005 8.521-.087 16.208 5.478 18.789 13.6 6.159 19.388 25.141 33.104 47.025 31.134 21.631-1.947 38.981-19.552 40.654-41.205.667-8.63-1.108-16.791-4.704-23.873-3.301-6.501-2.727-14.186 1.232-20.308 4.781-7.395 7.451-16.282 7.151-25.812z" fill="#7fd29b"/><path d="m168.38 109.332c63.531 0 154.416-68.997 219.581-68.997 38.861 0 60.529-9.568 79.181-17.292 18.157-7.519 38.126 5.814 38.126 25.466v378.322c0 47.038-38.132 85.169-85.169 85.169h-328.198c-47.038 0-85.169-38.132-85.169-85.169v-270.727l102.285-46.772z" fill="#8ce0cd"/><path d="m76.541 109.332-69.81 46.772v270.726c0 47.038 38.132 85.17 85.17 85.17h127.479c-154.162-83.654-156.79-219.207-142.839-402.668z" fill="#7fd29b"/><path d="m297.196 476.476c-65.145 0-122.801-32.112-149.725-82.567-57.533-10.498-98.336-52-98.336-101.543 0-55.472 53.176-104.091 126.355-104.091 17.591 0 35.099 3.013 51.079 8.752 21.898-8.871 46.158-13.536 70.638-13.536 92.893 0 165.658 64.349 165.658 146.496 0 85.571-76.351 146.489-165.669 146.489z" fill="#5ec581"/><path d="m297.207 220.944c-22.301 0-43.488 4.675-61.984 13.124-5.163 2.358-11.08 2.357-16.312.155-12.841-5.405-27.646-8.495-43.422-8.495-49.1 0-88.903 29.835-88.903 66.639 0 33.232 32.459 60.764 74.907 65.795 7.042.835 13.082 5.424 15.976 11.898 18.635 41.7 65.833 68.965 119.727 68.965 69.503 0 128.217-45.366 128.217-109.036 0-63.429-58.491-109.045-128.206-109.045z" fill="#7fd29b"/><path d="m239.317 385.66c-43.817-28.07-43.85-83.259 0-111.352 33.089-21.197 82.618-21.236 115.769 0 43.818 28.071 43.851 83.26.001 111.352-33.09 21.197-82.62 21.236-115.77 0z" fill="#8ce0cd"/><ellipse cx="297.202" cy="329.984" fill="#5ec581" rx="53.29" ry="34.139"/><path d="m110.433 61.146c-6.9-1.809-12.34-7.212-14.254-14.083-6.339-22.755-27.206-39.452-51.982-39.452-6.186 0-12.127 1.042-17.659 2.96-11.921 4.134-19.807 15.508-19.807 28.124v117.409c16.111 10.065 36.562 7.062 49.239-5.835 4.301-4.375 11.176-5.163 16.349-1.865 8.368 5.336 18.493 8.161 29.317 7.402 23.134-1.62 43.617-22.663 44.664-45.83 1.05-23.238-14.417-43.207-35.867-48.83z" fill="#5ec581"/><g><g><ellipse cx="290.533" cy="148.543" fill="#fff" rx="31.398" ry="25.004"/><ellipse cx="460.719" cy="148.543" fill="#fff" rx="31.398" ry="25.004"/><ellipse cx="375.626" cy="129.332" fill="#565e75" rx="16.667" ry="18.65"/></g><g fill="#565e75"><path d="m295.782 125.871c-4.142 0-7.5-3.358-7.5-7.5v-12.178c0-4.142 3.358-7.5 7.5-7.5s7.5 3.358 7.5 7.5v12.178c0 4.142-3.358 7.5-7.5 7.5z"/><path d="m455.471 125.871c-4.142 0-7.5-3.358-7.5-7.5v-12.178c0-4.142 3.358-7.5 7.5-7.5s7.5 3.358 7.5 7.5v12.178c0 4.142-3.358 7.5-7.5 7.5z"/></g></g></g></svg>