<svg id="Capa_1" enable-background="new 0 0 512 512" height="512" viewBox="0 0 512 512" width="512" xmlns="http://www.w3.org/2000/svg"><g><path d="m241.202 189.389c-2.837 17.24.173 30.541 7.741 42.432 12.281 19.296 6.594 44.894-12.702 57.175-21.46 13.658-49.962 4.912-60.174-18.313-21.371-48.603-13.231-97.045 14.077-140.189 7.799-12.257 16.606-23.358 27.11-33.804 12.3-12.232 32.188-12.177 44.42.123 11.14 11.202 12.089 28.698 2.877 40.973-.218.428-18.646 22.783-23.349 51.603z" fill="#edcf76"/><path d="m147.515 188.165c10.185 14.197 21.718 21.473 35.477 24.53 22.328 4.96 36.407 27.082 31.447 49.41-5.517 24.832-31.855 38.801-55.498 29.6-49.479-19.256-77.977-59.265-89.175-109.083-3.152-14.182-4.775-28.259-4.733-43.073.048-17.347 14.15-31.37 31.497-31.322 15.799.044 28.841 11.745 31.006 26.938.148.458 2.925 29.296 19.979 53z" fill="#edcf76"/><path d="m391.846 341.124c28.974 0 53.166-23.008 53.594-51.978.476-32.264-27.723-57.1-59.174-53.2-2.877.357-5.56-1.423-6.336-4.216-8.604-30.962-43.201-46.987-72.326-33.888-2.643 1.189-5.718.261-7.294-2.171-9.404-14.511-25.731-24.116-44.31-24.116-14.065 0-26.838 5.505-36.295 14.474-7.384 7.003-17.775 9.719-27.802 7.982-21.744-3.767-44.05 6.677-54.97 25.969-5.041 8.905-14.047 14.696-24.2 15.965-25.82 3.23-46.59 25.484-46.173 53.214.435 28.965 24.625 51.965 53.594 51.965z" fill="#f3e872"/><path d="m445.44 289.145c.476-32.264-27.723-57.1-59.175-53.2-2.876.357-5.559-1.422-6.335-4.215-8.603-30.963-43.201-46.988-72.327-33.89-2.643 1.189-5.717.261-7.294-2.171-9.404-14.511-25.731-24.116-44.31-24.116-1.979 0-3.927.131-5.849.344-4.707 8.057-6.992 17.327-6.296 27.012 1.55 21.567 18.201 43.496 53.381 51.873 20.511 4.883 30.25 10.256 34.81 13.903 3.814 3.051 3.814 4.628 3.814 5.476 0 24.194-.631 47.368 20.135 68.417.863.875 1.751 1.723 2.661 2.544h33.19c28.975.002 53.168-23.006 53.595-51.977z" fill="#edcf76"/><path d="m286.695 173.255c-24.98 9.898-25.43 42.489 16.507 52.474s58.412 25.462 58.412 44.433-4.493 63.904 53.919 63.904c32 0 43.489-15.291 43.489-53.148 0-38.404-37.391-52.837-74.511-76.152-30.502-19.159-63.022-45.297-97.816-31.511z" fill="#f9efcd"/><path d="m421.102 241.45c-11.194 11.194-25.971 3.421-39.879-10.487s-21.681-28.685-10.487-39.879 31.544-8.994 45.452 4.914c13.908 13.909 16.108 34.258 4.914 45.452z" fill="#edcf76"/><path d="m454.733 370.554-198.733-28.285-198.733 28.285 13.698 28.808c7.286 15.324 22.74 25.087 39.708 25.087h290.655c16.968 0 32.421-9.764 39.708-25.087z" fill="#d79882"/><path d="m496.043 313.983h-329.94c-29.532 23.255-3.902 50.14 21.722 56.571h281.999c16.729 0 31.722-10.327 37.685-25.957l3.43-8.989c3.981-10.436-3.726-21.625-14.896-21.625z" fill="#deb597"/><path d="m15.957 313.983c-11.17 0-18.877 11.189-14.895 21.625l3.429 8.989c5.963 15.63 20.956 25.957 37.685 25.957h145.648c-13.006-9.547-26.056-34.655-21.722-56.571z" fill="#d79882"/><g fill="#edcf76"><path d="m142.181 285.419c-4.142 0-7.5-3.358-7.5-7.5v-5.691c0-4.142 3.358-7.5 7.5-7.5s7.5 3.358 7.5 7.5v5.691c0 4.142-3.358 7.5-7.5 7.5z"/><path d="m185.075 258.604c-1.919 0-3.839-.732-5.303-2.197l-4.483-4.483c-2.929-2.929-2.929-7.678 0-10.606 2.929-2.929 7.678-2.929 10.606 0l4.483 4.483c2.929 2.929 2.929 7.678 0 10.606-1.464 1.464-3.383 2.197-5.303 2.197z"/><path d="m221.375 279.729c-1.919 0-3.839-.732-5.303-2.197-2.929-2.929-2.929-7.678 0-10.606l4.268-4.268c2.929-2.929 7.678-2.929 10.606 0 2.929 2.929 2.929 7.678 0 10.607l-4.268 4.268c-1.464 1.463-3.384 2.196-5.303 2.196z"/><path d="m278.874 281.507c-1.919 0-3.839-.732-5.304-2.197l-3.912-3.912c-2.929-2.929-2.929-7.678 0-10.606 2.93-2.929 7.678-2.929 10.607 0l3.912 3.912c2.929 2.929 2.929 7.678 0 10.606-1.464 1.464-3.384 2.197-5.303 2.197z"/><path d="m237.26 239.406c-1.92 0-3.838-.732-5.303-2.196-2.929-2.929-2.93-7.678-.001-10.606l3.979-3.98c2.929-2.93 7.677-2.93 10.607-.001 2.929 2.929 2.929 7.678.001 10.607l-3.979 3.979c-1.464 1.465-3.384 2.197-5.304 2.197z"/></g></g></svg>