<svg id="Capa_1" enable-background="new 0 0 512 512" height="512" viewBox="0 0 512 512" width="512" xmlns="http://www.w3.org/2000/svg"><g><path d="m311.654 419.841c-12.336 0-22.337-10-22.337-22.337 0-12.336 10-22.337 22.337-22.337 19.557 0 48.367 1.338 65.459-9.373 10.452-6.549 24.236-3.387 30.787 7.068 6.549 10.454 3.386 24.238-7.069 30.788-26.786 16.786-59.226 16.191-89.177 16.191z" fill="#a1dcfc"/><path d="m412.342 340.992c-12.336 0-22.337-10-22.337-22.337 0-12.336 10-22.337 22.337-22.337 19.557 0 48.367 1.338 65.459-9.373 10.452-6.549 24.236-3.387 30.787 7.068 6.549 10.454 3.386 24.238-7.069 30.788-26.786 16.785-59.226 16.191-89.177 16.191z" fill="#7fd29b"/><path d="m412.342 240.529c-12.336 0-22.337-10-22.337-22.337 0-12.336 10-22.337 22.337-22.337 19.554 0 48.367 1.335 65.458-9.373 10.455-6.549 24.236-3.387 30.789 7.067 6.549 10.453 3.386 24.238-7.068 30.787-27.511 17.241-61.67 16.193-89.179 16.193z" fill="#b8e5ff"/><path d="m443.247 195.393c-10.899.744-21.887.463-30.905.463-12.336 0-22.336 10-22.336 22.337 0 12.336 10 22.337 22.336 22.337 9.672 0 20.167.126 30.905-.455z" fill="#a1dcfc"/><path d="m412.342 140.066c-12.336 0-22.337-10-22.337-22.337 0-12.336 10-22.337 22.337-22.337 19.929 0 48.435 1.293 65.458-9.373 10.455-6.55 24.236-3.387 30.789 7.067 6.549 10.453 3.386 24.238-7.068 30.787-26.836 16.818-59.421 16.193-89.179 16.193z" fill="#7fd29b"/><path d="m37.808 361.057c-21.024 0-38.041 25.354-37.805 53.653.172 20.651 17.153 37.227 37.805 37.227h253.279c25.23 0 45.682-20.453 45.682-45.682v-48.919z" fill="#d7495d"/><path d="m443.247 101.162c0-2.096-.109-4.165-.286-6.216-10.723.711-21.558.447-30.62.447-12.336 0-22.336 10-22.336 22.337s10 22.337 22.336 22.337c10.088 0 20.501.07 30.905-.491v-38.414z" fill="#5ec581"/><path d="m443.247 335.223v-39.366c-10.899.744-21.886.462-30.905.462-12.336 0-22.336 10-22.336 22.337 0 12.336 10 22.337 22.336 22.337 10.052 0 20.385.064 30.69-.482.128-1.749.215-3.508.215-5.288z" fill="#5ec581"/><path d="m412.342 170.205v-69.043c0-22.698-18.401-41.099-41.099-41.099h-333.435c-20.881 0-37.808 16.927-37.808 37.808v110.142l10.918 34.111s-10.918 42.932-10.918 62.082v109.923c0-20.881 16.927-37.807 37.808-37.807h333.436c22.698 0 41.099-18.401 41.099-41.099v-68.824l-28.595-48.097z" fill="#e06e7e"/><path d="m412.342 266.399h-374.534c-20.881 0-37.808 16.927-37.808 37.807v-96.193c0-20.88 16.927-37.807 37.807-37.807h374.535z" fill="#f9efcd"/><g><g fill="#eda1ab"><ellipse cx="125.429" cy="135.086" rx="29.792" ry="23.725"/><ellipse cx="286.913" cy="135.086" rx="29.792" ry="23.725"/></g><g fill="#4e5660"><path d="m156.973 116.769c-4.143 0-7.5-3.358-7.5-7.5 0-3.684-2.997-6.681-6.681-6.681s-6.681 2.997-6.681 6.681c0 4.142-3.357 7.5-7.5 7.5-4.142 0-7.5-3.358-7.5-7.5 0-11.955 9.726-21.681 21.681-21.681s21.681 9.726 21.681 21.681c0 4.142-3.358 7.5-7.5 7.5z"/><path d="m283.73 116.769c-4.143 0-7.5-3.358-7.5-7.5 0-3.684-2.996-6.681-6.68-6.681s-6.681 2.997-6.681 6.681c0 4.142-3.357 7.5-7.5 7.5s-7.5-3.358-7.5-7.5c0-11.955 9.726-21.681 21.681-21.681 11.954 0 21.68 9.726 21.68 21.681 0 4.142-3.357 7.5-7.5 7.5z"/><path d="m206.171 140.195c-7.933 0-15.477-3.436-20.696-9.425-2.722-3.122-2.395-7.86.727-10.581s7.859-2.397 10.582.727c2.37 2.72 5.792 4.28 9.388 4.28s7.018-1.56 9.388-4.28c2.721-3.124 7.457-3.448 10.582-.727 3.122 2.721 3.448 7.459.727 10.581-5.221 5.99-12.765 9.425-20.698 9.425z"/></g></g><path d="m108.876 170.206-40.175 40.175c-4.375 4.375-4.375 11.468 0 15.843l40.175 40.175 40.175-40.175c4.375-4.375 4.375-11.468 0-15.843z" fill="#a1dcfc"/><path d="m303.466 170.206 40.175 40.175c4.375 4.375 4.375 11.468 0 15.843l-40.175 40.175-40.175-40.175c-4.375-4.375-4.375-11.468 0-15.843z" fill="#a1dcfc"/><path d="m212.791 225.802h-13.24c-4.143 0-7.5-3.358-7.5-7.5s3.357-7.5 7.5-7.5h13.24c4.143 0 7.5 3.358 7.5 7.5s-3.357 7.5-7.5 7.5z" fill="#7fd29b"/></g></svg>