<svg id="Capa_1" enable-background="new 0 0 512 512" height="512" viewBox="0 0 512 512" width="512" xmlns="http://www.w3.org/2000/svg"><g><path d="m418.116 302.942 39.1-83.968 6.108-33.689c3.632-20.033-11.759-38.466-32.119-38.466h-392.526c-20.359 0-35.751 18.434-32.119 38.466l6.109 33.689 39.099 83.968-9.715 78.092 9.655 53.247c8.16 45 47.344 77.719 93.079 77.719h180.31c45.734 0 84.919-32.719 93.079-77.719l9.655-53.247z" fill="#b8e5ff"/><path d="m431.205 146.819h-392.526c-20.359 0-35.751 18.434-32.119 38.466l45.148 248.995c8.16 45 47.344 77.719 93.079 77.719h180.31c45.734 0 84.919-32.719 93.079-77.719l45.148-248.995c3.632-20.032-11.759-38.466-32.119-38.466z" fill="#b8e5ff"/><path d="m457.215 218.974 6.109-33.689c3.632-20.033-11.759-38.466-32.119-38.466h-130.168l-24.4 24.4c-25.727 25.729-20.552 68.699 10.484 87.673 43.835 26.797 98.035 31.355 145.551 12.791z" fill="#a1dcfc"/><path d="m120.2 356.72c-12.856 0-23.278-10.422-23.278-23.278v-227.172c0-4.039-1.573-7.837-4.43-10.693l-55.839-55.839c-9.09-9.091-9.09-23.83 0-32.921 9.091-9.09 23.83-9.09 32.921 0l55.839 55.839c11.649 11.65 18.065 27.139 18.065 43.614v227.172c0 12.856-10.422 23.278-23.278 23.278z" fill="#7fd29b"/><path d="m143.478 333.442v-144.649c-15.161-3.673-30.638-7.258-46.556-9.45v154.099c0 12.856 10.422 23.278 23.278 23.278s23.278-10.422 23.278-23.278z" fill="#5ec581"/><path d="m234.942 234.321c-88.542 0-145.953-46.81-222.273-15.346l29.385 162.06c5.59 30.831 32.436 53.247 63.77 53.247h258.237c31.333 0 58.179-22.416 63.77-53.247l29.385-162.06c-76.321-31.464-133.732 15.346-222.274 15.346z" fill="#8ce0cd"/><path d="m449.004 264.259 8.211-45.284c-67.475-27.817-120.175 5.542-192.669 13.649 4.361 10.464 11.951 19.773 22.576 26.268 48.947 29.922 110.827 32.139 161.882 5.367z" fill="#7fd29b"/><path d="m393.588 289.555-24.433 24.433c-5.959 5.959-15.622 5.959-21.581 0l-24.433-24.433c-5.959-5.96-5.959-15.622 0-21.581l24.433-24.433c5.96-5.959 15.622-5.959 21.581 0l24.433 24.433c5.959 5.959 5.959 15.621 0 21.581z" fill="#fff"/><path d="m397.872 281.028c.69-4.622-.726-9.497-4.284-13.055l-24.433-24.433c-5.96-5.96-15.622-5.96-21.581 0l-24.433 24.433c-1.764 1.764-2.992 3.855-3.711 6.075 25.208 8.622 52.19 10.997 78.442 6.98z" fill="#f9efcd"/><path d="m123.318 327.426h-34.554c-8.428 0-15.26-6.832-15.26-15.26v-34.554c0-8.428 6.832-15.26 15.26-15.26h34.554c8.428 0 15.26 6.832 15.26 15.26v34.554c0 8.428-6.832 15.26-15.26 15.26z" fill="#fff"/><g><path d="m447.033 44.53c11.579-11.579 30.91-9.221 39.451 4.75 31.365 51.307 24.871 119.404-19.484 163.759-44.354 44.354-112.451 50.849-163.759 19.484-13.971-8.541-16.329-27.872-4.75-39.451z" fill="#8ce0cd"/><path d="m436.902 54.661c35.423 35.423 35.423 92.856 0 128.279s-92.856 35.423-128.279 0z" fill="#7fd29b"/><g fill="#5ec581"><path d="m436.902 182.94c16.415-16.415 26.567-39.091 26.567-64.139h-90.707z"/><path d="m308.623 182.941c16.415 16.415 39.091 26.567 64.139 26.567v-90.707z"/></g></g><g><g fill="#fff"><ellipse cx="152.984" cy="377.633" rx="30.241" ry="24.082"/><ellipse cx="316.9" cy="377.633" rx="30.241" ry="24.082"/></g><g fill="#565e75"><path d="m170.609 361.951c-4.142 0-7.5-3.358-7.5-7.5v-12.362c0-4.142 3.358-7.5 7.5-7.5s7.5 3.358 7.5 7.5v12.362c0 4.142-3.358 7.5-7.5 7.5z"/><path d="m299.275 361.951c-4.142 0-7.5-3.358-7.5-7.5v-12.362c0-4.142 3.358-7.5 7.5-7.5s7.5 3.358 7.5 7.5v12.362c0 4.142-3.358 7.5-7.5 7.5z"/><path d="m234.942 369.31c-8.669 0-16.912-3.754-22.616-10.3-2.721-3.123-2.396-7.86.727-10.582 3.122-2.721 7.86-2.397 10.582.727 2.854 3.275 6.976 5.154 11.307 5.154s8.452-1.879 11.307-5.154c2.721-3.124 7.459-3.448 10.582-.727s3.448 7.459.727 10.582c-5.705 6.546-13.948 10.3-22.616 10.3z"/></g></g></g></svg>