<svg id="Capa_1" enable-background="new 0 0 512 512" height="512" viewBox="0 0 512 512" width="512" xmlns="http://www.w3.org/2000/svg"><g><path d="m360.879 382.061-33.565-129.939c-.196-.086-.388-.174-.589-.256-21.917-9.069-22.967-51.119-10.946-65.261 2.476-2.912 4.014-6.52 4.01-10.342-.008-6.703 2.592-14.847 7.525-22.831l24.664-54.552-24.664-27.412c-1.772.396-3.489.735-5.132.994-24.608 3.882-51.761-42.066-52.61-52.249s-51.761-39.882-30.548 0-15.274 51.761-26.305 68.404c-4.686 7.07-16.264 8.04-28.032 10.264l-27.174 101.719 27.174 114.739c3.588 5.452 6.677 10.163 8.516 13.245 6.788 11.38 30.548 48.019 41.579 65.839 11.031 17.819-4.667 11.455 22.062 38.185 23.272 23.272 50.4 35.605 70.471 38.407z" fill="#f9efcd"/><g fill="#e06e7e"><path d="m327.314 153.432c8.925-14.444 25.517-28.36 48.326-32.242 39.882-6.788 23.759-33.093 17.819-53.459-5.543-19.005-41.383-1.801-66.146 3.737v81.964z"/><path d="m184.686 98.88c-15.933 3.011-32.215 8.322-32.215 34.189 0 44.973-23.759 21.214-33.942 17.393-7.733-2.902-20.848-1.639-22.996-8.296-1.391-4.313-6.26-6.389-10.33-4.395-33.394 16.361-3.7 39.934-.617 45 3.394 5.577-16.122 22.425 10.645 26.668s26.691 35.639 36.403 35.95 24.23 14.963 27.624 26.657c2.475 8.526 15.77 28.618 25.426 43.293v-216.459z"/><path d="m439.281 462.306c-12.481-6.607-16.704-18.296-13.769-29.021.811-2.965.259-6.068-1.372-8.673-2.146-3.426-1.943-7.845 4.852-17.738 1.999-2.91 2.776-6.516 2.023-9.965-3.28-15.033.81-33.512 5.384-43.838 1.596-3.602 1.178-7.768-1.071-11.001-4.798-6.898-12.898-18.541-18.146-26.084-2.499-3.592-6.859-5.525-11.156-4.694-4.959.959-10.666-.447-18.169-4.217-3.838-1.928-6.278-5.847-6.278-10.142v-19.482c0-4.39-4.756-7.147-8.559-4.953-29.75 17.163-23.745-10.747-45.707-20.374v218.891c2.982.416 5.81.626 8.444.626 20.365 0 43.276 29.699 58.55 38.185s23.759-10.183 22.33-16.122c-1.428-5.942 37.069-23.761 22.644-31.398z"/></g><g><g><path d="m264.427 283.579c13.315 0 24.109 13.554 24.109 30.274s-10.794 30.274-24.109 30.274-24.109-13.554-24.109-30.274 10.794-30.274 24.109-30.274z" fill="#eda1ab"/><path d="m264.427 180.031c13.315 0 24.109-13.554 24.109-30.275 0-16.72-10.794-30.274-24.109-30.274s-24.109 13.554-24.109 30.274c0 16.721 10.794 30.275 24.109 30.275z" fill="#eda1ab"/><path d="m245.903 207.396c-15.085 0-16.502 10.928-16.502 24.409 0 13.48 1.417 24.409 16.502 24.409s27.313-10.928 27.313-24.409c0-13.48-12.228-24.409-27.313-24.409z" fill="#565e75"/></g><g fill="#565e75"><path d="m235.644 316.293h-12.362c-4.142 0-7.5-3.358-7.5-7.5s3.358-7.5 7.5-7.5h12.362c4.142 0 7.5 3.358 7.5 7.5s-3.358 7.5-7.5 7.5z"/><path d="m235.644 162.317h-12.362c-4.142 0-7.5-3.358-7.5-7.5s3.358-7.5 7.5-7.5h12.362c4.142 0 7.5 3.358 7.5 7.5s-3.358 7.5-7.5 7.5z"/></g></g></g></svg>