<svg id="Capa_1" enable-background="new 0 0 512 512" height="512" viewBox="0 0 512 512" width="512" xmlns="http://www.w3.org/2000/svg"><g><path d="m149.432 199.99c41.106-8.221 150.677-157.94 256.867-157.94 35.558 0 67.766 44.188 87.289 76.034 12.089 19.721 18.412 42.432 18.412 65.562v68.118l-60.612 52.736h-296.977z" fill="#f8debb"/><path d="m154.411 304.5h151.544c2.711-8.727 3.436-19.011 1.444-31.152-14.537-88.609 86.521-231.298 98.9-231.298-106.19 0-215.761 149.719-256.867 157.94z" fill="#f6c5a3"/><path d="m0 247.482c0-12.176 3.328-24.104 9.56-34.564 27.236-45.71 58.839-120.13 102.453-120.13 143.987 0 170.721 158.975 302.207 158.975h97.78v151.816c0 36.655-29.715 66.37-66.37 66.37h-379.26c-36.655 0-66.37-29.715-66.37-66.37z" fill="#f9efcd"/><path d="m89.847 281.369c35.223-49.954-4.89-132.607 28.759-188.466-2.17-.075-4.367-.114-6.593-.114-43.614 0-75.217 74.419-102.453 120.13-6.232 10.459-9.56 22.388-9.56 34.563v156.097c0 36.655 29.715 66.37 66.37 66.37h113.14c-133.457-36.664-120.289-145.145-89.663-188.58z" fill="#f8debb"/><path d="m213.674 338.363h-56.171v-57.883c0-5.865 4.755-10.62 10.62-10.62h34.932c5.865 0 10.62 4.755 10.62 10.62v57.883z" fill="#deb597"/><ellipse cx="257.734" cy="345.638" fill="#b8e5ff" rx="116.606" ry="36.816"/><path d="m191.371 369.782c-2.43.901-5.123-.173-6.463-2.391-4.598-7.608-12.948-12.695-22.487-12.695-15.865 0-27.895 13.881-26.085 29.288.183 1.56-.286 3.108-1.298 4.309-3.97 4.706-6.335 10.61-6.335 17.023 0 15.376 13.582 27.841 30.336 27.841 10.941 0 20.524-5.317 25.859-13.288 1.414-2.112 4.102-2.881 6.485-1.998 16.054 5.942 34.38-5.745 34.38-24.045 0-18.277-18.318-30.008-34.392-24.044z" fill="#7fd29b"/><circle cx="381.25" cy="352.8" fill="#7fd29b" r="28.515"/><path d="m383.413 401.51h-75.469c-5.316 0-9.626-4.31-9.626-9.626v-19.665c0-5.316 4.31-9.626 9.626-9.626h75.469c5.316 0 9.626 4.31 9.626 9.626v19.665c0 5.316-4.31 9.626-9.626 9.626z" fill="#deb597"/><g><g fill="#eda1ab"><ellipse cx="59.518" cy="230.39" rx="31.765" ry="25.296"/><ellipse cx="231.692" cy="230.39" rx="31.765" ry="25.296"/></g><g fill="#565e75"><path d="m78.03 213.228c-4.142 0-7.5-3.358-7.5-7.5v-12.362c0-4.142 3.358-7.5 7.5-7.5s7.5 3.358 7.5 7.5v12.362c0 4.142-3.358 7.5-7.5 7.5z"/><path d="m145.605 221.269c-8.996 0-17.55-3.896-23.47-10.688-2.721-3.123-2.396-7.86.727-10.582 3.123-2.721 7.859-2.396 10.582.727 3.07 3.523 7.503 5.544 12.162 5.544s9.091-2.02 12.161-5.543c2.721-3.124 7.459-3.448 10.582-.727s3.448 7.459.727 10.582c-5.921 6.791-14.475 10.687-23.471 10.687z"/><path d="m229.892 212.883c-4.142 0-7.5-3.358-7.5-7.5 0-3.764-3.062-6.826-6.826-6.826s-6.826 3.062-6.826 6.826c0 4.142-3.358 7.5-7.5 7.5s-7.5-3.358-7.5-7.5c0-12.035 9.791-21.826 21.826-21.826s21.826 9.791 21.826 21.826c0 4.142-3.358 7.5-7.5 7.5z"/></g></g></g></svg>