<svg id="Capa_1" enable-background="new 0 0 512 512" height="512" viewBox="0 0 512 512" width="512" xmlns="http://www.w3.org/2000/svg"><g><path d="m267.197 477.71c-5.432-17.164 4.472-35.587 21.608-41.106 30.561-9.844 53.093-36.846 66.975-80.263 1.877-5.87 3.502-11.766 4.909-17.592.404-1.672.737-3.35 1.01-5.032 11.983-12 14.643-33.54-7.554-43.519-4.003-7.2-9.368-13.7-15.994-19.057-27.522-22.253-45.428-58.986-45.428-102.619 0-17.09 2.75-34.883 7.746-52.09 24.422-19.644 27.717-37.986 28.541-59.591 19.428-26.964 45.145-45.372 73.352-45.372s53.924 18.408 73.352 45.372c-10.993 16.279 5.519 47.613 28.541 59.591 4.996 17.207 7.746 34.999 7.746 52.09 0 47.345-21.082 86.566-52.656 107.98-4.446 3.015-8.468 6.53-12.034 10.428-27.116 5.556-33.552 37.884-21.348 59.455-2.126 9.753-4.726 19.785-7.945 29.855-20.465 64.01-58.43 106.457-109.79 122.754-17.193 5.452-35.576-4.048-41.031-21.284z" fill="#f8debb"/><path d="m388.559 361.13c-11.188 5.737-23.594 6.625-36.051 4.682-14.038 37.884-35.432 61.686-63.703 70.792-17.136 5.519-27.04 23.943-21.608 41.106 5.455 17.236 23.838 26.736 41.029 21.284 51.36-16.297 89.325-58.745 109.79-122.754 2.346-7.337 4.362-14.656 6.111-21.863-11.925-1.162-24.278.965-35.568 6.753z" fill="#f6c5a3"/><path d="m475.713 56.841h-146.704c-12.412 17.226-22.256 37.943-28.541 59.591h42.301l59.592-22.638 59.591 22.638h42.301c-6.284-21.648-16.128-42.365-28.54-59.591z" fill="#565e75"/><path d="m342.77 116.432 59.591-59.591 59.592 59.591z" fill="#e06e7e"/><path d="m425.962 346.385c-18.045-6.806-41.341-11.777-64.28-12.651 2.461-15.11-.279-30.479-7.538-43.536l30.457-30.457c9.812-9.812 25.714-9.805 35.526.007l27.183 27.182c-8.906 9.733-14.881 21.922-16.881 35.189-1.169 7.762-2.646 15.913-4.467 24.266z" fill="#565e75"/><path d="m447.007 402.418c-8.296-15.977-28.326-22.001-44.345-13.788-28.57 14.649-63.597 11.488-104.113-9.396-5.478-2.824-10.796-5.844-15.911-8.969-1.467-.897-2.89-1.848-4.272-2.844-16.958-.012-34.07-13.362-25.431-36.114-2.261-7.922-3.063-16.311-2.166-24.785 3.726-35.196-9.587-73.832-40.44-104.685-12.085-12.085-26.611-22.721-42.311-31.356-31.159 3.379-46.459-7.261-62.319-21.956-32.805-5.329-64.005-.161-83.951 19.785-19.945 19.947-25.113 51.147-19.784 83.952 19.285 3.738 29.765 37.57 21.956 62.319 8.635 15.7 19.271 30.225 31.356 42.31 33.478 33.478 76.119 46.304 113.587 39.12 5.276-1.012 10.605-1.37 15.883-1.136 23.102-15.245 50.513 3.064 57.136 26.945 8.399 5.393 17.332 10.649 26.729 15.492 59.733 30.791 116.593 33.961 164.434 9.167 16.011-8.3 22.292-28.016 13.962-44.061z" fill="#f8debb"/><path d="m86.674 146.631c-25.573-.844-48.887 5.642-64.925 21.68-19.946 19.946-25.114 51.146-19.785 83.951 19.285 3.738 29.765 37.57 21.956 62.319 8.635 15.7 19.271 30.225 31.356 42.31 33.42 33.42 75.971 46.257 113.391 39.154-104.952-37.183-104.129-170.455-81.993-249.414z" fill="#f6c5a3"/><path d="m138.107 200.394 29.912-29.912c-19.752-10.863-41.362-18.552-62.319-21.956l-103.736 103.736c3.404 20.957 11.093 42.567 21.956 62.319l29.912-29.912 29.147-55.128z" fill="#565e75"/><path d="m53.832 284.669 21.118-39.942c-.921-24.436 1.309-48.822 5.414-70.866l-78.4 78.4c3.404 20.957 11.093 42.567 21.956 62.319z" fill="#404656"/><path d="m138.107 200.394h-84.275v84.275z" fill="#e06e7e"/><g fill="#565e75"><path d="m241.882 421.821c7.947-17.572 20.905-37.56 36.507-54.398-12.424-8.945-21.355-21.75-25.454-36.115-15.043 0-30.615 0-43.073 0-13.876 0-25.116 11.249-25.116 25.126v38.442c13.18.585 26.024 4.979 36.819 12.946 6.315 4.661 13.123 9.38 20.317 13.999z"/><g><path d="m98.012 343.056c-1.919 0-3.839-.732-5.304-2.197l-8.741-8.741c-2.929-2.929-2.929-7.678 0-10.607 2.93-2.929 7.678-2.929 10.607 0l8.741 8.741c2.929 2.929 2.929 7.678 0 10.607-1.464 1.465-3.384 2.197-5.303 2.197z"/><path d="m188.994 252.074c-1.919 0-3.839-.732-5.303-2.196l-8.742-8.741c-2.93-2.929-2.93-7.678-.001-10.607 2.93-2.929 7.679-2.929 10.606-.001l8.742 8.741c2.93 2.929 2.93 7.678.001 10.607-1.464 1.465-3.384 2.197-5.303 2.197z"/><path d="m132.8 309.352c-.688 0-1.375-.023-2.064-.071-4.133-.284-7.253-3.864-6.969-7.997.284-4.132 3.863-7.249 7.996-6.968 4.338.298 8.577-1.288 11.64-4.35 3.063-3.063 4.649-7.306 4.352-11.641-.283-4.132 2.837-7.712 6.969-7.996 4.128-.283 7.713 2.836 7.996 6.969.594 8.661-2.58 17.144-8.709 23.274-5.643 5.641-13.279 8.78-21.211 8.78z"/></g><g><path d="m353.162 186.734c-4.143 0-7.5-3.358-7.5-7.5 0-3.684-2.997-6.681-6.681-6.681s-6.681 2.997-6.681 6.681c0 4.142-3.357 7.5-7.5 7.5s-7.5-3.358-7.5-7.5c0-11.955 9.726-21.681 21.681-21.681s21.681 9.726 21.681 21.681c0 4.142-3.357 7.5-7.5 7.5z"/><path d="m479.922 186.734c-4.143 0-7.5-3.358-7.5-7.5 0-3.684-2.997-6.681-6.681-6.681s-6.681 2.997-6.681 6.681c0 4.142-3.357 7.5-7.5 7.5s-7.5-3.358-7.5-7.5c0-11.955 9.726-21.681 21.681-21.681s21.681 9.726 21.681 21.681c0 4.142-3.357 7.5-7.5 7.5z"/><path d="m402.361 210.161c-7.933 0-15.477-3.435-20.696-9.426-2.722-3.123-2.396-7.86.727-10.582 3.122-2.72 7.859-2.396 10.582.727 2.37 2.72 5.792 4.28 9.388 4.28s7.018-1.56 9.388-4.28c2.721-3.124 7.457-3.448 10.582-.727 3.122 2.721 3.448 7.459.727 10.582-5.221 5.991-12.765 9.426-20.698 9.426z"/></g></g><path d="m76.512 200.394c-8.923 0-22.681 0-22.681 0v84.275l22.342-22.342c-2.142-20.755-1.764-41.872.339-61.933z" fill="#d7495d"/></g></svg>