<svg id="Capa_1" enable-background="new 0 0 512 512" height="512" viewBox="0 0 512 512" width="512" xmlns="http://www.w3.org/2000/svg"><g><path d="m216.24 235.169c-31.281-31.281-91.101-58.725-175.654-24.395-18.428 7.482-22.209 31.999-6.998 44.812 27.835 23.448 62.914 59.531 76.485 85.75z" fill="#f3c7d1"/><path d="m104.833 218.428c-12.588 25.093-22.734 50.619-30.328 76.101 15.055 16.136 28.352 32.866 35.568 46.807l106.167-106.167c-20.746-20.746-54.051-39.797-98.794-40.266-4.433 7.775-8.659 15.643-12.613 23.525z" fill="#eda1ab"/><path d="m480.045 93.155c-22.839-13.924-52.24-10.41-71.154 8.504l-11.043 11.043c-5.859 5.858-15.18 6.516-21.729 1.44-48.045-37.245-119.356-32.048-163.378 11.974-43.522 43.523-118.718 153.596-118.718 276.48h176.977s77.889-68.423 113.844-104.377c17.965-17.965 29.459-40.476 34.245-64.096 2.172-10.718 7.267-20.625 15-28.358l53.073-53.073c17.466-17.467 13.975-46.678-7.117-59.537z" fill="#f3c7d1"/><ellipse cx="274.398" cy="299.704" fill="#eda1ab" rx="54.403" ry="48.578"/><path d="m493.909 284.971c-20.988 10.794-46.146 10.653-67.025-.422-10.845-5.752-23.723-5.752-34.567 0-21.148 11.217-46.685 11.217-67.833 0-10.845-5.752-23.723-5.752-34.567 0-21.148 11.217-46.685 11.217-67.833 0-10.845-5.752-23.722-5.752-34.567 0-21.148 11.217-46.685 11.217-67.833 0-10.845-5.752-23.723-5.752-34.567 0-20.879 11.075-46.037 11.215-67.025.422-8.265-4.25-18.092 1.836-18.092 11.129v83.06c0 26.597 21.561 48.158 48.158 48.158h415.685c26.597 0 48.158-21.561 48.158-48.158v-83.06c-.001-9.293-9.828-15.379-18.092-11.129z" fill="#b8e5ff"/><path d="m185.05 285.791c-20.645 9.953-45.033 9.543-65.366-1.241-10.845-5.752-23.722-5.752-34.567 0-20.879 11.075-46.037 11.215-67.025.422-8.265-4.251-18.092 1.835-18.092 11.128v83.06c0 26.597 21.561 48.158 48.157 48.158h186.041c-35.321-21.208-55.688-93.198-49.148-141.527z" fill="#a1dcfc"/><g><path d="m126.626 364.96c-11.135 0-22.27-4.238-30.747-12.715-2.929-2.929-2.929-7.678 0-10.606 2.93-2.929 7.678-2.929 10.607 0 11.104 11.105 29.175 11.103 40.278 0 2.93-2.929 7.678-2.929 10.607 0s2.929 7.678 0 10.606c-8.476 8.477-19.611 12.715-30.745 12.715z" fill="#b8e5ff"/><g fill="#a1dcfc"><path d="m261.322 391.252c-11.614 0-22.533-4.523-30.746-12.735-2.929-2.929-2.929-7.678.001-10.606 2.929-2.929 7.678-2.929 10.606 0 5.379 5.379 12.53 8.342 20.139 8.342 7.607 0 14.76-2.962 20.14-8.342 2.928-2.929 7.677-2.929 10.606 0s2.929 7.678-.001 10.606c-8.212 8.212-19.131 12.735-30.745 12.735z"/><path d="m391.173 357.254c-11.134 0-22.269-4.238-30.746-12.715-2.929-2.929-2.929-7.678 0-10.607 2.93-2.929 7.678-2.929 10.607 0 11.103 11.104 29.175 11.106 40.278 0 2.93-2.929 7.678-2.929 10.607 0s2.929 7.678 0 10.607c-8.477 8.477-19.611 12.715-30.746 12.715z"/></g></g><g><g><g><ellipse cx="328.127" cy="201.492" fill="#e06e7e" rx="29.792" ry="23.725" transform="matrix(.707 -.707 .707 .707 -46.37 291.038)"/></g></g><g fill="#565e75"><path d="m312.122 188.486c-1.919 0-3.839-.732-5.304-2.197-4.095-4.095-6.35-9.54-6.35-15.331s2.255-11.235 6.35-15.331c4.094-4.094 9.538-6.35 15.329-6.35s11.235 2.255 15.331 6.351c2.929 2.929 2.929 7.678 0 10.607-2.93 2.929-7.678 2.929-10.607 0-1.262-1.262-2.94-1.957-4.724-1.957s-3.461.695-4.723 1.957c-1.263 1.262-1.957 2.94-1.957 4.724 0 1.785.694 3.462 1.957 4.724 2.929 2.929 2.929 7.678 0 10.606-1.463 1.465-3.383 2.197-5.302 2.197z"/><path d="m435.944 150.396c-.628 0-1.258-.021-1.889-.065-4.133-.284-7.253-3.864-6.969-7.996.283-4.132 3.876-7.25 7.996-6.969 3.591.244 7.122-1.069 9.666-3.612 2.542-2.542 3.857-6.064 3.61-9.664-.284-4.133 2.836-7.713 6.968-7.997 4.124-.276 7.713 2.836 7.997 6.968.545 7.926-2.359 15.69-7.969 21.3-5.163 5.163-12.15 8.035-19.41 8.035z"/></g></g></g></svg>