<svg id="Capa_1" enable-background="new 0 0 512 512" height="512" viewBox="0 0 512 512" width="512" xmlns="http://www.w3.org/2000/svg"><g><path d="m54.043 386.592c-3.834-21.339-3.943-56.007-3.111-72.847.205-4.137 3.707-7.307 7.861-7.121 4.137.205 7.325 3.725 7.121 7.861-.799 16.179-.721 49.342 2.894 69.454.732 4.076-1.979 7.975-6.056 8.708-4.122.737-7.984-2.018-8.709-6.055z" fill="#f3e872"/><path d="m449.249 392.647c-4.077-.732-6.788-4.632-6.056-8.708 3.614-20.112 3.693-53.275 2.894-69.454-.205-4.137 2.983-7.656 7.121-7.861 4.122-.207 7.656 2.984 7.861 7.121.832 16.84.723 51.508-3.111 72.847-.727 4.041-4.592 6.791-8.709 6.055z" fill="#f3e872"/><path d="m400.497 512c17.409 0 30.583-15.971 27.016-33.01-16.03-76.553-86.727-134.227-171.513-134.227s-155.483 57.674-171.513 134.227c-3.567 17.039 9.607 33.01 27.016 33.01z" fill="#e06e7e"/><path d="m372.46 387.225c-30.929-26.406-71.732-42.462-116.46-42.462s-85.531 16.056-116.46 42.462c32.696 14.756 72.291 22.449 116.46 22.449s83.764-7.692 116.46-22.449z" fill="#d7495d"/><path d="m321.017 344.763c-13.555 37.432-33.317 66.459-48.704 85.654-8.366 10.437-24.26 10.437-32.626 0-15.387-19.196-35.148-48.222-48.704-85.654z" fill="#fff"/><g><g fill="#d7495d"><path d="m155.724 512c0-22.92 8.323-56.216 12.779-68.948 1.368-3.909 5.646-5.97 9.557-4.602 3.91 1.368 5.97 5.647 4.602 9.557-4.033 11.521-11.938 43.132-11.938 63.993z"/><path d="m341.276 512c0-20.861-7.905-52.472-11.938-63.993-1.368-3.909.692-8.188 4.602-9.557 3.912-1.368 8.188.693 9.557 4.602 4.456 12.732 12.779 46.028 12.779 68.948z"/><path d="m248.5 512v-29.253c0-4.143 3.358-7.5 7.5-7.5s7.5 3.357 7.5 7.5v29.253z"/></g></g><path d="m223.385 408.203c10.554.975 21.437 1.471 32.615 1.471s22.061-.496 32.615-1.471c11.466-17.1 23.324-38.374 32.401-63.44h-130.033c9.078 25.066 20.936 46.341 32.402 63.44z" fill="#f9efcd"/><path d="m438.25 239.464c0-95.542-75.703-172.994-182.25-172.994s-182.25 77.451-182.25 172.994c0 95.542 81.596 139.305 182.25 139.305s182.25-43.764 182.25-139.305z" fill="#f2d1a5"/><path d="m404.14 136.437c-6.833 30.746-19.424 54.175-28.086 67.727-3.993 6.248-11.496 9.271-18.705 7.535-24.796-5.971-74.933-24.109-101.348-48.939-26.415 24.83-76.552 42.968-101.348 48.939-7.209 1.736-14.712-1.287-18.705-7.535-8.662-13.552-21.253-36.981-28.086-67.727z" fill="#565e75"/><path d="m124.851 146.535c-.668 57.436-19.055 194.367-74.801 177.651-57.085-17.117 3.147-141.822 28.05-189.053z" fill="#e06e7e"/><path d="m387.149 146.535c.668 57.436 19.055 194.367 74.801 177.651 57.085-17.117-3.147-141.822-28.05-189.053z" fill="#e06e7e"/><path d="m411.959 108.822c-11.238-52.496-66.543-108.822-155.959-108.822s-144.721 56.326-155.959 108.822z" fill="#deb597"/><path d="m216.353 3.954c-66.086 13.685-106.843 60.635-116.312 104.868h111.413c-10.682-32.9-9.347-76.37 4.899-104.868z" fill="#d79882"/><path d="m391.056 59.424c-2.703-3.317-6.827-5.157-11.1-4.916-56.464 3.188-106.023 3.52-123.956 3.52s-67.492-.332-123.956-3.52c-4.272-.241-8.397 1.598-11.1 4.916-13.561 16.644-22.469 35.133-26.334 53.187h322.78c-3.865-18.054-12.773-36.543-26.334-53.187z" fill="#b8e5ff"/><path d="m204.467 57.372c-20.911-.499-45.905-1.366-72.424-2.863-4.272-.241-8.397 1.598-11.1 4.916-13.561 16.644-22.469 35.133-26.334 53.187h118.137c-5.982-16.508-8.779-36.086-8.279-55.24z" fill="#a1dcfc"/><path d="m256 106.371c49.788 0 130.602-2.008 202.888-9.596 23.234-2.439 33.947 28.057 14.298 40.694-46.774 30.081-110.55 36.161-217.186 36.161s-170.412-6.08-217.185-36.161c-19.649-12.637-8.937-43.133 14.298-40.694 72.285 7.588 153.099 9.596 202.887 9.596z" fill="#deb597"/><path d="" style="fill:none;stroke:#000;stroke-width:15;stroke-linecap:round;stroke-linejoin:round;stroke-miterlimit:10"/><g><g fill="#eda1ab"><ellipse cx="174.042" cy="271.058" rx="30.241" ry="24.082"/><ellipse cx="337.958" cy="271.058" rx="30.241" ry="24.082"/></g><g fill="#565e75"><path d="m191.667 255.375c-4.142 0-7.5-3.357-7.5-7.5v-12.361c0-4.143 3.358-7.5 7.5-7.5s7.5 3.357 7.5 7.5v12.361c0 4.143-3.358 7.5-7.5 7.5z"/><path d="m320.333 255.375c-4.142 0-7.5-3.357-7.5-7.5v-12.361c0-4.143 3.358-7.5 7.5-7.5s7.5 3.357 7.5 7.5v12.361c0 4.143-3.357 7.5-7.5 7.5z"/><path d="m256 262.734c-8.667 0-16.911-3.754-22.615-10.299-2.722-3.122-2.396-7.86.726-10.581 3.122-2.723 7.86-2.398 10.582.726 2.855 3.275 6.977 5.154 11.308 5.154s8.452-1.879 11.307-5.154c2.721-3.123 7.46-3.449 10.582-.726 3.122 2.721 3.448 7.459.726 10.581-5.706 6.545-13.948 10.299-22.616 10.299z"/></g></g></g></svg>