<svg id="Capa_1" enable-background="new 0 0 512 512" height="512" viewBox="0 0 512 512" width="512" xmlns="http://www.w3.org/2000/svg"><g><path d="m379.984 258.224-15.94-69.409s30.587-15.366 44.402-88.442l.006-.003c-35.448-20.494-80.832-32.634-152.452-32.634-146.132 0-183.065 50.517-249.157 119.487-9.25 9.653-9.109 24.925.345 34.379l39.235 39.235c9.591 9.591 25.142 9.591 34.733 0l35.227-35.227c5.769-5.769 15.633-1.683 15.633 6.475v144.718l33.138 37.509 8.833 49.909h183.193c12.595 0 22.804-10.21 22.804-22.804z" fill="#f9efcd"/><path d="m159.164 78.064c-71.245 18.163-103.992 58.725-152.321 109.159-9.25 9.653-9.108 24.925.345 34.379l39.235 39.235c9.591 9.591 25.142 9.591 34.733 0l35.227-35.227c5.769-5.769 15.633-1.683 15.633 6.475v144.718l33.138 37.509 8.833 49.909h124.167c-78.482-43.862-166.248-249.686-138.99-386.157z" fill="#f8debb"/><path d="m505.154 187.219c-33.698-35.166-59.827-65.526-96.707-86.846l-276.43 276.43v64.614c0 12.594 10.21 22.804 22.804 22.804h19.167l205.998-205.998v-26.139c0-8.158 9.864-12.244 15.633-6.475l35.227 35.227c9.591 9.591 25.142 9.591 34.733 0l39.235-39.235c9.455-9.455 9.592-24.727.34-34.382z" fill="#e06e7e"/><path d="m132.016 376.803v64.614c0 12.594 10.21 22.804 22.804 22.804h19.167l63.148-63.148c-16.238-24.403-31.391-53.589-44.19-85.199z" fill="#d7495d"/><path d="m256 148.892c13.164-5.641 49.35-26.124 55.152-50.201s-3.481-41.773-5.05-44.225c-12.893-4.388-35.35-6.687-50.102-6.687s-37.209 2.299-50.102 6.687c-1.569 2.452-10.852 20.148-5.05 44.225s41.988 44.56 55.152 50.201z" fill="#f6c5a3"/><path d="m256 148.892c-21.4-12.041-47.19-73.628-50.102-94.427-9.625 2.547-35.568 22.297-40.401 43.604-1.002 4.418.229 9.035 3.23 12.429 20.293 22.948 83.595 37.557 87.273 38.394z" fill="#f8debb"/><path d="m256 148.892c21.4-12.041 47.19-73.628 50.102-94.427 9.625 2.547 35.568 22.297 40.401 43.604 1.002 4.418-.229 9.035-3.23 12.429-20.293 22.948-83.594 37.557-87.273 38.394z" fill="#f8debb"/><path d="m328.532 258.29-8.851 5.856c-5.477 3.623-12.588 3.623-18.065 0l-8.851-5.856c-5.903-3.906-9.454-10.512-9.454-17.59v-33.41c0-6.102 4.947-11.049 11.049-11.049h32.576c6.102 0 11.048 4.947 11.048 11.049v33.409c.002 7.079-3.549 13.685-9.452 17.591z" fill="#eda1ab"/><path d="m191.432 210.03h-14.882c-4.142 0-7.5-3.357-7.5-7.5s3.358-7.5 7.5-7.5h14.882c4.142 0 7.5 3.357 7.5 7.5s-3.358 7.5-7.5 7.5z" fill="#e06e7e"/></g></svg>