<svg id="Capa_1" enable-background="new 0 0 512 512" height="512" viewBox="0 0 512 512" width="512" xmlns="http://www.w3.org/2000/svg"><g><circle cx="256" cy="256" fill="#f3e872" r="238.379"/><path d="m399.66 446.228c-231.567-40.21-261.966-298.561-234.98-410.473-86.334 35.837-147.059 120.944-147.059 220.245 0 131.653 106.726 238.379 238.379 238.379 53.952 0 103.71-17.933 143.66-48.151z" fill="#edcf76"/><g><g fill="#deb597"><path d="m60.647 263.5h-14.368c-4.142 0-7.5-3.357-7.5-7.5s3.358-7.5 7.5-7.5h14.368c4.142 0 7.5 3.357 7.5 7.5s-3.358 7.5-7.5 7.5z"/><path d="m60.647 222.637h-14.368c-4.142 0-7.5-3.357-7.5-7.5s3.358-7.5 7.5-7.5h14.368c4.142 0 7.5 3.357 7.5 7.5 0 4.142-3.358 7.5-7.5 7.5z"/><path d="m60.647 304.363h-14.368c-4.142 0-7.5-3.357-7.5-7.5s3.358-7.5 7.5-7.5h14.368c4.142 0 7.5 3.357 7.5 7.5s-3.358 7.5-7.5 7.5z"/></g><g fill="#edcf76"><path d="m256 68.147c-4.142 0-7.5-3.357-7.5-7.5v-14.368c0-4.143 3.358-7.5 7.5-7.5 4.143 0 7.5 3.357 7.5 7.5v14.368c0 4.143-3.357 7.5-7.5 7.5z"/><path d="m296.863 68.147c-4.143 0-7.5-3.357-7.5-7.5v-14.368c0-4.143 3.357-7.5 7.5-7.5s7.5 3.357 7.5 7.5v14.368c0 4.143-3.357 7.5-7.5 7.5z"/><path d="m215.136 68.147c-4.142 0-7.5-3.357-7.5-7.5v-14.368c0-4.143 3.358-7.5 7.5-7.5s7.5 3.357 7.5 7.5v14.368c0 4.143-3.358 7.5-7.5 7.5z"/></g><g fill="#edcf76"><path d="m465.721 263.5h-14.368c-4.143 0-7.5-3.357-7.5-7.5s3.357-7.5 7.5-7.5h14.368c4.143 0 7.5 3.357 7.5 7.5s-3.358 7.5-7.5 7.5z"/><path d="m465.721 304.363h-14.368c-4.143 0-7.5-3.357-7.5-7.5s3.357-7.5 7.5-7.5h14.368c4.143 0 7.5 3.357 7.5 7.5s-3.358 7.5-7.5 7.5z"/><path d="m465.721 222.637h-14.368c-4.143 0-7.5-3.357-7.5-7.5s3.357-7.5 7.5-7.5h14.368c4.143 0 7.5 3.357 7.5 7.5 0 4.142-3.358 7.5-7.5 7.5z"/></g><g fill="#deb597"><path d="m256 473.221c-4.142 0-7.5-3.357-7.5-7.5v-14.368c0-4.143 3.358-7.5 7.5-7.5 4.143 0 7.5 3.357 7.5 7.5v14.368c0 4.142-3.357 7.5-7.5 7.5z"/><path d="m215.136 473.221c-4.142 0-7.5-3.357-7.5-7.5v-14.368c0-4.143 3.358-7.5 7.5-7.5s7.5 3.357 7.5 7.5v14.368c0 4.142-3.358 7.5-7.5 7.5z"/><path d="m296.863 473.221c-4.143 0-7.5-3.357-7.5-7.5v-14.368c0-4.143 3.357-7.5 7.5-7.5s7.5 3.357 7.5 7.5v14.368c0 4.142-3.357 7.5-7.5 7.5z"/></g></g><path d="m256 0c-141.385 0-256 114.615-256 256s114.615 256 256 256 256-114.615 256-256-114.615-256-256-256zm197.674 354.916-98.758 98.758c-7.714 7.714-18.176 12.047-29.084 12.047h-139.664c-10.909 0-21.371-4.333-29.084-12.047l-98.758-98.758c-7.714-7.714-12.047-18.176-12.047-29.084v-139.664c0-10.909 4.333-21.371 12.047-29.084l98.758-98.758c7.714-7.714 18.176-12.047 29.084-12.047h139.664c10.909 0 21.37 4.333 29.084 12.047l98.758 98.758c7.714 7.714 12.047 18.175 12.047 29.084v139.664c0 10.909-4.333 21.371-12.047 29.084z" fill="#edcf76"/><path d="m222.801 414.946c-.991 0-1.999-.197-2.967-.615-15.264-6.585-32.652-22.488-51.683-47.27-2.523-3.285-1.905-7.994 1.38-10.517 3.285-2.522 7.992-1.905 10.516 1.38 21.741 28.311 36.867 38.811 45.727 42.633 3.803 1.641 5.557 6.054 3.916 9.857-1.222 2.836-3.986 4.532-6.889 4.532z" fill="#deb597"/><path d="m205.785 335.79c0 19.298-9.704 32.365-16.888 39.395-4.216 4.126-10.925 4.126-15.142 0-7.183-7.029-16.888-20.097-16.888-39.395 0-19.297 9.705-32.365 16.888-39.395 4.216-4.126 10.925-4.126 15.142 0 7.183 7.03 16.888 20.098 16.888 39.395z" fill="#f3e872"/><path d="m148.462 246.065c0 19.298-9.704 32.365-16.888 39.395-4.216 4.126-10.925 4.126-15.142 0-7.183-7.029-16.888-20.097-16.888-39.395s9.704-32.365 16.888-39.395c4.216-4.126 10.925-4.126 15.142 0 7.183 7.03 16.888 20.097 16.888 39.395z" fill="#f3e872"/><path d="m154.217 295.983c13.645 13.645 16.024 29.748 15.915 39.798-.064 5.899-4.808 10.643-10.707 10.707-10.05.109-26.152-2.27-39.798-15.915-13.645-13.645-16.024-29.748-15.915-39.798.064-5.899 4.808-10.643 10.707-10.707 10.05-.109 26.153 2.269 39.798 15.915z" fill="#deb597"/><g><g><path d="m297.565 363.868c-13.35 0-26.374-5.578-34.842-14.921-2.781-3.068-2.548-7.812.521-10.594 3.067-2.779 7.812-2.55 10.594.522 5.671 6.257 14.541 9.993 23.727 9.993 10.06 0 16.597-6.199 17.638-12.031 1.066-5.973-3.648-11.362-12.935-14.788-12.94-4.772-24.426-9.885-24.908-10.1-.361-.161-.709-.351-1.04-.566-7.871-5.132-11.925-14.135-10.581-23.497 1.442-10.055 8.843-18.261 19.313-21.415 21.421-6.45 39.108 8.136 39.851 8.76 3.171 2.665 3.58 7.397.915 10.567-2.657 3.162-7.37 3.58-10.541.936-.272-.221-12.429-9.958-25.898-5.9-4.891 1.473-8.178 4.906-8.791 9.184-.488 3.396.814 6.537 3.496 8.503 2.533 1.112 12.563 5.467 23.377 9.456 12.761 4.706 25.376 15.452 22.511 31.497-2.487 13.907-16.417 24.394-32.407 24.394z" fill="#deb597"/></g><g><path d="m351.177 370.963c-.923 0-1.86-.171-2.77-.533-3.85-1.53-5.728-5.892-4.197-9.74l39.92-100.367c1.531-3.85 5.893-5.73 9.74-4.197 3.85 1.53 5.729 5.892 4.197 9.74l-39.92 100.367c-1.169 2.939-3.989 4.73-6.97 4.73z" fill="#deb597"/></g></g><g><g fill="#eda1ab"><ellipse cx="169.913" cy="165.009" rx="31.765" ry="25.296"/><ellipse cx="342.087" cy="165.009" rx="31.765" ry="25.296"/></g><g fill="#565e75"><path d="m188.425 147.848c-4.142 0-7.5-3.357-7.5-7.5v-12.362c0-4.143 3.358-7.5 7.5-7.5s7.5 3.357 7.5 7.5v12.362c0 4.142-3.358 7.5-7.5 7.5z"/><path d="m256 155.889c-8.996 0-17.551-3.896-23.471-10.691-2.721-3.123-2.395-7.86.727-10.581 3.124-2.722 7.86-2.396 10.582.727 3.07 3.523 7.502 5.544 12.161 5.544 4.658 0 9.091-2.021 12.161-5.544 2.72-3.124 7.459-3.448 10.581-.727 3.123 2.721 3.449 7.458.727 10.581-5.917 6.794-14.472 10.691-23.468 10.691z"/><path d="m340.287 147.503c-4.143 0-7.5-3.357-7.5-7.5 0-3.764-3.062-6.826-6.825-6.826-3.764 0-6.826 3.063-6.826 6.826 0 4.143-3.357 7.5-7.5 7.5s-7.5-3.357-7.5-7.5c0-12.035 9.791-21.826 21.826-21.826 12.034 0 21.825 9.791 21.825 21.826 0 4.142-3.357 7.5-7.5 7.5z"/></g></g><path d="m423.596 449.517c-19.399-1.994-37.513-5.423-54.404-10.119l-14.276 14.276c-7.714 7.714-18.176 12.047-29.084 12.047h-139.664c-10.909 0-21.371-4.333-29.084-12.047l-98.758-98.758c-7.714-7.714-12.047-18.176-12.047-29.084v-139.664c0-10.909 4.333-21.371 12.047-29.084l98.758-98.758c1.192-1.192 2.456-2.292 3.77-3.319 2.535-15.725 6.072-29.494 10.34-40.605-99.701 34.996-171.194 129.94-171.194 241.598 0 141.385 114.615 256 256 256 64.095 0 122.689-23.556 167.596-62.483z" fill="#deb597"/></g></svg>