<svg id="Capa_1" enable-background="new 0 0 512 512" height="512" viewBox="0 0 512 512" width="512" xmlns="http://www.w3.org/2000/svg"><g><path d="m436.686 207.906c4.705-25.133-15.673-43.939-40.762-37.571-3.851.977-7.463-2.038-7.384-6.011.441-22.395-19.187-36.88-41.835-30.937-3.776.991-7.561-1.727-7.492-5.63.387-21.758-18.154-36.164-40.241-31.264-3.786.84-7.271-2.285-7.078-6.158 1.209-24.292-21.091-39.46-45.178-31.028-3.752 1.313-7.832-1.239-8.033-5.209-.398-7.894-3.321-15.254-8.889-20.822-10.983-10.983-28.928-11.67-44.201-2.999-3.631 2.062-8.185-.101-8.831-4.227-1.012-6.465-3.819-12.411-8.499-17.092-17.583-17.583-50.301-7.857-63.715 16.764-1.453 2.668-4.678 3.912-7.464 2.701-13.909-6.044-32.486-1.89-45.896 11.52s-17.564 31.989-11.52 45.897c1.211 2.786-.034 6.01-2.701 7.464-24.538 13.383-34.397 46.082-16.765 63.714 4.681 4.681 10.627 7.488 17.092 8.499 4.125.646 6.288 5.199 4.227 8.831-8.671 15.273-7.984 33.219 2.999 44.201 5.569 5.569 12.928 8.491 20.822 8.889 3.969.2 6.521 4.281 5.206 8.031-8.461 24.128 6.769 46.378 31.029 45.179 3.873-.191 7 3.292 6.159 7.078-4.908 22.097 9.511 40.616 31.248 40.242 3.911-.067 6.634 3.723 5.641 7.506-5.949 22.67 8.574 42.255 30.941 41.82 3.972-.077 6.989 3.534 6.011 7.385-6.378 25.104 12.439 45.468 37.572 40.763 3.845-.72 7.274 2.432 6.983 6.333-.722 9.659 2.147 18.909 8.823 25.585 13.127 13.127 36.404 11.549 52.898-3.22 3.123-2.796 7.967-1.665 9.572 2.207 8.985 21.688 40.007 25.709 61.483 4.232 6.478-6.478 10.79-14.161 12.84-21.941.638-2.421 2.775-4.197 5.275-4.329 31.787-1.68 66.854-36.71 68.532-68.532.132-2.5 1.908-4.637 4.329-5.275 7.78-2.051 15.463-6.363 21.941-12.84 21.518-21.518 17.411-52.495-4.231-61.478-3.871-1.607-5.006-6.45-2.208-9.57 14.847-16.558 16.281-39.842 3.219-52.904-6.676-6.676-15.927-9.545-25.586-8.823-3.901.293-7.053-3.136-6.333-6.981z" fill="#e06e7e"/><path d="m437.956 337.367c-42.985-27.154-115.364-56.168-189.594-56.168-50.28 0-94.586 13.878-129.665 40.363 5.4 4.154 12.353 6.544 20.288 6.407 3.911-.067 6.634 3.723 5.641 7.506-5.949 22.67 8.574 42.255 30.941 41.82 3.972-.077 6.989 3.534 6.011 7.385-6.378 25.104 12.439 45.468 37.572 40.763 3.845-.72 7.274 2.432 6.983 6.333-.722 9.659 2.147 18.909 8.823 25.585 13.127 13.127 36.404 11.549 52.897-3.22 3.123-2.796 7.967-1.665 9.572 2.207 8.985 21.688 40.007 25.709 61.483 4.232 6.478-6.478 10.79-14.161 12.84-21.941.638-2.421 2.775-4.197 5.275-4.329 31.787-1.68 66.854-36.71 68.532-68.532.132-2.5 1.909-4.637 4.329-5.275 2.705-.713 5.395-1.718 8.03-2.973-5.004-8.063-11.783-14.999-19.958-20.163z" fill="#d7495d"/><path d="m421.452 363.496c-47.168-29.796-134.892-62.107-212.656-47.943-79.025 40.815-37.377 93.805 10.531 133.041 3.675 2.551 7.376 5.648 11.095 9.367 52.399 52.399 139.84 27.639 198.965-46.286 12.173-15.221 8.543-37.77-7.935-48.179z" fill="#7fd29b"/><path d="m121.106 360.323c-39.554 39.554-44.111 93.613-36.237 135.852 3.45 18.508 28.612 21.674 36.838 4.74 19.637-40.424 56.97-80.539 97.62-52.321-37.999-38.134-33.212-106.512-10.531-133.041-32.115 5.849-62.533 19.612-87.69 44.77z" fill="#5ec581"/><path d="m289.722 401.242c-.947 0-1.911-.181-2.842-.563-15.536-6.369-37.732-10.725-51.636-10.1-4.09.185-7.639-3.025-7.822-7.164-.182-4.138 3.025-7.64 7.164-7.822 16.03-.691 40.425 4.009 57.983 11.207 3.833 1.571 5.666 5.952 4.095 9.784-1.189 2.902-3.989 4.658-6.942 4.658z" fill="#5ec581"/><path d="m490.253 168.838c12.283 12.283 15.407 29.072.59 43.889s-45.148 25.234-57.43 12.951c-12.283-12.283-1.866-42.613 12.951-57.43s31.606-11.693 43.889.59z" fill="#d7495d"/><path d="m467.99 83.519c0 17.37-9.662 31.451-30.617 31.451-20.954 0-49.767-14.081-49.767-31.451s28.813-31.451 49.767-31.451c20.955 0 30.617 14.081 30.617 31.451z" fill="#d7495d"/><g><g><path d="m161.481 223.457c9.415 9.415 7.463 26.632-4.36 38.455s-29.04 13.775-38.455 4.36-7.463-26.632 4.359-38.455c11.824-11.823 29.041-13.775 38.456-4.36z" fill="#eda1ab"/><path d="m234.701 150.237c9.415 9.415 26.632 7.463 38.455-4.36s13.775-29.039 4.36-38.455c-9.415-9.415-26.632-7.463-38.455 4.359-11.823 11.824-13.775 29.041-4.36 38.456z" fill="#eda1ab"/><path d="m202.252 156.489c-10.667-10.667-19.396-3.941-28.928 5.591s-16.257 18.262-5.591 28.928c10.667 10.666 27.041 11.586 36.573 2.054s8.613-25.906-2.054-36.573z" fill="#565e75"/></g><g fill="#565e75"><path d="m123.3 228.433c-1.919 0-3.839-.732-5.304-2.196l-8.741-8.741c-2.929-2.93-2.929-7.678 0-10.607 2.93-2.928 7.678-2.928 10.607 0l8.741 8.741c2.929 2.93 2.929 7.678 0 10.607-1.464 1.463-3.384 2.196-5.303 2.196z"/><path d="m232.177 119.556c-1.919 0-3.839-.732-5.304-2.196l-8.741-8.741c-2.929-2.93-2.929-7.678 0-10.607 2.93-2.928 7.678-2.928 10.607 0l8.741 8.741c2.929 2.93 2.929 7.678 0 10.607-1.464 1.463-3.384 2.196-5.303 2.196z"/></g></g><g fill="#d7495d"><path d="m387.612 305.597c-2.273 0-4.52-1.029-5.994-2.984-2.494-3.308-1.834-8.011 1.473-10.504 3.012-2.271 18.109-19.776 23.074-30.035 1.804-3.729 6.287-5.291 10.018-3.484 3.728 1.804 5.289 6.289 3.484 10.018-5.904 12.202-22.305 31.527-27.545 35.479-1.353 1.017-2.937 1.51-4.51 1.51z"/><path d="m350.763 245.037c-4.387-8.348-14.841-17.87-23.882-23.509 5.565-6.645 10.297-13.09 13.085-18.38 1.932-3.664.526-8.2-3.138-10.132-3.669-1.932-8.202-.526-10.132 3.138-2.29 4.345-6.409 9.915-11.354 15.798-9.935-10.534-26.663-18.605-29.787-19.507-3.978-1.146-8.151 1.143-9.301 5.122-1.148 3.979 1.132 8.132 5.111 9.281 3.521 1.122 17.891 9.402 23.947 16.314-7.187 7.612-14.705 14.802-20.427 19.634-3.165 2.673-3.563 7.404-.892 10.569 2.661 3.152 7.391 3.574 10.569.892 6.226-5.257 14.36-13.013 22.164-21.322 5.883 3.342 16.893 11.728 20.758 19.081 1.923 3.66 6.452 5.081 10.128 3.149 3.668-1.927 5.078-6.462 3.151-10.128z"/><path d="m92.238 129.245c-.979 0-1.974-.193-2.932-.601-3.812-1.621-5.587-6.025-3.966-9.837 3.51-8.251 20.414-28.798 35.264-36.36 3.689-1.877 8.206-.412 10.087 3.28 1.879 3.691.411 8.207-3.28 10.087-11.576 5.896-25.989 23.509-28.268 28.864-1.213 2.854-3.987 4.567-6.905 4.567z"/></g></g></svg>