<svg id="Capa_1" enable-background="new 0 0 512 512" height="512" viewBox="0 0 512 512" width="512" xmlns="http://www.w3.org/2000/svg"><g><path d="m240.419 210.596c-61.634 8.231-194.656 6.901-240.419 53.378v100.304l112.031 79.086 323.765-36.236 76.204-110.658v-64.404c-52.335-39.198-206.621-30.144-271.581-21.47z" fill="#a6aeba"/><path d="m97.712 333.855c.398-31.225 21.266-74.704-2.562-119.257-15.902-29.733-8.528-59.553 4.383-89.047-28.81 33.905-49.471 50.213-66.581 62.482-20.675 14.827-32.952 38.688-32.952 64.129v112.115l112.031 79.086 39.132-4.38c-46.639-33.798-53.823-75.926-53.451-105.128z" fill="#8c9aad"/><g><path d="m349.728 366.022c-1.779 0-3.565-.63-4.996-1.909-3.088-2.761-3.352-7.502-.592-10.59 9.428-10.544 9.472-21.918 9.519-33.961.034-8.782.069-17.864 4.012-26.276 1.758-3.75 6.225-5.364 9.975-3.607 3.75 1.758 5.365 6.224 3.607 9.975-2.538 5.413-2.563 12.158-2.594 19.968-.051 12.97-.113 29.111-13.337 43.9-1.481 1.657-3.533 2.5-5.594 2.5z" fill="#8c9aad"/><path d="m65.675 339.883c-.437 0-.879-.038-1.323-.117-4.078-.726-6.796-4.62-6.069-8.698 1.464-8.225 3.88-13.441 5.821-17.632 2.31-4.987 3.979-8.59 3.979-16.657 0-4.143 3.357-7.5 7.5-7.5s7.5 3.357 7.5 7.5c0 11.373-2.729 17.264-5.367 22.961-1.821 3.932-3.541 7.644-4.665 13.957-.648 3.632-3.811 6.186-7.376 6.186z" fill="#a6aeba"/></g><path d="m512 232.066v-75.048c0-17.604-5.816-34.759-16.728-48.573-25.07-31.738-67.689-70.243-85.751-71.725-23.503-1.928-49.8 58.395-60.246 69.554-3.525 3.765-7.626 9.096-11.813 16.176-7.418-14.379-11.36-28.995-13.519-34.081-3.958-9.323-28.914-47.585-49.364-46.091-20.451 1.494-65.969 40.901-71.951 72.566-.919 4.867-3.086 10.139-6.129 15.601-20.034-41.038-57.989-50.815-96.748-5.147-28.925 34.08-49.645 50.436-66.799 62.736-20.675 14.826-32.952 38.687-32.952 64.128v11.811c38.049-17.004 112.031-11.979 161.654 7.041 71.487 27.401 108.54 11.451 164.823-14.983 49.405-23.203 141.661-44.122 185.523-23.965z" fill="#f9efcd"/><g fill="#f8debb"><path d="m126.815 209.423c-2.57 0-5.073-1.322-6.471-3.698-2.101-3.57-.909-8.167 2.661-10.267 8.147-4.794 50.759-39.622 66.941-68.665 2.016-3.62 6.581-4.916 10.202-2.901 3.618 2.017 4.917 6.584 2.901 10.202-17.811 31.968-63.3 68.916-72.439 74.292-1.193.703-2.503 1.037-3.795 1.037z"/><path d="m315.501 193.462c-.44 0-.885-.038-1.333-.119-4.077-.73-6.789-4.629-6.058-8.706 4.595-25.622 12.512-48.446 22.895-66.005 2.109-3.564 6.709-4.745 10.273-2.639 3.565 2.109 4.747 6.708 2.639 10.273-6.613 11.183-15.633 30.847-21.044 61.019-.649 3.629-3.809 6.177-7.372 6.177z"/><path d="m406.25 177.685c-1.157 0-2.33-.269-3.43-.835-3.682-1.898-5.129-6.42-3.231-10.103 2.195-4.261 8.802-33.045 8.969-37.791 0-4.143 3.357-7.474 7.499-7.474 4.143 0 7.5 3.384 7.5 7.526 0 5.661-7.031 37.617-10.634 44.609-1.331 2.584-3.954 4.068-6.673 4.068z"/><path d="m241.164 163.575c-1.104 0-2.225-.245-3.284-.762-3.723-1.817-5.267-6.308-3.45-10.03 1.676-3.433 3.546-6.926 5.354-10.305 6.35-11.863 12.915-24.132 12.915-36.813 0-4.142 3.357-7.5 7.5-7.5s7.5 3.358 7.5 7.5c0 16.443-7.805 31.026-14.69 43.892-1.823 3.407-3.546 6.626-5.099 9.807-1.301 2.662-3.969 4.211-6.746 4.211z"/><path d="m217.677 247.521c-.919 0-1.852-.17-2.758-.528-3.852-1.524-5.738-5.882-4.214-9.733 3.282-8.293 8.168-12.534 12.479-16.276 4.021-3.489 7.493-6.504 10.314-13.271 1.594-3.824 5.989-5.627 9.808-4.038 3.823 1.593 5.632 5.984 4.038 9.808-4.174 10.018-9.803 14.903-14.326 18.829-3.733 3.24-6.431 5.582-8.364 10.468-1.168 2.944-3.991 4.741-6.977 4.741z"/></g><path d="m512 414.768v-118.298c-29.482 24.568-147.736 49.218-211.286 44.797-33.347-2.32-135.398 7.074-188.683 59.583l188.683 74.476h150.728c33.445 0 60.558-27.113 60.558-60.558z" fill="#7fd29b"/><path d="m327.932 462.285c-27.423-57.231-88.287-70.472-124.651-78.384-2.424-.527-4.764-1.036-7.005-1.539-8.973-2.015-22.59-6.608-39.275-12.202-16.706 8.053-32.233 18.136-44.971 30.688l188.683 74.476h33.467z" fill="#5ec581"/><g><g fill="#fff"><ellipse cx="275.139" cy="425.533" rx="30.241" ry="24.082"/><ellipse cx="439.054" cy="425.533" rx="30.241" ry="24.082"/></g><g fill="#565e75"><path d="m292.763 409.851c-4.143 0-7.5-3.357-7.5-7.5v-12.362c0-4.143 3.357-7.5 7.5-7.5s7.5 3.357 7.5 7.5v12.362c0 4.142-3.358 7.5-7.5 7.5z"/><path d="m421.43 409.851c-4.143 0-7.5-3.357-7.5-7.5v-12.362c0-4.143 3.357-7.5 7.5-7.5s7.5 3.357 7.5 7.5v12.362c0 4.142-3.358 7.5-7.5 7.5z"/><path d="m357.097 417.209c-8.669 0-16.911-3.754-22.615-10.299-2.722-3.123-2.396-7.86.727-10.582 3.122-2.721 7.859-2.395 10.582.727 2.854 3.275 6.976 5.154 11.307 5.154s8.452-1.879 11.307-5.154c2.722-3.122 7.457-3.448 10.582-.727 3.122 2.722 3.448 7.459.727 10.582-5.706 6.545-13.948 10.299-22.617 10.299z"/></g></g><path d="m0 364.278c72.212 3.227 156.253 40.033 189.666 47.533s88.445 16.345 111.048 63.515h-240.156c-33.445 0-60.558-27.113-60.558-60.558z" fill="#8ce0cd"/><path d="m95.15 214.598c-15.902-29.733-8.528-59.553 4.383-89.047-28.81 33.905-49.471 50.213-66.581 62.482-20.675 14.827-32.952 38.688-32.952 64.129v11.811c25.428-11.363 66.9-12.877 106.429-6.962-.571-13.776-3.591-28.037-11.279-42.413z" fill="#f8debb"/></g></svg>