<svg id="Capa_1" enable-background="new 0 0 512 512" height="512" viewBox="0 0 512 512" width="512" xmlns="http://www.w3.org/2000/svg"><g><path d="m421.495 164.63c-7.82 7.82-12.384 25.063-4.564 32.883s25.063 3.256 32.883-4.564 7.82-20.499 0-28.319c-7.821-7.82-20.499-7.82-28.319 0z" fill="#d7495d"/><circle cx="440.033" cy="283.808" fill="#8ce0cd" r="39.522"/><path d="m441.509 232.8c-6.747-52.681-43.055-94.107-96.167-94.107-71.349 0-109.446-26.904-163.029-26.904-84.142 0-107.37 38.106-113.113 89.781-3.982 35.827 13.366 54.925-2.501 96.894-12.327 32.608 104.234 1.631 121.561 1.631h157.081c53.113.001 103.143-12.838 96.168-67.295z" fill="#e06e7e"/><g fill="#d7495d"><path d="m281.205 322.101c-1.958 0-3.914-.762-5.385-2.279-15.789-16.282-23.275-60.531-23.275-69.544 0-4.143 3.358-7.5 7.5-7.5s7.5 3.357 7.5 7.5c0 7.635 7.601 47.303 19.043 59.103 2.883 2.974 2.811 7.722-.163 10.605-1.456 1.411-3.34 2.115-5.22 2.115z"/><path d="m241.416 325.53c-1.958 0-3.914-.762-5.385-2.279-15.789-16.282-23.275-60.531-23.275-69.544 0-4.143 3.358-7.5 7.5-7.5s7.5 3.357 7.5 7.5c0 7.635 7.601 47.303 19.044 59.103 2.883 2.974 2.811 7.722-.163 10.604-1.456 1.413-3.34 2.116-5.221 2.116z"/><path d="m111.988 315.074c-.343 0-.689-.023-1.038-.072-4.103-.567-6.968-4.354-6.4-8.457 1.835-13.254 8.095-23.116 14.149-32.653 9.26-14.588 17.257-27.187 7.957-51.204-1.496-3.862.423-8.206 4.286-9.702 3.861-1.498 8.206.424 9.702 4.286 12.035 31.079.711 48.919-9.281 64.659-5.435 8.56-10.567 16.647-11.955 26.671-.52 3.753-3.734 6.472-7.42 6.472z"/></g><path d="m122.696 251.799c-5.424 1.631-11.314.057-15.389-3.878-4.279-4.132-9.383-7.413-15.041-9.574-26.477 13.354-19.58 76.253 37.475 75.045l7.869 19.132c21.314-1.615 38.109-19.408 38.109-41.136.001-28.538-27.692-47.204-53.023-39.589z" fill="#8ce0cd"/><path d="m92.266 238.347c-5.585-2.133-11.708-3.176-18.113-2.86-25.305 1.246-44.531 23.872-42.042 49.085 3.29 33.327 41.84 51.255 69.634 31.971 5.715 7.419 13.895 12.837 23.313 15.032 2.902-4.833 4.683-10.801 4.683-18.182-46.463-4.027-45.117-58.188-37.475-75.046z" fill="#7fd29b"/><path d="m274.547 166.992c7.82 7.82 12.384 25.063 4.564 32.883s-25.063 3.256-32.883-4.564-7.82-20.499 0-28.319 20.499-7.82 28.319 0z" fill="#d7495d"/><path d="m454.733 346.315-198.733-28.285-198.733 28.285 13.698 28.807c7.286 15.324 22.74 25.087 39.708 25.087h290.655c16.968 0 32.421-9.763 39.708-25.087z" fill="#d79882"/><path d="m496.043 289.744h-329.94c-22.553 13.394-11.475 45.891 21.722 56.571h281.999c16.729 0 31.722-10.327 37.685-25.957l3.429-8.988c3.981-10.436-3.725-21.626-14.895-21.626z" fill="#deb597"/><path d="m15.957 289.744c-11.17 0-18.877 11.189-14.895 21.625l3.43 8.989c5.963 15.63 20.956 25.957 37.685 25.957h145.648c-13.006-9.547-26.056-34.655-21.722-56.571z" fill="#d79882"/><g><g><path d="m336.091 237.47c-.012 13.482-13.745 24.399-30.675 24.385-16.929-.015-30.644-10.956-30.632-24.438s13.745-24.399 30.674-24.385c16.93.016 30.644 10.956 30.633 24.438z" fill="#eda1ab"/></g><g fill="#565e75"><path d="m323.323 221.305c-.002 0-.004 0-.006 0-4.142-.003-7.498-3.364-7.494-7.506l.01-12.234c.003-4.14 3.361-7.494 7.5-7.494h.006c4.142.003 7.497 3.364 7.494 7.506l-.01 12.234c-.004 4.139-3.361 7.494-7.5 7.494z"/><path d="m405.722 226.815c-.002 0-.004 0-.006 0l-34.385-.029c-4.142-.004-7.497-3.364-7.494-7.507.003-4.14 3.361-7.493 7.5-7.493h.006l34.385.029c4.142.004 7.497 3.364 7.494 7.507-.004 4.14-3.361 7.493-7.5 7.493z"/></g></g></g></svg>