<svg id="Capa_1" enable-background="new 0 0 512 512" height="512" viewBox="0 0 512 512" width="512" xmlns="http://www.w3.org/2000/svg"><g><path d="m263.262 428.79c-11.083-3.608-17.143-15.517-13.535-26.6 8.361-25.682 7.777-72.808 7.745-100.28 0-11.655 9.448-21.104 21.104-21.104 11.655 0 21.104 9.448 21.104 21.104.039 33.741.574 81.426-9.818 113.345-3.596 11.046-15.483 17.154-26.6 13.535z" fill="#7fd29b"/><path d="m80.26 492.292c-6.857-11.42-3.158-26.236 8.263-33.093 77.937-46.796 213.621-95.199 305.773-95.199 13.321 0 24.119 10.798 24.119 24.119s-10.798 24.119-24.119 24.119c-82.676 0-210.202 45.843-280.943 88.317-11.458 6.88-26.26 3.119-33.093-8.263z" fill="#8ce0cd"/><path d="m21.02 99.542c35.647-35.647 104.896-24.194 150.147 21.058 66.257 66.257 94.74 152.536 59.093 188.183s-121.925 7.164-188.183-59.093c-45.251-45.252-56.704-114.501-21.057-150.148z" fill="#7fd29b"/><path d="m230.261 308.783c35.647-35.647 7.164-121.926-59.093-188.183-8.902-8.902-18.735-16.489-29.055-22.674-6.802 17.084-10.421 34.767-10.421 52.027 0 86.984 33.015 143.702 77.858 171.114 8.004-2.528 15.008-6.582 20.711-12.284z" fill="#5ec581"/><path d="m171.047 257.069c-1.919 0-3.839-.732-5.303-2.196l-85.582-85.582c-2.929-2.93-2.929-7.678 0-10.607 2.929-2.928 7.678-2.928 10.607 0l85.582 85.582c2.929 2.93 2.929 7.678 0 10.607-1.465 1.464-3.384 2.196-5.304 2.196z" fill="#5ec581"/><g><path d="m490.98 29.019c-35.647-35.647-104.896-24.193-150.147 21.058-66.257 66.257-94.74 152.536-59.093 188.183s121.926 7.164 188.183-59.093c45.251-45.252 56.705-114.501 21.057-150.148z" fill="#7fd29b"/><g fill="#5ec581"><path d="m425.461 149.953c0-44.753-24.402-90.039-59.56-120.081-8.867 5.7-17.32 12.457-25.068 20.205-66.257 66.257-94.74 152.536-59.093 188.183 26.575 26.575 81.289 17.501 134.87-16.287 5.685-21.137 8.851-45.127 8.851-72.02z"/><path d="m361.985 165.515c-1.92 0-3.839-.732-5.303-2.196-2.929-2.93-2.929-7.678 0-10.607l75.97-75.971c2.929-2.928 7.678-2.928 10.606 0 2.929 2.93 2.929 7.678 0 10.608l-75.97 75.971c-1.464 1.462-3.384 2.195-5.303 2.195z"/></g></g><path d="m201.998 398.759c23.64 23.64 33.207 60.939 16.102 78.043-17.105 17.105-54.403 7.539-78.044-16.102-23.64-23.64-24.671-52.403-7.566-69.508s45.868-16.074 69.508 7.567z" fill="#e06e7e"/><path d="m216.575 478.203c-57.648-14.22-78.807-72.921-61.546-98.256-8.518 1.2-16.305 5.012-22.538 11.246-17.105 17.105-16.074 45.867 7.566 69.508 22.962 22.962 58.806 32.64 76.518 17.502z" fill="#d7495d"/><path d="m278.576 315.448c-60.182 0-121.935-49.883-121.935-165.494 0-63.995 61.753-130.417 121.935-130.417s121.935 66.422 121.935 130.417c0 115.61-61.753 165.494-121.935 165.494z" fill="#8ce0cd"/><g><g><ellipse cx="192.054" cy="184.451" fill="#eda1ab" rx="31.925" ry="25.423"/><ellipse cx="365.098" cy="184.451" fill="#eda1ab" rx="31.925" ry="25.423"/><g fill="#fff"><circle cx="358.874" cy="138.809" r="32.156"/><circle cx="198.278" cy="138.809" r="32.156"/></g></g><g fill="#565e75"><path d="m358.874 156.904c-4.142 0-7.5-3.357-7.5-7.5v-21.214c0-4.143 3.358-7.5 7.5-7.5s7.5 3.357 7.5 7.5v21.215c0 4.142-3.358 7.499-7.5 7.499z"/><path d="m198.278 156.904c-4.142 0-7.5-3.357-7.5-7.5v-21.214c0-4.143 3.358-7.5 7.5-7.5s7.5 3.357 7.5 7.5v21.215c0 4.142-3.358 7.499-7.5 7.499z"/><path d="m278.576 178.815c-15.032 0-29.328-6.512-39.223-17.865-2.722-3.123-2.396-7.86.726-10.582 3.122-2.721 7.859-2.396 10.581.727 7.046 8.084 17.22 12.721 27.915 12.721 10.694 0 20.869-4.637 27.915-12.721 2.721-3.123 7.458-3.447 10.582-.727 3.123 2.722 3.448 7.459.726 10.582-9.895 11.353-24.191 17.865-39.222 17.865z"/></g></g><g fill="#7fd29b"><path d="m278.585 279.185c-4.142 0-7.5-3.358-7.5-7.5v-51.061c0-4.143 3.358-7.5 7.5-7.5s7.5 3.357 7.5 7.5v51.061c0 4.142-3.357 7.5-7.5 7.5z"/><path d="m278.576 104.783c-4.142 0-7.5-3.357-7.5-7.5v-30.477c0-4.143 3.358-7.5 7.5-7.5s7.5 3.357 7.5 7.5v30.477c0 4.143-3.358 7.5-7.5 7.5z"/></g></g></svg>