<svg id="Capa_1" enable-background="new 0 0 512 512" height="512" viewBox="0 0 512 512" width="512" xmlns="http://www.w3.org/2000/svg"><g><path d="m195.773 512c-29.247 0-53.042-23.795-53.042-53.042v-18.324h-18.324c-29.247 0-53.042-23.795-53.042-53.042v-18.323h-18.323c-29.247 0-53.042-23.795-53.042-53.043v-120.452c0-29.248 23.794-53.043 53.042-53.043h18.324v-18.323c0-29.247 23.794-53.042 53.042-53.042h18.324v-18.323c-.001-29.248 23.794-53.043 53.041-53.043h120.453c29.248 0 53.043 23.795 53.043 53.042v18.324h18.323c29.247 0 53.042 23.795 53.042 53.042v18.323h18.323c29.248 0 53.043 23.795 53.043 53.043v120.452c0 29.248-23.795 53.043-53.042 53.043h-18.324v18.323c0 29.247-23.795 53.042-53.042 53.042h-18.323v18.323c0 29.248-23.795 53.043-53.043 53.043z" fill="#f3e872"/><path d="m195.773 512c-29.247 0-53.042-23.795-53.042-53.042v-18.324h-18.324c-29.247 0-53.042-23.795-53.042-53.042v-18.323h-18.323c-29.247 0-53.042-23.795-53.042-53.043v-120.452c0-29.248 23.794-53.043 53.042-53.043h18.324v-18.323c0-29.247 23.794-53.042 53.042-53.042h18.324v-18.323c-.001-29.248 23.794-53.043 53.041-53.043h120.453c29.248 0 53.043 23.795 53.043 53.042v18.324h18.323c29.247 0 53.042 23.795 53.042 53.042v18.323h18.323c29.248 0 53.043 23.795 53.043 53.043v120.452c0 29.248-23.795 53.043-53.042 53.043h-18.324v18.323c0 29.247-23.795 53.042-53.042 53.042h-18.323v18.323c0 29.248-23.795 53.043-53.043 53.043z" fill="#f3e872"/><path d="m138.5 71.366h-14.092c-29.247 0-53.042 23.795-53.042 53.042v18.323h-18.324c-29.247 0-53.042 23.795-53.042 53.043v120.453c0 29.248 23.794 53.043 53.042 53.043h18.324v18.323c0 29.247 23.794 53.042 53.042 53.042h18.324v18.325c0 29.247 23.794 53.042 53.042 53.042h120.453c13.166 0 25.218-4.833 34.501-12.804-205.554-54.809-219.498-322.29-212.228-427.832z" fill="#edcf76"/><path d="m458.957 184.635h-49.087c-6.152 0-11.139-4.987-11.139-11.139v-49.088c0-6.152-4.987-11.139-11.139-11.139h-49.088c-6.152 0-11.139-4.987-11.139-11.139v-49.088c0-6.152-4.987-11.139-11.139-11.139h-120.453c-6.152 0-11.139 4.987-11.139 11.139v49.088c0 6.152-4.987 11.139-11.139 11.139h-49.088c-6.152 0-11.139 4.987-11.139 11.139v49.088c0 6.152-4.987 11.139-11.139 11.139h-49.087c-6.152 0-11.139 4.987-11.139 11.139v120.453c0 6.152 4.987 11.139 11.139 11.139h49.088c6.152 0 11.139 4.987 11.139 11.139v49.088c0 6.152 4.987 11.139 11.139 11.139h49.088c6.152 0 11.139 4.987 11.139 11.139v49.088c0 6.152 4.987 11.139 11.139 11.139h120.453c6.152 0 11.139-4.987 11.139-11.139v-49.089c0-6.152 4.987-11.139 11.139-11.139h49.088c6.152 0 11.139-4.987 11.139-11.139v-49.088c0-6.152 4.987-11.139 11.139-11.139h49.088c6.152 0 11.139-4.987 11.139-11.139v-120.453c-.002-6.151-4.989-11.138-11.141-11.138z" fill="#deb597"/><circle cx="256" cy="256" fill="#f3e872" r="53.524"/><g><g fill="#fff"><ellipse cx="174.042" cy="180.752" rx="30.241" ry="24.082"/><ellipse cx="337.958" cy="180.752" rx="30.241" ry="24.082"/></g><g fill="#565e75"><path d="m191.666 165.069c-4.142 0-7.5-3.357-7.5-7.5v-12.362c0-4.143 3.358-7.5 7.5-7.5s7.5 3.357 7.5 7.5v12.362c0 4.143-3.357 7.5-7.5 7.5z"/><path d="m320.333 165.069c-4.143 0-7.5-3.357-7.5-7.5v-12.362c0-4.143 3.357-7.5 7.5-7.5s7.5 3.357 7.5 7.5v12.362c0 4.143-3.357 7.5-7.5 7.5z"/><path d="m256 172.429c-8.669 0-16.911-3.754-22.616-10.3-2.721-3.123-2.396-7.86.727-10.582 3.123-2.721 7.861-2.395 10.582.727 2.855 3.276 6.976 5.155 11.307 5.155s8.452-1.879 11.307-5.155c2.723-3.123 7.457-3.447 10.582-.727 3.122 2.722 3.448 7.459.727 10.582-5.705 6.546-13.948 10.3-22.616 10.3z"/></g></g><path d="m137.092 113.269h-12.684c-6.152 0-11.139 4.987-11.139 11.139v49.088c0 6.152-4.987 11.139-11.139 11.139h-49.088c-6.152 0-11.139 4.987-11.139 11.139v120.453c0 6.152 4.987 11.139 11.139 11.139h49.088c6.152 0 11.139 4.987 11.139 11.139v49.088c0 6.152 4.987 11.139 11.139 11.139h49.088c6.152 0 11.139 4.987 11.139 11.139v49.088c0 6.152 4.987 11.139 11.139 11.139h87.604c-122.924-77.364-146.446-251.8-146.286-356.829z" fill="#d79882"/></g></svg>