<svg id="Capa_1" enable-background="new 0 0 512 512" height="512" viewBox="0 0 512 512" width="512" xmlns="http://www.w3.org/2000/svg"><g><path d="m406.418 226.404c9.353-52.299 40.484-130.402 76.861-155.62.952-10.632 1.691-22.134 2.177-34.631.767-19.717-14.966-36.153-34.697-36.153h-367.076c-19.731 0-35.464 16.436-34.698 36.152.486 12.497 1.225 24 2.177 34.631 36.377 25.219 67.508 103.321 76.861 155.62s17.156 114.752-1.664 165.516c4.438 24.862 9.003 48.784 12.749 67.893 4.743 24.199 25.951 41.636 50.61 41.636h155.006c24.659 0 45.867-17.437 50.61-41.636 3.745-19.109 8.311-43.031 12.749-67.893-18.821-50.764-11.018-113.216-1.665-165.515z" fill="#b8e5ff"/><path d="m169.651 0h-85.968c-19.731 0-35.464 16.436-34.698 36.152.486 12.497 1.225 24 2.177 34.631 36.377 25.219 67.508 103.321 76.861 155.62s17.156 114.752-1.664 165.516c4.438 24.862 9.003 48.784 12.749 67.893 4.743 24.199 25.951 41.636 50.61 41.636h121.863c-150.346-84.085-142.988-383.078-141.93-501.448z" fill="#a1dcfc"/><path d="m61.236 134.178c16.391 66.497 43.18 82.276 48.526 145.252 2.443 28.785 9.351 71.892 16.598 112.489 3.982 22.306 23.401 38.535 46.06 38.535h189.604c22.658 0 42.078-16.23 46.06-38.535 7.247-40.596 14.154-83.704 16.598-112.489 5.346-62.977 32.135-78.755 48.526-145.252l-205.985-33.59z" fill="#e06e7e"/><path d="m126.359 391.919c3.982 22.306 23.401 38.535 46.06 38.535h67.854c-52.667-84.855-66.687-212.027-70.034-314.051l-109.003 17.775c16.391 66.497 43.18 82.276 48.526 145.252 2.443 28.786 9.35 71.893 16.597 112.489z" fill="#d7495d"/><path d="m421.03 74.221c-7.195 3.12-15.372 3.416-22.544.243-22.507-9.956-50.361-9.952-72.86.005-6.972 3.086-14.995 3.087-21.967.001-22.509-9.962-50.37-9.959-72.873-.001-6.972 3.086-14.995 3.087-21.968 0-12.167-5.385-25.896-7.831-39.499-7.395-18.564 17.981-18.564 52.506 1.605 67.103h302.278c4.236-17.183 7.78-37.745 10.078-63.395-20.163-5.987-43.077-4.874-62.25 3.439z" fill="#f3c7d1"/><g><path d="m83.802 378.681c0-18.332 11.431-50.292 25.532-50.292s25.532 31.96 25.532 50.292-11.431 33.193-25.532 33.193-25.532-14.861-25.532-33.193z" fill="#7fd29b"/><path d="m76.809 385.674c-18.332 0-50.292 11.431-50.292 25.532s31.96 25.532 50.292 25.532 33.193-11.431 33.193-25.532-14.861-25.532-33.193-25.532z" fill="#8ce0cd"/><path d="m101.636 403.508c-24.192 24.193-35.18 50.18-15.197 72.411 28.786 32.026 88 48.777 112.193 24.584s7.442-83.407-24.584-112.193c-22.233-19.982-48.22-8.995-72.412 15.198z" fill="#e06e7e"/></g><g fill="#f3e872"><path d="m165.767 475.139c-1.919 0-3.839-.732-5.304-2.196l-4.599-4.599c-2.929-2.93-2.929-7.678 0-10.608 2.93-2.928 7.678-2.928 10.607 0l4.599 4.599c2.929 2.93 2.929 7.678 0 10.607-1.464 1.464-3.384 2.197-5.303 2.197z"/><path d="m161.268 429.302c-1.919 0-3.839-.732-5.304-2.196l-5.523-5.523c-2.929-2.93-2.929-7.678 0-10.607 2.93-2.928 7.678-2.928 10.607 0l5.523 5.523c2.929 2.93 2.929 7.678 0 10.608-1.465 1.462-3.384 2.195-5.303 2.195z"/><path d="m119.93 470.64c-1.919 0-3.839-.732-5.304-2.196l-5.523-5.523c-2.929-2.93-2.929-7.678 0-10.607 2.93-2.928 7.678-2.928 10.607 0l5.523 5.523c2.929 2.93 2.929 7.678 0 10.607-1.464 1.463-3.384 2.196-5.303 2.196z"/></g><g><path d="m262.588 341.156c-7.047 0-12.759-5.713-12.759-12.759v-31.489h25.519v31.489c0 7.046-5.713 12.759-12.76 12.759z" fill="#fff"/><g><path d="m215.504 302.652c0 13.3-13.539 24.082-30.241 24.082s-30.241-10.782-30.241-24.082 13.539-24.083 30.241-24.083c16.702.001 30.241 10.783 30.241 24.083z" fill="#eda1ab"/><path d="m318.938 302.652c0 13.3 13.539 24.082 30.241 24.082s30.241-10.782 30.241-24.082-13.539-24.083-30.241-24.083c-16.702.001-30.241 10.783-30.241 24.083z" fill="#eda1ab"/><path d="m291.602 284.149c0-15.068-10.916-16.484-24.382-16.484-13.465 0-24.382 1.416-24.382 16.484s10.916 27.283 24.382 27.283 24.382-12.215 24.382-27.283z" fill="#565e75"/></g><path d="m315.363 280.089c0-17.759 14.397-32.156 32.156-32.156s32.156 14.396 32.156 32.156-14.397 11.552-32.156 11.552-32.156 6.207-32.156-11.552z" fill="#fff"/><path d="m219.078 280.089c0-17.759-14.397-32.156-32.156-32.156s-32.156 14.396-32.156 32.156 14.396 11.552 32.156 11.552 32.156 6.207 32.156-11.552z" fill="#fff"/><g fill="#565e75"><path d="m208.758 270.556c0-4.126-3.344-7.47-7.47-7.47s-7.47 3.344-7.47 7.47 3.344 7.47 7.47 7.47c4.125 0 7.47-3.344 7.47-7.47z"/><path d="m325.684 270.556c0-4.126 3.345-7.47 7.47-7.47 4.126 0 7.47 3.344 7.47 7.47s-3.344 7.47-7.47 7.47-7.47-3.344-7.47-7.47z"/></g></g><path d="m135.953 74.465c-7.17 3.172-15.343 2.877-22.536-.242-19.174-8.315-42.091-9.429-62.254-3.44 2.298 25.65 5.841 46.212 10.077 63.395h109.683c-1.057-23.723-1.483-46.353-1.605-67.103-11.559.371-23.028 2.817-33.365 7.39z" fill="#eda1ab"/></g></svg>