<svg id="Capa_1" enable-background="new 0 0 512 512" height="512" viewBox="0 0 512 512" width="512" xmlns="http://www.w3.org/2000/svg"><g><path d="m307.379 217.255 22.632 22.632c9.16 9.16 24.013 9.16 33.173 0l35.224-35.224c9.16-9.161 9.16-24.013 0-33.173l-22.632-22.632c-9.16-9.16-24.012-9.16-33.173 0l-35.225 35.224c-9.159 9.161-9.159 24.013.001 33.173z" fill="#7fd29b"/><path d="m81.446 310.774c-29.703 0-54.445-23.742-54.58-53.445-.093-20.273 11.054-37.943 27.565-47.157 4.599-2.566 7.019-7.744 6.374-12.971-4.263-34.547 26.01-64.342 60.575-59.506 4.527.633 9.006-1.18 11.766-4.824 9.803-12.939 25.331-21.3 42.816-21.3 17.22 0 32.542 8.11 42.367 20.715 2.476 3.177 6.302 5.033 10.328 4.951 29.806-.608 54.696 23.465 54.696 53.685v119.851h-201.907z" fill="#f9efcd"/><path d="m176.937 265.551c-17.783-3.104-16.916-48.076-4.771-59.378-17.328-7.338-17.332-33.487-6.381-46.876 2.093-2.559 2.348-6.227.48-8.954-7.564-11.036-7.027-30.191 4.524-38.502-15.352 1.47-28.82 9.385-37.643 21.031-2.76 3.644-7.239 5.458-11.766 4.824-34.565-4.836-64.839 24.959-60.575 59.506.645 5.227-1.774 10.404-6.374 12.971-16.511 9.214-27.658 26.884-27.565 47.157.136 29.703 24.877 53.445 54.58 53.445h92.667c-7.807-16.449-7.172-36.439 2.824-45.224z" fill="#f8debb"/><path d="m273.627 258.736h32.006c12.955 0 23.457-10.502 23.457-23.457v-49.815c0-12.955-10.502-23.457-23.457-23.457h-32.006c-12.955 0-23.457 10.502-23.457 23.457v49.815c0 12.955 10.502 23.457 23.457 23.457z" fill="#e06e7e"/><path d="m305.633 258.736c12.955 0 23.457-10.502 23.457-23.457v-33.032c-13.92 6.301-27.574 11.869-40.657 16.536-13.316-6.291-26.081-12.749-38.263-19.35v35.846c0 12.955 10.502 23.457 23.457 23.457z" fill="#d7495d"/><path d="m310.959 349.135c50.991-15.807 108.33-42.559 162.895-76.043 11.323-6.948 14.718-21.844 7.449-32.963l-31.746-48.565c-6.951-10.633-21.088-13.824-31.932-7.207-45.482 27.755-93.527 50.379-134.851 63.542-11.819 3.764-18.652 16.083-15.636 28.114l14.125 56.346c3.274 13.06 16.836 20.763 29.696 16.776z" fill="#d79882"/><path d="m305.937 304.266c-3.452 0-6.559-2.397-7.322-5.908-.88-4.048 1.689-8.043 5.735-8.923 32.876-7.147 72.435-23.755 98.439-41.325 3.433-2.317 8.094-1.416 10.414 2.016 2.318 3.433 1.416 8.095-2.016 10.414-27.435 18.536-69.089 36.039-103.65 43.554-.536.115-1.072.172-1.6.172z" fill="#deb597"/><path d="m302.325 341.241 21.183-53.991c4.653-11.86-.973-25.278-12.705-30.243-35.187-14.89-84.783-38.543-129.813-69.587-10.306-7.105-24.396-4.765-31.973 5.199l-35.123 46.191c-8.086 10.634-5.727 25.897 5.243 33.521 53.546 37.218 111.726 64.941 152.162 81.999 12.181 5.139 26.197-.781 31.026-13.089z" fill="#deb597"/><path d="m275.145 310.764c-1.053 0-2.122-.223-3.14-.693-23.63-10.914-63.309-33.968-88.452-51.39-3.405-2.359-4.252-7.032-1.893-10.437 2.361-3.403 7.033-4.251 10.436-1.893 24.554 17.014 63.222 39.489 86.198 50.102 3.761 1.736 5.401 6.193 3.664 9.953-1.266 2.742-3.979 4.358-6.813 4.358z" fill="#d79882"/><path d="m454.733 346.534-198.733-19.8-198.733 19.8 13.698 28.808c7.286 15.324 22.74 25.087 39.708 25.087h290.655c16.968 0 32.421-9.764 39.708-25.087z" fill="#a1dcfc"/><path d="m496.043 289.963h-329.94c-29.476 13.3-8.337 49.143 21.722 56.571h281.999c16.729 0 31.722-10.327 37.685-25.957l3.429-8.989c3.981-10.436-3.725-21.625-14.895-21.625z" fill="#b8e5ff"/><path d="m15.957 289.963c-11.17 0-18.877 11.189-14.895 21.625l3.43 8.989c5.963 15.63 20.956 25.957 37.685 25.957h145.648c-13.006-9.547-26.056-34.655-21.722-56.571z" fill="#a1dcfc"/><g><g fill="#f9efcd"><path d="m66.526 256.971c-1.919 0-3.839-.732-5.304-2.196l-2.176-2.176c-2.929-2.93-2.929-7.678 0-10.607 2.93-2.928 7.678-2.928 10.607 0l2.176 2.176c2.929 2.93 2.929 7.678 0 10.607-1.464 1.463-3.384 2.196-5.303 2.196z"/><path d="m91.178 220.686c-1.919 0-3.839-.732-5.304-2.196-2.929-2.93-2.929-7.678 0-10.607l3.469-3.469c2.93-2.928 7.678-2.928 10.607 0 2.929 2.93 2.929 7.678 0 10.607l-3.469 3.469c-1.464 1.464-3.384 2.196-5.303 2.196z"/><path d="m121.476 177.881h-4.107c-4.143 0-7.5-3.357-7.5-7.5s3.357-7.5 7.5-7.5h4.107c4.143 0 7.5 3.357 7.5 7.5 0 4.142-3.358 7.5-7.5 7.5z"/></g><path d="m183.876 158.888c-1.919 0-3.839-.732-5.304-2.196l-3.035-3.035c-2.929-2.93-2.929-7.678 0-10.607 2.93-2.928 7.678-2.928 10.607 0l3.035 3.035c2.929 2.93 2.929 7.678 0 10.607-1.464 1.463-3.384 2.196-5.303 2.196z" fill="#f8debb"/><path d="m220.418 177.881h-3.306c-4.143 0-7.5-3.357-7.5-7.5s3.357-7.5 7.5-7.5h3.306c4.143 0 7.5 3.357 7.5 7.5 0 4.142-3.358 7.5-7.5 7.5z" fill="#f8debb"/></g></g></svg>