<svg id="Capa_1" enable-background="new 0 0 512 512" height="512" viewBox="0 0 512 512" width="512" xmlns="http://www.w3.org/2000/svg"><g><path d="m348.123 166.332c-31.023-37.321-67.162-53.977-92.016-61.377-29.619-8.82-59.846-9.212-80.858-1.051-8.484 3.296-18.037-.91-21.333-9.396-3.296-8.485.911-18.036 9.396-21.332 55.807-21.682 149.37-1.049 210.162 72.084 5.819 7 4.862 17.392-2.139 23.211-6.999 5.818-17.393 4.863-23.212-2.139z" fill="#f8debb"/><path d="m282.933 79.416c-43.428-17.192-87.7-18.643-119.621-6.241-8.485 3.296-12.692 12.847-9.396 21.332 3.296 8.486 12.849 12.692 21.333 9.396 21.012-8.161 51.239-7.769 80.858 1.051 7.07 2.105 15.053 4.962 23.572 8.827-10.532-13.978-6.343-29.011 3.254-34.365z" fill="#f6c5a3"/><path d="m169.083 96.909c-8.478-3.314-12.665-12.874-9.35-21.353 28.197-72.124 172.332-10.667 227.383-28.035 8.682-2.736 17.94 2.079 20.678 10.761 2.738 8.681-2.079 17.94-10.761 20.678-26.534 8.371-62.996 3.809-101.599-1.019-45.241-5.659-96.519-12.074-104.999 9.619-3.311 8.469-12.873 12.667-21.352 9.349z" fill="#e06e7e"/><path d="m159.733 75.555c-3.314 8.479.872 18.039 9.35 21.353 8.479 3.319 18.042-.879 21.353-9.349 3.917-10.021 16.97-14.041 34.339-14.911-1.52-9.715-6.003-19.052-13.473-26.521l-4.504-4.504c-21.862 3.839-39.096 13.549-47.065 33.932z" fill="#d7495d"/><path d="m65.344 30.108 10.185 29.734c3.329 9.718-5.969 19.015-15.687 15.687l-29.734-10.185c-6.594-2.259-13.899-.566-18.828 4.363l-6.482 6.481c-6.398 6.398-6.398 16.77 0 23.168l405.207 405.207c9.916 9.916 25.994 9.916 35.91 0l58.647-58.647c9.916-9.916 9.916-25.994 0-35.91l-405.206-405.208c-6.398-6.398-16.77-6.398-23.168 0l-6.482 6.482c-4.929 4.929-6.621 12.234-4.362 18.828z" fill="#deb597"/><path d="m227.585 133.028-128.229-128.23c-6.398-6.398-16.77-6.398-23.168 0l-6.482 6.482c-4.929 4.929-6.621 12.234-4.363 18.828l10.185 29.734c3.329 9.718-5.969 19.016-15.687 15.687l-29.733-10.185c-6.594-2.259-13.899-.566-18.828 4.363l-6.482 6.482c-6.398 6.398-6.398 16.77 0 23.168l246.946 246.945c-25.517-62.765-31.866-144.031-24.159-213.274z" fill="#d79882"/><path d="m189.448 92.3-97.149 97.149c-6.716 6.716-17.604 6.716-24.319 0l-4.323-4.323c-6.716-6.716-6.716-17.604 0-24.32l97.149-97.149c6.716-6.716 17.604-6.716 24.32 0l4.323 4.323c6.715 6.716 6.715 17.604-.001 24.32z" fill="#e06e7e"/><path d="m291.317 194.168-97.149 97.149c-6.716 6.716-17.604 6.716-24.32 0l-4.323-4.323c-6.716-6.716-6.716-17.604 0-24.32l97.149-97.149c6.716-6.716 17.604-6.716 24.319 0l4.323 4.323c6.717 6.716 6.717 17.604.001 24.32z" fill="#f8debb"/><path d="m492.359 395.21-97.149 97.149c-6.716 6.716-17.604 6.716-24.319 0l-4.323-4.323c-6.716-6.716-6.716-17.604 0-24.32l97.149-97.149c6.716-6.716 17.604-6.716 24.32 0l4.323 4.323c6.715 6.717 6.715 17.605-.001 24.32z" fill="#e06e7e"/><g fill="#565e75"><circle cx="294.332" cy="294.332" r="22.552"/><circle cx="363.553" cy="363.553" r="22.552"/></g></g></svg>