<svg id="Capa_1" enable-background="new 0 0 512 512" height="512" viewBox="0 0 512 512" width="512" xmlns="http://www.w3.org/2000/svg"><g><path d="m484.332 223.901c28.372 28.372 31.968 70.775-3.518 106.26-49.611 49.611-135.591 76.39-157.362 54.619s5.008-107.751 54.619-157.362c35.487-35.485 77.89-31.888 106.261-3.517z" fill="#7fd29b"/><path d="m404.403 338.83c0-37.939-14.004-72.308-37.606-99.071-42.249 50.407-63.402 124.964-43.344 145.022 11.889 11.889 42.928 9.298 76.734-3.582 2.708-12.79 4.216-26.848 4.216-42.369z" fill="#5ec581"/><path d="m27.668 482.018c-28.372-28.372-31.968-70.774 3.517-106.26 49.611-49.611 135.591-76.39 157.362-54.619s-5.008 107.751-54.619 157.362c-35.486 35.486-77.889 31.889-106.26 3.517z" fill="#7fd29b"/><path d="m188.547 321.139c-17.257-17.258-74.858-4.005-122.71 26.94 2.653 66.384 33.818 104.69 67.032 131.438.352-.343.708-.666 1.059-1.017 49.611-49.61 76.39-135.59 54.619-157.361z" fill="#5ec581"/><path d="m235.028 247.442c-13.737 0-24.872-11.135-24.872-24.872 0-22.676 3.812-75.612-15.839-114.808-6.156-12.28-1.193-27.225 11.087-33.381 12.279-6.157 27.224-1.193 33.381 11.087 22.795 45.469 21.783 99.15 21.239 127.99-.067 3.552-.125 6.621-.125 9.113.001 13.736-11.135 24.871-24.871 24.871z" fill="#deb597"/><path d="m238.785 85.467c-6.157-12.279-21.102-17.244-33.381-11.087-12.28 6.156-17.243 21.101-11.087 33.381 6.714 13.391 10.686 28.386 13.01 43.231 17.072 4.672 34.286 8.424 51.478 11.24-2.184-24.425-7.517-51.827-20.02-76.765z" fill="#d79882"/><path d="m56.744 44.837c-11.025-8.193-13.321-23.773-5.128-34.799 8.194-11.024 23.771-13.322 34.798-5.127 97.172 72.211 210.584 88.698 278.179 80.885 13.642-1.593 25.986 8.204 27.565 21.849 1.578 13.645-8.204 25.987-21.85 27.564-94.828 10.976-217.961-19.329-313.564-90.372z" fill="#deb597"/><path d="m456.214 293.09c-4.628 0-16.679-1.525-26.981-3.482l23.533-23.533c2.929-2.93 2.929-7.678 0-10.607-2.929-2.928-7.678-2.928-10.606 0l-23.533 23.533c-1.958-10.302-3.482-22.353-3.482-26.981 0-4.143-3.358-7.5-7.5-7.5s-7.5 3.357-7.5 7.5c0 7.263 2.708 27.142 5.885 39.578l-36.464 36.463c-2.929 2.93-2.929 7.678 0 10.608 2.93 2.929 7.678 2.928 10.607 0l36.464-36.464c12.435 3.178 32.314 5.886 39.577 5.886 4.142 0 7.5-3.357 7.5-7.5 0-4.144-3.358-7.501-7.5-7.501z" fill="#5ec581"/><path d="m141.729 367.957c-2.929-2.927-7.678-2.929-10.606 0l-51.676 51.676c-8.069-2.062-18.908-3.821-26.687-4.802-4.109-.515-7.861 2.393-8.379 6.503-.519 4.109 2.393 7.861 6.502 8.38 5.441.686 11.02 1.576 15.964 2.52l-11.933 11.933c-2.929 2.93-2.929 7.678 0 10.607 2.929 2.928 7.677 2.929 10.606 0l11.935-11.934c1.106 5.82 2.079 12.217 2.712 17.54.492 4.131 4.243 7.054 8.333 6.562 4.113-.488 7.051-4.22 6.563-8.333-1.046-8.795-2.91-20.154-5.009-28.367l51.676-51.676c2.928-2.931 2.928-7.679-.001-10.609z" fill="#5ec581"/><path d="m212.879 504.304c13.005 10.261 31.292 10.261 44.297 0 44.791-35.342 121.472-60.959 121.472-165.474 0-74.672-64.301-130.232-143.621-130.232-79.319 0-143.621 55.559-143.621 130.232.001 104.515 76.682 130.132 121.473 165.474z" fill="#f3e872"/><ellipse cx="235.028" cy="303.459" fill="#deb597" rx="46.931" ry="46.931" transform="matrix(.987 -.163 .163 .987 -46.203 42.241)"/><ellipse cx="235.028" cy="303.459" fill="#deb597" rx="46.931" ry="46.931" transform="matrix(.987 -.163 .163 .987 -46.203 42.241)"/><g><g fill="#eda1ab"><ellipse cx="154.285" cy="408.746" rx="29.792" ry="23.725"/><ellipse cx="315.77" cy="408.746" rx="29.792" ry="23.725"/></g><g fill="#565e75"><path d="m185.829 390.43c-4.142 0-7.5-3.357-7.5-7.5 0-3.684-2.997-6.681-6.68-6.681-3.684 0-6.681 2.997-6.681 6.681 0 4.143-3.358 7.5-7.5 7.5s-7.5-3.357-7.5-7.5c0-11.955 9.726-21.681 21.681-21.681s21.68 9.726 21.68 21.681c0 4.142-3.358 7.5-7.5 7.5z"/><path d="m312.587 390.43c-4.142 0-7.5-3.357-7.5-7.5 0-3.684-2.997-6.681-6.681-6.681s-6.68 2.997-6.68 6.681c0 4.143-3.358 7.5-7.5 7.5s-7.5-3.357-7.5-7.5c0-11.955 9.725-21.681 21.68-21.681s21.681 9.726 21.681 21.681c0 4.142-3.358 7.5-7.5 7.5z"/><path d="m235.028 413.856c-7.933 0-15.477-3.435-20.697-9.426-2.721-3.123-2.396-7.86.727-10.582 3.122-2.721 7.86-2.396 10.581.727 2.371 2.721 5.793 4.281 9.388 4.281s7.017-1.56 9.387-4.28c2.722-3.124 7.458-3.448 10.582-.728 3.122 2.721 3.448 7.458.727 10.581-5.219 5.992-12.763 9.427-20.695 9.427z"/></g></g><path d="m270.456 334.219c-58.22 3.198-64.857-53.491-48.423-75.853-19.595 5.637-33.936 23.685-33.936 45.094 0 25.919 21.011 46.931 46.931 46.931 14.148-.001 26.824-6.27 35.428-16.172z" fill="#d79882"/></g></svg>