<svg id="Capa_1" enable-background="new 0 0 512 512" height="512" viewBox="0 0 512 512" width="512" xmlns="http://www.w3.org/2000/svg"><g><path d="m72.407 338.728v142.27c0 17.122 13.88 31.002 31.002 31.002h74.28l78.311-10.064 78.311 10.064h74.28c17.122 0 31.002-13.88 31.002-31.002v-142.27z" fill="#f9efcd"/><path d="m72.407 338.728h367.187v30.905h-367.187z" fill="#f8debb"/><path d="m71.027 251.546h367.187v66.358h-367.187z" fill="#f8debb"/><path d="m296.247 30.408h-20.252c-2.319 0-4.199-1.88-4.199-4.199v-18.171c0-4.439-3.599-8.038-8.038-8.038h-18.275c-4.439 0-8.038 3.599-8.038 8.038v18.172c0 2.319-1.88 4.199-4.199 4.199h-20.252c-4.439 0-8.038 3.599-8.038 8.038v18.275c0 4.439 3.599 8.038 8.038 8.038h20.252c2.319 0 4.199 1.88 4.199 4.199v62.658h34.352v-62.658c0-2.319 1.88-4.199 4.199-4.199h20.252c4.439 0 8.038-3.599 8.038-8.038v-18.275c-.001-4.44-3.6-8.039-8.039-8.039z" fill="#f8debb"/><path d="m438.214 251.546c0-81.338-82.198-147.276-183.593-147.276s-183.594 65.938-183.594 147.276z" fill="#a6aeba"/><path d="m418.225 184.654c-10.708 5.123-18.912 14.668-22.222 26.261-4.993-17.491-21.122-30.332-40.194-30.332h-22.655c-14.624 0-27.516 7.548-34.986 18.955-13.168-5.718-27.512-8.796-42.168-8.796s-29 3.077-42.168 8.795c-7.47-11.406-20.363-18.955-34.986-18.955h-22.655c-19.072 0-35.201 12.841-40.195 30.332-3.527-12.354-12.612-22.381-24.363-27.209-13.16 20.304-20.607 43.374-20.607 67.84h367.187c.001-24.085-7.209-46.819-19.988-66.891z" fill="#8c9aad"/><g><g fill="#fff"><ellipse cx="174.042" cy="188.832" rx="30.241" ry="24.082"/><ellipse cx="337.958" cy="188.832" rx="30.241" ry="24.082"/></g><g fill="#565e75"><path d="m191.666 173.149c-4.142 0-7.5-3.357-7.5-7.5v-12.362c0-4.143 3.358-7.5 7.5-7.5s7.5 3.357 7.5 7.5v12.362c0 4.143-3.357 7.5-7.5 7.5z"/><path d="m320.333 173.149c-4.143 0-7.5-3.357-7.5-7.5v-12.362c0-4.143 3.357-7.5 7.5-7.5s7.5 3.357 7.5 7.5v12.362c0 4.143-3.357 7.5-7.5 7.5z"/><path d="m256 180.509c-8.669 0-16.911-3.754-22.616-10.3-2.721-3.123-2.396-7.86.727-10.582 3.123-2.721 7.861-2.396 10.582.727 2.855 3.276 6.976 5.155 11.307 5.155s8.452-1.879 11.307-5.155c2.723-3.122 7.457-3.448 10.582-.727 3.122 2.722 3.448 7.459.727 10.582-5.705 6.546-13.948 10.3-22.616 10.3z"/></g></g><g fill="#f6c5a3"><path d="m75.802 208.397h-22.655c-7.719 0-13.977 6.258-13.977 13.977v74.495h50.608v-74.495c.001-7.719-6.257-13.977-13.976-13.977z"/><path d="m178.846 208.397h-22.655c-7.719 0-13.977 6.258-13.977 13.977v74.495h50.608v-74.495c.001-7.719-6.257-13.977-13.976-13.977z"/><path d="m436.198 208.397h22.655c7.719 0 13.977 6.258 13.977 13.977v74.495h-50.608v-74.495c-.001-7.719 6.257-13.977 13.976-13.977z"/><path d="m333.154 208.397h22.655c7.719 0 13.977 6.258 13.977 13.977v74.495h-50.608v-74.495c-.001-7.719 6.257-13.977 13.976-13.977z"/></g><path d="m453.247 338.728h-394.494c-10.815 0-19.582-8.767-19.582-19.582v-22.277h433.659v22.277c0 10.814-8.768 19.582-19.583 19.582z" fill="#f9efcd"/><path d="m334.311 296.868c0-43.25-35.061-78.311-78.311-78.311s-78.311 35.061-78.311 78.311v134.995l5.407 12.82-5.407 12.82v54.497h43.294l7.5-4.991 7.5 4.991h40.035l7.5-4.991 7.5 4.991h43.293v-54.497l-5.407-12.82 5.407-12.82z" fill="#a6aeba"/><path d="m334.311 310.403h-70.811v-91.48c-2.469-.235-4.969-.366-7.5-.366s-5.031.131-7.5.366v91.48h-70.811v15h70.811v91.488c0 4.143 3.358 7.5 7.5 7.5 4.143 0 7.5-3.357 7.5-7.5v-91.488h70.811z" fill="#565e75"/><g fill="#f9efcd"><path d="m220.982 457.503h15v54.497h-15z"/><path d="m276.018 457.503h15v54.497h-15z"/></g><path d="m334.311 457.503h-156.622v-25.64c0-14.327 11.615-25.942 25.942-25.942h104.739c14.327 0 25.942 11.615 25.942 25.942v25.64z" fill="#f8debb"/></g></svg>