<svg id="Capa_1" enable-background="new 0 0 512 512" height="512" viewBox="0 0 512 512" width="512" xmlns="http://www.w3.org/2000/svg"><g><path d="m423.511 479.76c-15.656-74.766-84.703-131.095-167.511-131.095s-151.855 56.329-167.511 131.095c-3.484 16.642 9.383 32.24 26.385 32.24h61.345l79.781-20.074 79.781 20.074h61.345c17.002 0 29.869-15.598 26.385-32.24z" fill="#e06e7e"/><path d="m381.933 401.642c-31.23-32.559-76.085-52.977-125.933-52.977s-94.703 20.418-125.933 52.977c37.657 19.117 80.575 27.521 125.933 27.521 45.352 0 88.272-8.402 125.933-27.521z" fill="#d7495d"/><path d="m339.9 418.067c-26.16 0-54.67-11.578-83.9-11.578-29.232 0-57.303 11.578-83.9 11.578 2.757 8.851 4.119 17.322 4.119 23.865v70.068h32.966l46.817-9.136 46.813 9.136h32.966c0-21.188 0-56.102 0-70.068 0-6.543 1.362-15.014 4.119-23.865z" fill="#8ce0cd"/><path d="m360.161 382.536c-28.832-21.236-64.951-33.871-104.161-33.871s-75.329 12.635-104.161 33.871c9.642 9.677 16.355 22.987 20.262 35.531 26.451 7.597 54.667 11.096 83.9 11.096 29.23 0 57.446-3.499 83.9-11.096 3.906-12.544 10.618-25.854 20.26-35.531z" fill="#7fd29b"/><path d="m256 411.293c-16.357 0-31.357 14.474-47.983 14.474.741 5.103 1.169 10.479 1.169 16.165v70.069h93.629s0-18.28 0-70.069c0-5.685.428-11.062 1.169-16.165-15.251 0-31.628-14.474-47.984-14.474z" fill="#f9efcd"/><path d="m347.697 359.07h-183.394c9.835 3.074 37.708 25.317 43.714 66.696 15.591 2.292 31.626 3.396 47.983 3.396 16.356 0 32.392-1.103 47.983-3.396 6.006-41.378 33.879-63.622 43.714-66.696z" fill="#f6c5a3"/><path d="m427.696 245.822c0-93.313-71.319-168.958-171.696-168.958-100.378 0-171.696 75.645-171.696 168.958s76.871 136.055 171.696 136.055 171.696-42.742 171.696-136.055z" fill="#f2d1a5"/><path d="m365.581 122.964v77.059c-13.886 2.027-73.888 4.021-103.082-9.594-4.131-1.927-8.867-1.927-12.997 0-29.194 13.616-89.196 11.622-103.082 9.594v-77.059z" fill="#565e75"/><path d="m146.419 173.893c34.542 4.158 71.128 6.252 109.581 6.252s75.038-2.094 109.581-6.252v-50.929h-219.162z" fill="#404656"/><path d="m84.941 261.973c30.832-11.068 99.369-67.735 115.197-142.998-33.994-1.581-72.681 4.466-72.681 4.466-11.858 15.812-54.697 75.21-42.516 138.532z" fill="#e06e7e"/><path d="m427.059 261.973c-30.832-11.068-99.369-67.735-115.197-142.998 33.994-1.581 72.681 4.466 72.681 4.466 11.858 15.812 54.697 75.21 42.516 138.532z" fill="#e06e7e"/><path d="m256 403.408c230.519 0 241.904-229.881 230.519-288.783l-34.895 13.463c.001 216.771-156.847 238.312-195.624 238.312s-195.625-21.541-195.625-238.311l-34.895-13.463c-11.384 58.901.001 288.782 230.52 288.782z" fill="#f3e872"/><g><g fill="#eda1ab"><ellipse cx="175.258" cy="281.165" rx="29.792" ry="23.725"/><ellipse cx="336.742" cy="281.165" rx="29.792" ry="23.725"/></g><g fill="#565e75"><path d="m206.801 262.848c-4.143 0-7.5-3.357-7.5-7.5 0-3.684-2.996-6.681-6.68-6.681s-6.681 2.997-6.681 6.681c0 4.143-3.357 7.5-7.5 7.5s-7.5-3.357-7.5-7.5c0-11.955 9.726-21.681 21.681-21.681 11.954 0 21.68 9.726 21.68 21.681 0 4.142-3.358 7.5-7.5 7.5z"/><path d="m333.56 262.848c-4.143 0-7.5-3.357-7.5-7.5 0-3.684-2.997-6.681-6.681-6.681s-6.68 2.997-6.68 6.681c0 4.143-3.357 7.5-7.5 7.5s-7.5-3.357-7.5-7.5c0-11.955 9.726-21.681 21.68-21.681 11.955 0 21.681 9.726 21.681 21.681 0 4.142-3.358 7.5-7.5 7.5z"/><path d="m256 286.274c-7.933 0-15.476-3.436-20.696-9.425-2.722-3.123-2.396-7.86.727-10.582 3.122-2.721 7.859-2.396 10.582.727 2.37 2.72 5.792 4.28 9.388 4.28s7.018-1.561 9.388-4.28c2.722-3.122 7.46-3.448 10.582-.727 3.123 2.722 3.448 7.459.727 10.582-5.222 5.99-12.765 9.425-20.698 9.425z"/></g></g><g><path d="m255.999 62.278c-9.839 0-17.814-7.975-17.814-17.814v-26.65c0-9.839 7.976-17.814 17.814-17.814 9.839 0 17.814 7.975 17.814 17.814v26.65c.001 9.839-7.975 17.814-17.814 17.814z" fill="#edcf76"/><path d="m165.113 63.392c-9.839 0-17.814-7.975-17.814-17.814v-26.65c0-9.839 7.975-17.814 17.814-17.814s17.814 7.975 17.814 17.814v26.65c0 9.838-7.975 17.814-17.814 17.814z" fill="#8ce0cd"/><path d="m74.227 63.392c-9.839 0-17.814-7.975-17.814-17.814v-26.65c0-9.839 7.975-17.814 17.814-17.814s17.814 7.975 17.814 17.814v26.65c0 9.838-7.975 17.814-17.814 17.814z" fill="#a1dcfc"/><path d="m346.887 63.392c-9.839 0-17.814-7.975-17.814-17.814v-26.65c0-9.839 7.975-17.814 17.814-17.814s17.814 7.975 17.814 17.814v26.65c0 9.838-7.975 17.814-17.814 17.814z" fill="#a1dcfc"/><path d="m437.773 63.392c-9.839 0-17.814-7.975-17.814-17.814v-26.65c0-9.839 7.975-17.814 17.814-17.814s17.814 7.975 17.814 17.814v26.65c.001 9.838-7.975 17.814-17.814 17.814z" fill="#8ce0cd"/></g><path d="m384.542 123.442s-38.686-6.048-72.681-4.466c4.409 20.965 12.911 40.485 23.546 57.981 26.381-2.197 51.67-5.529 75.802-9.98-9.971-20.816-21.388-36.497-26.667-43.535z" fill="#d7495d"/><path d="m176.592 176.956c10.635-17.496 19.137-37.016 23.546-57.981-33.994-1.581-72.681 4.466-72.681 4.466-5.279 7.039-16.696 22.72-26.667 43.535 24.132 4.451 49.421 7.784 75.802 9.98z" fill="#d7495d"/><path d="m256 43.351c32.878 0 168.593 2.537 227.053 1.098 11.383-.28 20.167 9.928 18.177 21.139l-7.677 43.262c-1.161 6.543-5.832 11.901-12.147 13.972-49.703 16.293-122.935 31.569-225.406 31.569s-175.702-15.276-225.407-31.569c-6.315-2.07-10.986-7.428-12.147-13.972l-7.677-43.262c-1.989-11.211 6.795-21.419 18.178-21.138 58.46 1.438 194.175-1.099 227.053-1.099z" fill="#e06e7e"/></g></svg>