<svg id="Capa_1" enable-background="new 0 0 512 512" height="512" viewBox="0 0 512 512" width="512" xmlns="http://www.w3.org/2000/svg"><g><path d="m373.862 258.041c-.483 0-.968-.016-1.457-.046-12.592-.793-22.156-11.642-21.364-24.233 4.312-68.519 22.279-133.882-4.156-163.554-14.496-16.271-45.074-24.522-90.885-24.522s-76.389 8.25-90.885 24.523c-26.435 29.672-8.468 95.032-4.156 163.554.792 12.59-8.773 23.44-21.364 24.233-12.56.768-23.441-8.772-24.233-21.364-4.666-74.195-27.078-148.862 15.64-196.812 24.202-27.167 63.921-39.82 124.998-39.82s100.796 12.653 124.998 39.819c42.736 47.971 20.297 122.771 15.64 196.812-.762 12.103-10.816 21.41-22.776 21.41z" fill="#b8e5ff"/><g fill="#a1dcfc"><path d="m364.106 189.423c-2.943.918-6.004 1.787-9.161 2.611-1.543 13.585-3.014 27.589-3.904 41.728-.792 12.591 8.772 23.44 21.364 24.233.488.03.974.046 1.457.046 11.96 0 22.014-9.308 22.776-21.41.941-14.961 2.608-29.953 4.317-44.748-11.054-5.163-24.04-6.457-36.849-2.46z"/><path d="m111.051 191.89c1.706 14.784 3.369 29.772 4.311 44.742.792 12.592 11.673 22.133 24.233 21.364 12.592-.793 22.156-11.642 21.364-24.233-.89-14.14-2.361-28.144-3.904-41.729-3.157-.824-6.218-1.693-9.161-2.611-12.333-3.848-25.433-2.851-36.843 2.467z"/></g><path d="m376.7 476.112c0-19.821 9.689-35.888 21.641-35.888 0-11.952 16.068-21.641 35.888-21.641s35.888 9.689 35.888 21.641c0 8.092-7.368 15.143-18.277 18.854-2.339.796-3.429 3.426-2.337 5.643 5.089 10.338 5.314 20.534-.408 26.256s-15.918 5.497-26.256.408c-2.217-1.091-4.847-.002-5.643 2.337-3.713 10.91-10.763 18.278-18.855 18.278-11.952 0-21.641-16.068-21.641-35.888z" fill="#8ce0cd"/><path d="m135.3 476.112c0-19.821-9.689-35.888-21.641-35.888 0-11.952-16.068-21.641-35.888-21.641s-35.888 9.689-35.888 21.641c0 8.092 7.368 15.143 18.278 18.854 2.339.796 3.429 3.426 2.337 5.643-5.089 10.338-5.314 20.534.408 26.256s15.918 5.497 26.256.408c2.217-1.091 4.847-.002 5.643 2.337 3.712 10.91 10.762 18.278 18.854 18.278 11.952 0 21.641-16.068 21.641-35.888z" fill="#8ce0cd"/><path d="m413.082 414.859c-12.128-16.539-17.859-39.786-4.218-66.194-2.945-38.991-6.616-80.508-9.331-112.159-1.107-12.905-13.86-21.437-26.225-17.58-29.191 9.106-70.176 14.869-117.309 14.869-31.33 0-59.938-2.549-84.177-6.931-51.593 69.898-66.498 221.201 98.998 250.952 42.619-1.263 93.189-7.753 123.663-18.131 11.732-3.996 19.521-15.157 19.22-27.547-.129-5.294-.34-11.086-.621-17.279z" fill="#e06e7e"/><path d="m171.823 226.865c-12.226-2.21-23.345-4.885-33.132-7.938-12.365-3.857-25.118 4.675-26.225 17.58-2.714 31.651-6.385 73.167-9.33 112.159 14.654 24.93 14.654 49.655-4.218 66.194-.281 6.192-.492 11.985-.621 17.28-.301 12.389 7.488 23.551 19.219 27.547 34.096 11.612 93.36 18.361 138.484 18.361 4.794 0 9.755-.081 14.821-.231-127.331-46.403-108.335-175.047-98.998-250.952z" fill="#d7495d"/><path d="m98.918 414.859h314.164c-.87-19.186-2.407-42.213-4.218-66.194h-305.728c-1.811 23.981-3.348 47.008-4.218 66.194z" fill="#f9efcd"/><path d="m167.51 348.665h-64.374c-1.811 23.981-3.348 47.008-4.218 66.194h90.96c-12.413-20.352-19.143-43.045-22.368-66.194z" fill="#f8debb"/><path d="m189.921 348.665c-8.069 0-15.461 2.891-21.204 7.689-4.81 21.499 1.196 44.637 21.161 58.504.015 0 .029.001.044.001 18.279 0 33.097-14.818 33.097-33.097-.001-18.279-14.819-33.097-33.098-33.097z" fill="#cfc2e7"/><path d="m189.877 414.858c-11.035-18.093-17.578-38.036-21.161-58.504-7.267 6.071-11.893 15.198-11.893 25.408.001 18.265 14.796 33.073 33.054 33.096z" fill="#aeabe0"/><circle cx="322.079" cy="381.762" fill="#cfc2e7" r="33.097"/><g><g fill="#eda1ab"><ellipse cx="169.913" cy="313.384" rx="31.765" ry="25.296"/><ellipse cx="342.087" cy="313.384" rx="31.765" ry="25.296"/></g><g fill="#565e75"><path d="m188.425 296.222c-4.143 0-7.5-3.357-7.5-7.5v-12.362c0-4.143 3.357-7.5 7.5-7.5s7.5 3.357 7.5 7.5v12.362c0 4.142-3.358 7.5-7.5 7.5z"/><path d="m256 304.263c-8.996 0-17.551-3.896-23.47-10.689-2.722-3.123-2.396-7.86.727-10.581 3.122-2.721 7.86-2.396 10.581.728 3.069 3.522 7.502 5.543 12.161 5.543s9.092-2.021 12.161-5.543c2.721-3.125 7.458-3.449 10.581-.728s3.449 7.458.728 10.581c-5.918 6.792-14.473 10.689-23.469 10.689z"/><path d="m340.287 295.877c-4.143 0-7.5-3.358-7.5-7.5 0-3.764-3.062-6.826-6.825-6.826-3.764 0-6.826 3.063-6.826 6.826 0 4.142-3.357 7.5-7.5 7.5s-7.5-3.358-7.5-7.5c0-12.035 9.791-21.826 21.826-21.826 12.034 0 21.825 9.791 21.825 21.826 0 4.143-3.357 7.5-7.5 7.5z"/></g></g></g></svg>