<svg id="Capa_1" enable-background="new 0 0 512 512" height="512" viewBox="0 0 512 512" width="512" xmlns="http://www.w3.org/2000/svg"><g><path d="m168.115 114.03c-2.089-15.772-38.154-59.516-91.395-67.969-7.495-1.19-13.609 5.996-11.199 13.193 1.466 4.379 2.95 7.775 4.882 11.374 1.146 2.135-.852 4.612-3.171 3.91-12.932-3.914-33.642-7.012-55.855-4.796-8.975.896-14.112 10.592-9.861 18.547 5.108 9.558 12.184 19.37 17.561 23.271 1.966 8.557 67.737 75.654 139.153 75.54z" fill="#565e75"/><path d="m62.777 152.697c25.598 17.786 59.822 34.461 95.453 34.404l9.886-73.071c-.973-7.343-9.317-20.75-23.325-33.836-32.269 17.437-59.893 42.354-82.014 72.503z" fill="#404656"/><path d="m158.229 187.101c-33.944-70.493-97.564-86.77-139.153-75.54-5.775 9.66-9.086 20.52-9.086 32.009 0 40.169 36.847 72.732 82.301 72.732 26.981-.001 50.929-11.475 65.938-29.201z" fill="#f8debb"/><path d="m343.885 114.03c2.089-15.772 38.154-59.516 91.395-67.969 7.495-1.19 13.609 5.996 11.199 13.193-1.466 4.379-2.95 7.775-4.882 11.374-1.146 2.135.852 4.612 3.171 3.91 12.932-3.915 33.642-7.013 55.855-4.796 8.975.896 14.112 10.591 9.861 18.546-5.107 9.558-12.183 19.37-17.561 23.271-1.966 8.557-67.737 75.654-139.153 75.54z" fill="#565e75"/><path d="m367.211 80.193c-14.008 13.086-22.353 26.493-23.325 33.836l9.885 73.071c35.631.057 69.855-16.617 95.453-34.403-22.121-30.148-49.745-55.066-82.013-72.504z" fill="#404656"/><path d="m353.771 187.101c33.944-70.493 97.564-86.77 139.153-75.54 5.775 9.66 9.086 20.52 9.086 32.009 0 40.169-36.848 72.732-82.301 72.732-26.981-.001-50.929-11.475-65.938-29.201z" fill="#f8debb"/><path d="m475.84 196.736c-14.515-29.478-33.352-55.869-55.971-77.767-25.127 11.548-49.263 33.169-66.098 68.131 15.009 17.727 38.957 29.2 65.937 29.2 21.702.001 41.428-7.434 56.132-19.564z" fill="#f6c5a3"/><path d="m36.159 196.736c14.704 12.13 34.431 19.565 56.133 19.565 26.98 0 50.928-11.473 65.937-29.2-16.835-34.963-40.972-56.583-66.098-68.131-22.618 21.896-41.457 48.287-55.972 77.766z" fill="#f6c5a3"/><path d="m69.352 199.818c-35.129 207.656 75.683 187.199 186.648 197.594 110.965-10.395 221.777 10.062 186.648-197.594-24.721-45.161-61.174-81.073-106.956-100.476-25.84 0-50.775 23.554-79.693 23.554-28.917 0-54.582-23.554-79.692-23.554-45.781 19.403-82.235 55.316-106.955 100.476z" fill="#f9efcd"/><g fill="#565e75"><path d="m256 447.8c121.626 0 236.54-24.929 220.224-144.094-5.124-37.423-16.579-72.838-33.576-103.888-8.568 23.89-4.352 64.429-12.187 104.99-9.44 48.872-97.566 34.71-102.953 65.836h-143.017c-5.387-31.125-93.513-16.963-102.953-65.836-7.835-40.561-3.619-81.1-12.187-104.99-16.997 31.05-28.452 66.465-33.576 103.888-16.315 119.166 98.599 144.094 220.225 144.094z"/><path d="m233.213 271.122c0-22.325 9.324-73.572-43.511-92.854-52.835-19.283-64.208 30.902-68.114 48.762s-10.716 57.074 22.214 62.655c32.929 5.581 57.598 21.064 72.109 12.692s17.302-31.255 17.302-31.255z"/><path d="m278.787 271.122c0-22.325-9.324-73.572 43.511-92.854 52.835-19.283 64.207 30.902 68.114 48.762s10.716 57.074-22.214 62.655c-32.929 5.581-57.598 21.064-72.109 12.692s-17.302-31.255-17.302-31.255z"/></g><path d="m256 466.069c76.718 0 96.905-24.958 90.318-68.077s-46.063-142.345-90.318-142.345-83.73 99.227-90.318 142.346 13.6 68.076 90.318 68.076z" fill="#f8debb"/><g><g fill="#eda1ab"><ellipse cx="173.557" cy="254.436" rx="24.225" ry="30.42" transform="matrix(.002 -1 1 .002 -81.259 427.435)"/><ellipse cx="338.443" cy="254.797" rx="24.225" ry="30.42" transform="matrix(.002 -1 1 .002 82.904 592.68)"/></g><path d="m191.578 243.893c-4.142 0-7.5-3.357-7.5-7.5v-12.363c0-4.143 3.358-7.5 7.5-7.5s7.5 3.357 7.5 7.5v12.362c0 4.143-3.358 7.501-7.5 7.501z" fill="#fff"/><path d="m320.245 243.893c-4.142 0-7.5-3.357-7.5-7.5v-12.363c0-4.143 3.358-7.5 7.5-7.5s7.5 3.357 7.5 7.5v12.362c0 4.143-3.358 7.501-7.5 7.501z" fill="#fff"/><g fill="#565e75"><path d="m285.882 385.082c-4.142 0-7.5 3.358-7.5 7.5 0 4.076-3.316 7.393-7.392 7.393s-7.392-3.316-7.392-7.393v-49.639c0-4.143-3.358-7.5-7.5-7.5s-7.5 3.357-7.5 7.5v49.639c0 4.076-3.316 7.393-7.392 7.393s-7.392-3.316-7.392-7.393c0-4.142-3.358-7.5-7.5-7.5s-7.5 3.358-7.5 7.5c0 12.348 10.045 22.393 22.392 22.393 5.712 0 10.932-2.15 14.892-5.684 3.96 3.533 9.18 5.684 14.892 5.684 12.347 0 22.392-10.045 22.392-22.393 0-4.142-3.358-7.5-7.5-7.5z"/><path d="m275.087 334.514c0-6.945-8.546-9.509-19.087-9.509s-19.087 2.564-19.087 9.509 8.546 15.641 19.087 15.641c10.542 0 19.087-8.696 19.087-15.641z"/></g></g><path d="m256 83.482c-28.917 0-55.595 5.647-79.693 15.86 21.462 31.729 56.535 62.969 79.693 62.969s58.231-31.239 79.693-62.968c-24.098-10.214-50.776-15.861-79.693-15.861z" fill="#565e75"/></g></svg>