<svg id="Capa_1" enable-background="new 0 0 512 512" height="512" viewBox="0 0 512 512" width="512" xmlns="http://www.w3.org/2000/svg"><g><path d="m169.47 504.308c-10.257-10.257-10.257-26.885-.001-37.142l13.636-13.637c1.13-1.13 1.777-2.692 1.777-4.287v-46.386c0-14.505 11.758-26.264 26.264-26.264 14.505 0 26.263 11.758 26.263 26.264v46.386c0 15.65-6.095 30.363-17.162 41.429l-13.635 13.636c-10.257 10.256-26.886 10.258-37.142.001z" fill="#404656"/><path d="m342.53 504.308c10.257-10.257 10.257-26.885.001-37.142l-13.636-13.637c-1.13-1.13-1.777-2.692-1.777-4.287v-46.386c0-14.505-11.758-26.264-26.263-26.264s-26.264 11.758-26.264 26.264v46.386c0 15.65 6.095 30.363 17.162 41.429l13.635 13.636c10.257 10.256 26.885 10.258 37.142.001z" fill="#404656"/><path d="m178.071 310.539c-29.459 29.459-89.212 76.298-123.13 61.373-29.818-13.12-11.193-83.78 35.276-130.249 29.459-29.459 76.414-49.245 99.462-26.197s17.851 65.614-11.608 95.073z" fill="#565e75"/><path d="m333.928 310.539c29.459 29.459 89.212 76.298 123.13 61.373 29.818-13.12 11.193-83.78-35.276-130.249-29.459-29.459-76.414-49.245-99.462-26.197-23.047 23.048-17.85 65.614 11.608 95.073z" fill="#565e75"/><path d="m390.094 253.206c-3.506-10.987-1.543-22.944 5.217-32.392-26.297-16.11-56.078-22.26-72.989-5.348-23.048 23.048-17.852 65.614 11.607 95.072 17.329 17.329 45.142 40.669 72.013 53.916-.305-41.784-5.622-79.204-15.848-111.248z" fill="#404656"/><path d="m116.69 220.815c6.76 9.447 8.723 21.404 5.217 32.392-10.226 32.044-15.543 69.464-15.847 111.248 26.87-13.247 54.683-36.586 72.012-53.916 29.459-29.459 34.655-72.024 11.607-95.072-16.911-16.912-46.692-10.762-72.989 5.348z" fill="#404656"/><path d="m166.83 31.148c-6.65 18.671-14.125 31.655-40.138 53.81-5.98 14.837-9.267 30.957-9.267 47.815 0 21.642 5.184 40.373 14.512 56.037 16.527 14.98 36.13 29.65 36.13 41.843s-6.291 23.021-19.637 41.843c-4.537 16.549-7.837 35.03-9.707 55.415 24.349 24.349 73.62 46.864 117.277 46.864s92.928-22.515 117.277-46.864c-1.87-20.385-5.171-38.866-9.707-55.415-13.346-18.822-19.638-29.65-19.638-41.843s19.604-26.863 36.13-41.843c9.328-15.664 14.512-34.395 14.512-56.037 0-16.858-3.287-32.979-9.267-47.815-26.012-22.155-33.488-35.139-40.138-53.81-24.1-19.433-55.204-31.148-89.169-31.148s-65.07 11.715-89.17 31.148z" fill="#565e75"/><g><g fill="#eda1ab"><ellipse cx="174.042" cy="150.378" rx="30.241" ry="24.082"/><ellipse cx="337.958" cy="150.378" rx="30.241" ry="24.082"/></g><path d="m191.666 134.695c-4.142 0-7.5-3.357-7.5-7.5v-12.361c0-4.143 3.358-7.5 7.5-7.5s7.5 3.357 7.5 7.5v12.361c0 4.143-3.357 7.5-7.5 7.5z" fill="#fff"/><path d="m320.333 134.695c-4.142 0-7.5-3.357-7.5-7.5v-12.361c0-4.143 3.358-7.5 7.5-7.5s7.5 3.357 7.5 7.5v12.361c0 4.143-3.357 7.5-7.5 7.5z" fill="#fff"/><path d="m284.539 132.224c0-13.732-12.777-24.863-28.539-24.863s-28.539 11.132-28.539 24.863 12.777 45.227 28.539 45.227 28.539-31.496 28.539-45.227z" fill="#404656"/></g><g fill="#f9efcd"><path d="m126.692 84.958c20.774-9.998 51.623-7.461 76.868-1.14 6.723 1.683 12.308-5.163 9.381-11.445-10.262-22.027-27.842-34.71-46.111-41.224-17.72 14.288-31.649 32.75-40.138 53.809z"/><path d="m345.17 31.148c-18.269 6.514-35.849 19.197-46.111 41.224-2.927 6.282 2.658 13.129 9.381 11.445 25.245-6.32 56.094-8.858 76.868 1.14-8.489-21.058-22.418-39.52-40.138-53.809z"/><path d="m380.063 188.811c-42.885 25.238-103.1 24.231-124.063 24.231s-81.177 1.006-124.063-24.231c2.304 3.869 4.85 7.558 7.646 11.049 14.158 17.682 18.652 41.162 11.766 62.742-1.026 3.214-1.994 6.521-2.919 9.895 30.233-14.764 67.275-22.289 107.57-22.289s77.337 7.525 107.57 22.289c-.925-3.374-1.893-6.681-2.919-9.895-6.887-21.58-2.392-45.06 11.766-62.742 2.795-3.492 5.342-7.18 7.646-11.049z"/><path d="m138.723 327.911c-1.166 12.708-1.788 26.14-1.788 40.328 0 54.255 29.312 83.054 119.065 83.054s119.065-28.799 119.065-83.054c0-14.188-.622-27.62-1.788-40.328-27.259-23.804-73.62-43.008-117.277-43.008s-90.018 19.204-117.277 43.008z"/></g></g></svg>