<svg id="Capa_1" enable-background="new 0 0 512 512" height="512" viewBox="0 0 512 512" width="512" xmlns="http://www.w3.org/2000/svg"><g><path d="m376.539 286.048h-241.078c-4.142 0-7.5-3.357-7.5-7.5s3.358-7.5 7.5-7.5h241.078c4.143 0 7.5 3.357 7.5 7.5 0 4.142-3.357 7.5-7.5 7.5z" fill="#f8debb"/><path d="m135.461 311.13h241.077v181.29h-241.077z" fill="#f8debb"/><path d="m256 229.702c-4.142 0-7.5-3.357-7.5-7.5v-27.099c0-4.143 3.358-7.5 7.5-7.5 4.143 0 7.5 3.357 7.5 7.5v27.099c0 4.143-3.357 7.5-7.5 7.5z" fill="#deb597"/><path d="m268.139 222.202h-24.278c-6.501 0-11.772 5.27-11.772 11.772v35.142h47.822v-35.142c0-6.501-5.271-11.772-11.772-11.772z" fill="#f8debb"/><path d="m327.233 311.13c0-32.595-31.892-59.019-71.233-59.019s-71.233 26.424-71.233 59.019v181.29h142.466z" fill="#f9efcd"/><path d="m287.047 411.886c0-15.735-13.9-28.49-31.047-28.49s-31.047 12.756-31.047 28.49v80.534h62.094z" fill="#8c9aad"/><g fill="#deb597"><path d="m256 331.73c-4.142 0-7.5-3.358-7.5-7.5v-24.675c0-4.143 3.358-7.5 7.5-7.5 4.143 0 7.5 3.357 7.5 7.5v24.675c0 4.143-3.357 7.5-7.5 7.5z"/><path d="m219.179 343.306c-4.142 0-7.5-3.358-7.5-7.5v-16.206c0-4.143 3.358-7.5 7.5-7.5s7.5 3.357 7.5 7.5v16.205c0 4.143-3.358 7.501-7.5 7.501z"/><path d="m292.821 343.306c-4.143 0-7.5-3.358-7.5-7.5v-16.206c0-4.143 3.357-7.5 7.5-7.5s7.5 3.357 7.5 7.5v16.205c0 4.143-3.357 7.501-7.5 7.501z"/></g><path d="m97.487 39.189h-11.839v-12.109c0-4.143-3.358-7.5-7.5-7.5s-7.5 3.357-7.5 7.5v12.109h-11.838c-4.142 0-7.5 3.357-7.5 7.5s3.358 7.5 7.5 7.5h11.838v32.483c0 4.143 3.358 7.5 7.5 7.5s7.5-3.357 7.5-7.5v-32.483h11.839c4.142 0 7.5-3.357 7.5-7.5 0-4.142-3.358-7.5-7.5-7.5z" fill="#f8debb"/><path d="m135.461 212.224s0-30.369 0-41.848-26.743-27.263-28.656-52.613-17.229-31.09-28.656-31.09-26.743 5.74-28.656 31.09-28.656 41.134-28.656 52.613 0 41.848 0 41.848z" fill="#a6aeba"/><path d="m70.34 87.626c-9.632 2.461-19.349 10.285-20.848 30.137-1.913 25.35-28.656 41.134-28.656 52.613s0 41.849 0 41.849h71.444c-22.093-28.145-30.413-71.592-21.94-124.599z" fill="#8c9aad"/><path d="m20.836 240.23h114.626v207.597h-114.626z" fill="#f9efcd"/><path d="m20.836 240.23h114.626v25.755h-114.626z" fill="#f8debb"/><path d="m138.907 200.537h-121.517c-8.429 0-15.261 6.833-15.261 15.261v9.171c0 8.429 6.833 15.261 15.261 15.261h121.518c8.429 0 15.261-6.833 15.261-15.261v-9.171c0-8.429-6.833-15.261-15.262-15.261z" fill="#f6c5a3"/><path d="m112.068 138.615h-67.84c-4.142 0-7.5-3.357-7.5-7.5 0-4.142 3.358-7.5 7.5-7.5h67.84c4.142 0 7.5 3.358 7.5 7.5 0 4.143-3.358 7.5-7.5 7.5z" fill="#f8debb"/><path d="m78.148 330.062c-4.142 0-7.5-3.357-7.5-7.5v-28.157c0-4.143 3.358-7.5 7.5-7.5s7.5 3.357 7.5 7.5v28.157c0 4.143-3.358 7.5-7.5 7.5z" fill="#8c9aad"/><path d="m17.985 447.828h117.477v44.592h-121.832c-7.528 0-13.63-6.102-13.63-13.63v-12.977c0-9.933 8.052-17.985 17.985-17.985z" fill="#deb597"/><path d="m135.461 383.429h-114.625c-4.142 0-7.5-3.357-7.5-7.5s3.358-7.5 7.5-7.5h114.625c4.142 0 7.5 3.357 7.5 7.5 0 4.142-3.358 7.5-7.5 7.5z" fill="#f6c5a3"/><path d="m453.19 39.189h-11.839v-12.109c0-4.143-3.357-7.5-7.5-7.5s-7.5 3.357-7.5 7.5v12.109h-11.839c-4.143 0-7.5 3.357-7.5 7.5s3.357 7.5 7.5 7.5h11.839v32.483c0 4.143 3.357 7.5 7.5 7.5s7.5-3.357 7.5-7.5v-32.483h11.839c4.143 0 7.5-3.357 7.5-7.5 0-4.142-3.357-7.5-7.5-7.5z" fill="#f8debb"/><path d="m376.539 212.224s0-30.369 0-41.848 26.743-27.263 28.656-52.613 17.229-31.09 28.656-31.09 26.743 5.74 28.656 31.09 28.656 41.134 28.656 52.613 0 41.848 0 41.848z" fill="#a6aeba"/><path d="m426.043 87.626c-9.632 2.461-19.349 10.285-20.848 30.137-1.913 25.35-28.656 41.134-28.656 52.613s0 41.849 0 41.849h71.445c-22.094-28.145-30.414-71.592-21.941-124.599z" fill="#8c9aad"/><path d="m376.539 240.23h114.626v207.597h-114.626z" fill="#f9efcd" transform="matrix(-1 0 0 -1 867.703 688.058)"/><path d="m376.539 240.23h114.626v25.755h-114.626z" fill="#f8debb"/><path d="m373.092 200.537h121.518c8.429 0 15.261 6.833 15.261 15.261v9.171c0 8.429-6.833 15.261-15.261 15.261h-121.518c-8.429 0-15.261-6.833-15.261-15.261v-9.171c0-8.429 6.833-15.261 15.261-15.261z" fill="#f6c5a3"/><path d="m467.772 138.615h-67.84c-4.143 0-7.5-3.357-7.5-7.5 0-4.142 3.357-7.5 7.5-7.5h67.84c4.143 0 7.5 3.358 7.5 7.5 0 4.143-3.358 7.5-7.5 7.5z" fill="#f8debb"/><path d="m433.852 330.062c-4.143 0-7.5-3.357-7.5-7.5v-28.157c0-4.143 3.357-7.5 7.5-7.5s7.5 3.357 7.5 7.5v28.157c0 4.143-3.358 7.5-7.5 7.5z" fill="#8c9aad"/><path d="m494.015 447.828h-117.476v44.592h121.831c7.527 0 13.63-6.102 13.63-13.63v-12.977c0-9.933-8.052-17.985-17.985-17.985z" fill="#deb597"/><path d="m491.164 383.429h-114.625c-4.143 0-7.5-3.357-7.5-7.5s3.357-7.5 7.5-7.5h114.625c4.143 0 7.5 3.357 7.5 7.5 0 4.142-3.357 7.5-7.5 7.5z" fill="#f6c5a3"/></g></svg>