<svg id="Capa_1" enable-background="new 0 0 512 512" height="512" viewBox="0 0 512 512" width="512" xmlns="http://www.w3.org/2000/svg"><g><path d="m393.967 220.745c5.963-49.195 26.825-104.762 71.827-134.741 2.674-2.248 5.688-4.126 9.018-5.484.903-10.077 1.603-20.98 2.064-32.826.727-18.688-14.186-34.268-32.889-34.268h-347.942c-18.702 0-33.615 15.58-32.889 34.268.46 11.846 1.161 22.748 2.064 32.826 51.269 28.254 74.497 87.852 80.845 140.225 6.348 52.372.865 111.154-9.568 164.172 4.207 23.566 8.534 46.241 12.084 64.354 4.496 22.938 24.598 39.466 47.972 39.466h146.926c23.374 0 43.476-16.529 47.972-39.466 3.55-18.113 7.878-40.788 12.084-64.354-10.432-53.019-15.916-111.8-9.568-164.172z" fill="#f9efcd"/><path d="m177.531 13.426h-81.486c-18.702 0-33.615 15.58-32.889 34.268.46 11.846 1.161 22.748 2.064 32.826 51.268 28.254 74.497 87.852 80.845 140.224s.865 111.154-9.568 164.172c4.207 23.566 8.534 46.241 12.084 64.354 4.496 22.938 24.598 39.466 47.972 39.466h115.511c-142.509-79.701-135.535-363.11-134.533-475.31z" fill="#f8debb"/><path d="m74.768 140.611c15.536 63.031 40.929 77.987 45.996 137.681 2.316 27.284 8.863 68.145 15.732 106.625 3.774 21.143 22.182 36.527 43.659 36.527h179.721c21.477 0 39.885-15.384 43.659-36.527 6.869-38.48 13.416-79.341 15.732-106.625 5.068-59.694 30.46-74.65 45.996-137.681l-195.248-31.839z" fill="#cfc2e7"/><path d="m136.497 384.917c3.774 21.143 22.182 36.527 43.659 36.527h64.317c-49.922-80.432-63.211-200.976-66.383-297.682l-103.322 16.849c15.536 63.031 40.929 77.987 45.996 137.681 2.316 27.285 8.863 68.145 15.733 106.625z" fill="#aeabe0"/><g><g><path d="m216.149 248.074c.007 13.843-14.079 25.072-31.463 25.081-17.383.009-31.481-11.206-31.488-25.049s14.079-25.073 31.463-25.081c17.383-.01 31.481 11.205 31.488 25.049z" fill="#fff"/><path d="m323.805 248.02c.007 13.843 14.105 25.058 31.488 25.049s31.47-11.238 31.463-25.081-14.105-25.059-31.488-25.05-31.47 11.238-31.463 25.082z" fill="#fff"/><path d="m300.824 236.699c-.01-19.068-13.824-20.852-30.864-20.844s-30.852 1.807-30.843 20.875c.01 19.067 13.831 34.518 30.871 34.509 17.04-.008 30.846-15.472 30.836-34.54z" fill="#565e75"/></g><g fill="#565e75"><path d="m188.021 228.313c-4.141 0-7.498-3.356-7.5-7.496-.003-6.006 2.333-11.652 6.577-15.9 4.244-4.249 9.889-6.59 15.894-6.593h.014c12.39 0 22.473 10.076 22.479 22.469.003 4.143-3.354 7.502-7.495 7.505-.002 0-.004 0-.005 0-4.141 0-7.497-3.354-7.5-7.495-.002-4.125-3.357-7.479-7.48-7.479-.001 0-.003 0-.004 0-2 .001-3.878.78-5.291 2.194-1.412 1.413-2.19 3.293-2.189 5.291.002 4.143-3.355 7.502-7.496 7.504-.001 0-.003 0-.004 0z"/><path d="m321.941 228.245c-4.141 0-7.498-3.355-7.5-7.496-.006-12.397 10.074-22.487 22.47-22.493h.014c6 0 11.642 2.335 15.887 6.576 4.249 4.244 6.59 9.889 6.593 15.894.002 4.143-3.354 7.502-7.496 7.504-.001 0-.003 0-.004 0-4.141 0-7.498-3.355-7.5-7.496-.001-1.999-.78-3.877-2.193-5.289-1.413-1.411-3.29-2.188-5.287-2.188-.001 0-.003 0-.004 0-4.126.002-7.48 3.36-7.478 7.485.002 4.143-3.354 7.502-7.496 7.504-.003-.001-.005-.001-.006-.001z"/></g></g><path d="m465.26 140.611c4.016-16.287 7.375-35.778 9.552-60.091-19.111-5.676-40.831-4.621-59.005 3.259-6.82 2.957-14.57 3.238-21.369.23-21.333-9.437-47.736-9.433-69.062.005-6.609 2.925-14.214 2.925-20.823.001-21.336-9.443-47.745-9.44-69.075-.001-6.609 2.925-14.214 2.925-20.823 0-21.333-9.442-47.738-9.44-69.067-.004-6.796 3.007-14.543 2.727-21.361-.23-18.175-7.882-39.897-8.937-59.009-3.261 2.178 24.313 5.537 43.803 9.552 60.091h390.49z" fill="#f3c7d1"/><path d="m145.59 84.01c-6.796 3.007-14.543 2.727-21.361-.23-18.175-7.882-39.897-8.937-59.009-3.261 2.178 24.313 5.537 43.803 9.552 60.091h103.966c-1.002-22.486-1.406-43.936-1.521-63.606-10.957.353-21.828 2.672-31.627 7.006z" fill="#eda1ab"/><path d="m166.518 430.781c15.276-10.711 16.395-30.631 2.428-42.557-1.814-1.549-2.05-4.299-.371-5.994 11.699-11.812 10.278-29.638-3.203-39.98-1.873-1.437-2.056-4.191-.473-5.942 12.139-13.42 7.88-33.1-8.845-41.985-2.18-1.158-2.944-3.904-1.552-5.943 2.909-4.262 4.577-9.221 4.577-14.516 0-16.597-16.234-29.538-35.163-28.755-1.899.078-3.561-1.213-4.113-3.032-3.503-11.544-15.796-20.072-30.433-20.072-14.7 0-27.035 8.601-30.477 20.219-.532 1.797-2.213 2.96-4.086 2.883-19.018-.784-35.145 12.256-35.145 28.757 0 5.294 1.668 10.254 4.577 14.515 1.392 2.039.628 4.785-1.552 5.943-16.749 8.894-20.966 28.58-8.845 41.985 1.583 1.751 1.4 4.505-.473 5.942-13.488 10.346-14.898 28.171-3.203 39.98 1.679 1.695 1.443 4.445-.371 5.994-13.995 11.943-12.82 31.861 2.428 42.558 1.974 1.385 2.433 4.127.89 5.98-3.918 4.708-6.225 10.468-6.225 16.691 0 18.631 20.173 32.023 40.76 28.128 1.545-.292 3.157.273 4.08 1.546 6.626 9.126 20.99 15.447 37.642 15.447s31.016-6.321 37.642-15.447c.929-1.279 2.55-1.834 4.103-1.541 20.648 3.897 40.737-9.584 40.737-28.133 0-6.223-2.307-11.983-6.224-16.691-1.543-1.853-1.085-4.595.89-5.98z" fill="#cfc2e7"/><g><g fill="#aeabe0"><path d="m96.053 448.314c-4.142 0-7.5-3.357-7.5-7.5s3.358-7.5 7.5-7.5c2.288 0 21.2-1.689 28.489-2.675 4.114-.556 7.883 2.322 8.438 6.427s-2.322 7.883-6.427 8.439c-6.79.917-26.781 2.809-30.5 2.809z"/><path d="m89.369 324.398c-4.338 0-9.204.214-14.077.582-1.499-5.494-2.154-13.097-.169-18.894 1.342-3.919-.747-8.184-4.666-9.525-3.914-1.34-8.184.747-9.525 4.666-2.737 7.993-2.509 17.459-.704 25.401-4.594.679-8.553 1.464-11.233 2.284-3.961 1.211-6.19 5.404-4.979 9.365 1.213 3.969 5.413 6.189 9.365 4.979 1.504-.46 3.753-.939 6.484-1.397-1.334 8.05-1.194 17.568 1.488 26.198 1.237 3.98 5.458 6.159 9.388 4.937 3.956-1.229 6.166-5.433 4.937-9.388-2.578-8.296-1.739-17.686-.053-23.614 4.639-.367 9.4-.593 13.744-.593 4.143 0 7.5-3.357 7.5-7.5s-3.357-7.501-7.5-7.501z"/><path d="m113.741 405.808c-.581 0-1.17-.068-1.76-.21-4.027-.969-6.507-5.019-5.538-9.046 1.757-7.306 1.993-18.454.495-23.39-1.203-3.964 1.035-8.152 4.998-9.355 3.963-1.205 8.152 1.034 9.355 4.998 2.533 8.345 1.854 22.444-.265 31.255-.826 3.437-3.898 5.748-7.285 5.748z"/></g></g><path d="m486.612 388.55c-24.078 24.078-51.855 26.656-69.925 24.979-12.272-1.139-22.037-10.903-23.175-23.176-1.676-18.069.901-45.846 24.979-69.925 24.078-24.078 51.855-26.656 69.925-24.979 12.272 1.138 22.037 10.903 23.176 23.176 1.675 18.07-.902 45.847-24.98 69.925z" fill="#7fd29b"/><path d="m403.422 340.368c-10.075 18.358-11.137 36.769-9.911 49.986 1.139 12.272 10.903 22.037 23.176 23.176 14.648 1.359 35.675-.081 55.94-13.5-9.632-32.122-36.127-55.051-69.205-59.662z" fill="#5ec581"/><path d="m436.567 377.974c-1.919 0-3.839-.732-5.304-2.196-2.929-2.93-2.929-7.678 0-10.607l31.968-31.968c2.93-2.928 7.678-2.928 10.608 0 2.929 2.93 2.929 7.678 0 10.608l-31.968 31.968c-1.465 1.462-3.385 2.195-5.304 2.195z" fill="#5ec581"/><path d="m450.794 427.245c0 36.801-26.753 66.635-59.755 66.635s-59.755-29.833-59.755-66.635c0-36.801 26.753-61.99 59.755-61.99s59.755 25.188 59.755 61.99z" fill="#8ce0cd"/></g></svg>