<svg id="Capa_1" enable-background="new 0 0 512 512" height="512" viewBox="0 0 512 512" width="512" xmlns="http://www.w3.org/2000/svg"><g><path d="m113.353 380.81c-24.524 27.364-50.338 79.362-20.196 88.674 35.738 11.041 87.964 6.81 98.826-16.59s19.466-95.432 19.466-95.432z" fill="#404656"/><path d="m431.253 326.821c-16.504 38.434-72.185 119.57-137.971 94.964-35.281-13.196-25.793-122.643 31.05-178.238 28.755-28.124 57.299-37.495 90.417-19.548 36.072 19.549 34.472 60.978 16.504 102.822z" fill="#404656"/><path d="m195.86 502.321c-24.187-35.753-22.212-50.679-12.938-88.575 1.826-7.462 3.895-15.921 6.102-26.152 2.563-11.884 14.27-19.436 26.157-16.876 11.883 2.563 19.439 14.274 16.876 26.157-2.335 10.825-4.482 19.596-6.376 27.335-7.693 31.44-7.84 32.041 6.641 53.445 6.812 10.069 4.171 23.753-5.898 30.565-10.046 6.795-23.737 4.193-30.564-5.899z" fill="#f8debb"/><path d="m284.087 485.164c-24.187-35.753-22.212-50.679-12.938-88.575 1.826-7.462 3.895-15.921 6.102-26.152 2.563-11.884 14.27-19.436 26.157-16.876 11.883 2.563 19.439 14.274 16.876 26.157-2.335 10.825-4.482 19.596-6.376 27.335-7.693 31.44-7.84 32.041 6.641 53.445 6.811 10.069 4.171 23.753-5.898 30.565-10.046 6.795-23.737 4.193-30.564-5.899z" fill="#f8debb"/><path d="m313.909 407.052c1.894-7.738 4.041-16.51 6.376-27.335 2.563-11.883-4.993-23.595-16.876-26.157-11.887-2.56-23.594 4.992-26.157 16.876-2.207 10.232-4.276 18.69-6.102 26.152-6.044 24.697-8.981 39.64-3.603 56.948 15.111-3.125 29.11-7.306 42.052-12.564-2.114-7.643-.204-15.473 4.31-33.92z" fill="#f6c5a3"/><path d="m225.682 424.209c1.894-7.738 4.041-16.509 6.376-27.335 2.563-11.883-4.993-23.595-16.876-26.157-11.887-2.56-23.595 4.992-26.157 16.876-2.207 10.232-4.276 18.69-6.102 26.152-4.715 19.264-7.533 32.592-5.997 45.738 4.905.685 9.977 1.039 15.209 1.039 10.259 0 20.145-.318 29.678-.951-2.79-8.143-.928-15.757 3.869-35.362z" fill="#f6c5a3"/><path d="m280.296 135.67c-41.822 0-78.907 24.405-106.314 62.629-6.869 26.353-20.775 171.92-.224 229.081 5.593 1.46 11.706 2.238 18.377 2.238 116.597 0 184.503-42.454 206.944-154.887 15.032-75.316-53.181-139.061-118.783-139.061z" fill="#565e75"/><path d="m240.483 358.312c33.707-44.089 38.787-95.815 1.021-133.579-18.077-18.078-42.561-27.075-67.522-26.434-15.584 21.734-28.041 47.933-36.456 76.66-21.216 72.424-13.176 139.522 36.232 152.421 1.91-1.63 3.839-3.301 5.794-5.03 25.402-22.468 49.392-48.946 60.931-64.038z" fill="#404656"/><ellipse cx="308.731" cy="167.99" fill="#f9efcd" rx="86.578" ry="64.375"/><path d="m220.024 342.669c-24.43 31.954-111.335 121.6-137.971 94.964s-15.328-135.825 41.515-191.421c28.755-28.124 73.091-29.906 99.726-3.27 26.635 26.637 24.389 63.55-3.27 99.727z" fill="#565e75"/><ellipse cx="308.731" cy="89.911" fill="#f8debb" rx="116.748" ry="89.911"/><path d="m336.148 105.337c0-15.876-12.275-28.746-27.416-28.746-15.142 0-27.416 12.87-27.416 28.746s12.275 41.154 27.416 41.154 27.416-25.278 27.416-41.154z" fill="#deb597"/><g><g fill="#eda1ab"><ellipse cx="226.774" cy="100.933" rx="30.241" ry="24.082"/><ellipse cx="390.689" cy="100.933" rx="30.241" ry="24.082"/></g><g fill="#565e75"><path d="m244.398 85.25c-4.143 0-7.5-3.357-7.5-7.5v-12.361c0-4.143 3.357-7.5 7.5-7.5s7.5 3.357 7.5 7.5v12.361c0 4.143-3.357 7.5-7.5 7.5z"/><path d="m373.064 85.25c-4.143 0-7.5-3.357-7.5-7.5v-12.361c0-4.143 3.357-7.5 7.5-7.5s7.5 3.357 7.5 7.5v12.361c0 4.143-3.357 7.5-7.5 7.5z"/></g></g><ellipse cx="308.731" cy="65.388" fill="#f9efcd" rx="26.886" ry="31.129"/></g></svg>