<svg id="Capa_1" enable-background="new 0 0 512 512" height="512" viewBox="0 0 512 512" width="512" xmlns="http://www.w3.org/2000/svg"><g><path d="m199.031 396.913c0 15.504-9.999 22.304-22.333 22.304s-22.333-6.8-22.333-22.304 9.999-33.841 22.333-33.841 22.333 18.337 22.333 33.841z" fill="#edcf76"/><path d="m312.969 396.913c0 15.504 9.999 22.304 22.333 22.304s22.333-6.8 22.333-22.304-9.999-33.841-22.333-33.841-22.333 18.337-22.333 33.841z" fill="#edcf76"/><path d="m109.562 160.532h-66.298c-15.742 0-27.901 13.809-25.949 29.43 12.043 96.367 37.613 114.452 114.255 114.452z" fill="#f3e872"/><path d="m109.562 160.532h-52.13c6.962 45.688 15.079 90.378 22.787 125.228 1.125 5.088 2.222 9.883 3.293 14.421 13.276 3.123 29.103 4.233 48.059 4.233z" fill="#edcf76"/><path d="m131.571 321.521c-39.57 0-70.549-4.385-93.121-25.779-20.269-19.213-31.31-49.245-38.11-103.659-3.226-25.806 16.901-48.658 42.924-48.658h66.298c8.449 0 15.633 6.168 16.91 14.52l22.009 143.882c1.583 10.348-6.433 19.694-16.91 19.694zm-88.307-143.882c-5.441 0-9.651 4.777-8.973 10.201 5.646 45.177 13.929 70.02 27.697 83.07 10.024 9.501 24.625 14.333 49.578 15.855l-16.693-109.126z" fill="#deb597"/><path d="m126.472 157.945c-1.278-8.352-8.461-14.52-16.91-14.52h-54.676c1.662 11.445 3.408 22.894 5.214 34.214h34.773l16.692 109.125c-13.518-.824-23.993-2.623-32.353-5.606.336 1.55.672 3.088 1.007 4.602 2.786 12.595 5.399 23.445 7.86 32.824 13.123 2.228 27.614 2.937 43.491 2.937 4.989 0 9.729-2.177 12.979-5.963 3.25-3.785 4.686-8.8 3.931-13.731z" fill="#d79882"/><circle cx="82.931" cy="297.877" fill="#f3e872" r="41.355"/><path d="m82.931 256.522c-2.965 0-5.854.318-8.642.911 1.986 9.981 3.971 19.472 5.93 28.327 4.945 22.358 9.348 39.229 13.32 52.093 17.699-4.684 30.748-20.804 30.748-39.976-.001-22.84-18.516-41.355-41.356-41.355z" fill="#edcf76"/><path d="m82.931 356.339c-32.236 0-58.462-26.225-58.462-58.462 0-32.236 26.226-58.463 58.462-58.463s58.462 26.226 58.462 58.463-26.226 58.462-58.462 58.462zm0-82.71c-13.37 0-24.248 10.878-24.248 24.249 0 13.37 10.878 24.247 24.248 24.247s24.248-10.877 24.248-24.247c0-13.371-10.878-24.249-24.248-24.249z" fill="#deb597"/><path d="m82.931 239.415c-4.076 0-8.054.422-11.897 1.22 2.225 11.775 4.467 23.033 6.689 33.564 1.679-.369 3.42-.569 5.208-.569 13.37 0 24.248 10.879 24.248 24.249 0 11.338-7.824 20.88-18.355 23.52 3.753 14.021 7.147 24.581 10.256 32.655 24.404-7.027 42.313-29.541 42.313-56.175 0-32.238-26.226-58.464-58.462-58.464z" fill="#d79882"/><path d="m402.438 160.532h66.298c15.742 0 27.901 13.809 25.949 29.43-12.043 96.367-37.613 114.452-114.255 114.452z" fill="#f3e872"/><path d="m402.438 160.532h52.13c-6.962 45.688-15.079 90.378-22.787 125.228-1.125 5.088-2.222 9.883-3.293 14.421-13.276 3.123-29.103 4.233-48.059 4.233z" fill="#edcf76"/><path d="m363.519 301.827 22.009-143.882c1.278-8.352 8.461-14.52 16.91-14.52h66.298c26.022 0 46.149 22.852 42.923 48.658-6.8 54.415-17.841 84.447-38.109 103.659-22.572 21.395-53.551 25.779-93.121 25.779-10.477 0-18.493-9.346-16.91-19.694zm53.608-124.188-16.692 109.126c24.953-1.522 39.554-6.354 49.578-15.855 13.768-13.05 22.051-37.894 27.697-83.07.678-5.423-3.532-10.201-8.973-10.201z" fill="#deb597"/><path d="m385.528 157.945c1.278-8.352 8.461-14.52 16.91-14.52h54.676c-1.662 11.445-3.408 22.894-5.214 34.214h-34.773l-16.692 109.125c13.518-.824 23.993-2.623 32.353-5.606-.336 1.55-.672 3.088-1.007 4.602-2.786 12.595-5.399 23.445-7.861 32.824-13.123 2.228-27.614 2.937-43.491 2.937-4.989 0-9.729-2.177-12.979-5.963-3.25-3.785-4.686-8.8-3.931-13.731z" fill="#d79882"/><circle cx="429.069" cy="297.877" fill="#f3e872" r="41.355"/><path d="m429.069 256.522c2.965 0 5.854.318 8.642.911-1.986 9.981-3.971 19.472-5.93 28.327-4.945 22.358-9.348 39.229-13.32 52.093-17.699-4.684-30.748-20.804-30.748-39.976.001-22.84 18.516-41.355 41.356-41.355z" fill="#edcf76"/><path d="m370.607 297.878c0-32.236 26.226-58.463 58.462-58.463s58.462 26.226 58.462 58.463c0 32.236-26.226 58.462-58.462 58.462-32.236-.001-58.462-26.226-58.462-58.462zm34.214 0c0 13.37 10.878 24.247 24.248 24.247s24.248-10.877 24.248-24.247-10.878-24.249-24.248-24.249-24.248 10.878-24.248 24.249z" fill="#deb597"/><path d="m429.069 239.415c4.076 0 8.054.422 11.897 1.22-2.225 11.775-4.467 23.033-6.689 33.564-1.679-.369-3.42-.569-5.208-.569-13.37 0-24.248 10.879-24.248 24.249 0 11.338 7.824 20.88 18.355 23.52-3.753 14.021-7.147 24.581-10.256 32.655-24.404-7.027-42.313-29.541-42.313-56.175 0-32.238 26.226-58.464 58.462-58.464z" fill="#d79882"/><path d="m397.332 92.783c22.756 0 40.218 20.158 36.992 42.684-14.012 97.821-36.745 213.533-53.148 227.343-12.721 10.71-80.787 14.803-125.176 14.803s-112.455-4.093-125.176-14.803c-16.403-13.81-39.136-129.522-53.148-227.343-3.227-22.526 14.236-42.684 36.992-42.684z" fill="#f3e872"/><path d="m397.332 92.783h-282.664c-22.756 0-40.218 20.158-36.992 42.684.82 5.724 1.671 11.511 2.547 17.334h351.553c.877-5.823 1.727-11.61 2.547-17.334 3.227-22.526-14.235-42.684-36.991-42.684z" fill="#edcf76"/><g fill="#d79882"><path d="m251.131 239.223c-2.819 0-5.52-1.598-6.796-4.318-13.591-28.996-62.278-40.655-99.842-41.83-4.14-.129-7.392-3.59-7.262-7.73.129-4.141 3.594-7.42 7.731-7.262 12.809.4 37.942 2.344 62.357 10.865 25.419 8.87 42.442 22.19 50.598 39.59 1.758 3.751.143 8.217-3.608 9.975-1.029.481-2.112.71-3.178.71z"/><path d="m260.869 239.223c-1.066 0-2.149-.229-3.178-.711-3.751-1.758-5.366-6.224-3.608-9.975 8.156-17.399 25.179-30.72 50.598-39.59 24.415-8.521 49.549-10.465 62.357-10.865 4.134-.165 7.602 3.122 7.731 7.262.129 4.141-3.122 7.602-7.262 7.73-37.563 1.175-86.251 12.834-99.842 41.83-1.275 2.721-3.977 4.319-6.796 4.319z"/></g><path d="m278.865 263.847c0-8.997-4.369-52.839-22.865-52.839s-22.865 43.842-22.865 52.839 10.237 16.291 22.865 16.291 22.865-7.294 22.865-16.291z" fill="#edcf76"/><g><g fill="#eda1ab"><ellipse cx="172.926" cy="262.181" rx="30.653" ry="24.41"/><ellipse cx="339.074" cy="262.325" rx="30.653" ry="24.41"/></g><g fill="#565e75"><path d="m190.811 246.043c-.002 0-.004 0-.006 0-4.142-.003-7.497-3.363-7.494-7.506l.009-12.234c.003-4.14 3.36-7.494 7.5-7.494h.006c4.142.003 7.497 3.363 7.494 7.506l-.009 12.234c-.003 4.14-3.36 7.494-7.5 7.494z"/><path d="m321.231 246.171c-.002 0-.004 0-.006 0-4.142-.003-7.497-3.363-7.494-7.506l.009-12.235c.003-4.14 3.36-7.494 7.5-7.494h.006c4.142.003 7.497 3.363 7.494 7.506l-.009 12.235c-.003 4.139-3.36 7.494-7.5 7.494z"/><path d="m273.208 325.672c-.002 0-.004 0-.007 0l-34.385-.03c-4.142-.004-7.497-3.364-7.493-7.507.004-4.14 3.361-7.493 7.5-7.493h.007l34.385.03c4.142.004 7.497 3.364 7.493 7.507-.003 4.139-3.361 7.493-7.5 7.493z"/></g></g></g></svg>