<svg id="Capa_1" enable-background="new 0 0 512 512" height="512" viewBox="0 0 512 512" width="512" xmlns="http://www.w3.org/2000/svg"><g><path d="m480.25 273.514c-2.025-1.842-5.13-4.513-8.937-7.304 2.649-6.449 4.114-13.935 4.114-22.539 0-37.716-27.887-54.178-62.287-54.178-34.318 0-62.148 16.388-62.281 53.912-19.579-10.518-37.499-26.493-64.164-26.493-20.572 0-49.303 6.271-74.983 16.365-20.288 7.975-47.351 21.659-67.146 42.976-27.18-4.819-52.087-17.126-70.899-35.236-25.033-24.099-37.725-56.43-37.725-96.096 0-35.368 28.774-64.142 64.142-64.142s64.141 28.773 64.141 64.142c0 15.679-6.269 25.715-17.199 27.538-12.503 2.087-28.805-6.452-35.779-26.795-3.218-9.388-13.438-14.389-22.828-11.171-9.389 3.219-14.391 13.439-11.172 22.829 13.457 39.252 48.262 55.165 75.688 50.592 28.694-4.782 47.234-29.507 47.234-62.992 0-55.187-44.898-100.085-100.084-100.085s-100.085 44.898-100.085 100.085c0 86.584 51.438 139.396 111.403 159.826-22.955 18.664-50.809 47.556-76.145 113.794-3.546 9.271 1.094 19.661 10.365 23.206 9.229 3.531 19.645-1.054 23.206-10.365 23.961-62.643 49.021-86.18 70.212-102.678 4.036 36.063.837 70.008-9.581 101.277-3.166.574-6.142 1.324-8.8 2.267-9.354 3.318-14.248 13.59-10.931 22.944 3.308 9.327 13.562 14.259 22.945 10.932 4.822-1.711 17.86-2.499 26.52.213 9.474 2.967 19.555-2.31 22.52-11.783 2.964-9.473-2.311-19.555-11.783-22.519-1.039-.325-2.117-.621-3.215-.9 9.818-34.285 12.39-70.964 7.69-109.516 10.61 5.507 23.293 14.088 34.688 26.629 15.21 16.739 23.258 35.484 24.014 55.856-2.737.544-5.321 1.221-7.655 2.049-9.354 3.318-14.248 13.59-10.931 22.945 3.308 9.326 13.562 14.259 22.945 10.932 4.823-1.711 17.86-2.499 26.52.213 9.475 2.966 19.555-2.31 22.519-11.783 2.965-9.472-2.31-19.554-11.783-22.519-1.799-.563-3.697-1.054-5.662-1.477-.702-29.41-12.077-56.958-33.366-80.388-14.032-15.443-31.589-28.17-49.554-36.775 31.445-22.936 77.619-34.446 100.554-34.446 16.292 0 31.07 14.862 54.119 25.727-31.054 32.161-37.555 75.103-5.124 110.749-.313 1.295-.486 2.731-.486 4.355 0 14.616 11.481 26.465 28.252 26.465 16.802 0 32.048-6.407 22.776-22.332-1.505-2.585-1.349-5.78.242-8.313 10.211-16.267-3.872-25.297-19.476-19.59-13.999-12.829-19.174-26.021-15.803-40.146 4.269-17.885 20.305-32.204 29.9-37.849 9.363 4.012 20.324 5.927 32.045 5.927s22.682-1.916 32.045-5.927c9.595 5.644 25.631 19.963 29.9 37.849 3.371 14.124-1.803 27.316-15.803 40.146-15.605-5.707-29.688 3.323-19.476 19.59 1.59 2.533 1.746 5.728.242 8.313-9.272 15.926 5.973 22.332 22.776 22.332 16.771 0 28.252-11.849 28.252-26.465 0-1.625-.173-3.061-.486-4.355 34.106-37.488 25.103-83.57-10.34-115.818z" fill="#deb597"/><path d="m274.723 405.941c-1.799-.563-3.697-1.054-5.662-1.477-.702-29.41-12.077-56.958-33.366-80.388-14.032-15.443-31.589-28.17-49.554-36.775 14.613-10.658 32.405-18.846 49.569-24.561-8.226-6.424-15.822-20.899-14.69-32.906-3.133 1.092-6.243 2.238-9.308 3.443-20.288 7.975-47.351 21.659-67.146 42.976-27.18-4.819-52.087-17.126-70.899-35.236-25.033-24.099-37.725-56.43-37.725-96.096 0-35.368 28.774-64.142 64.142-64.142s64.141 28.773 64.141 64.142c0 15.679-6.269 25.715-17.199 27.538-12.503 2.087-28.805-6.452-35.779-26.795-3.218-9.388-13.438-14.389-22.828-11.171-9.389 3.219-14.391 13.439-11.172 22.829 13.457 39.252 48.262 55.165 75.688 50.592 28.694-4.782 47.234-29.507 47.234-62.991 0-55.187-44.898-100.085-100.084-100.085s-100.085 44.897-100.085 100.084c0 86.584 51.438 139.396 111.403 159.826-22.955 18.663-50.809 47.556-76.145 113.794-3.546 9.271 1.094 19.66 10.365 23.206 9.229 3.531 19.645-1.054 23.206-10.365 23.961-62.643 49.021-86.18 70.212-102.678 4.036 36.063.837 70.008-9.581 101.277-3.166.574-6.142 1.324-8.8 2.267-9.354 3.318-14.248 13.59-10.931 22.945 3.308 9.326 13.562 14.258 22.945 10.932 4.822-1.711 17.86-2.5 26.52.212 9.474 2.967 19.555-2.31 22.52-11.782 2.964-9.473-2.311-19.555-11.783-22.519-1.039-.325-2.117-.621-3.215-.9 9.818-34.285 12.39-70.964 7.69-109.516 10.61 5.507 23.293 14.088 34.688 26.629 15.21 16.739 23.258 35.484 24.014 55.856-2.737.544-5.321 1.221-7.655 2.049-9.354 3.318-14.248 13.59-10.931 22.945 3.308 9.326 13.562 14.259 22.945 10.932 4.823-1.711 17.86-2.5 26.52.212 9.475 2.966 19.555-2.31 22.519-11.782 2.965-9.474-2.311-19.557-11.783-22.521z" fill="#d79882"/></g></svg>