<svg id="Capa_1" enable-background="new 0 0 512 512" height="512" viewBox="0 0 512 512" width="512" xmlns="http://www.w3.org/2000/svg"><g><path d="m309.13 88.266h-106.26c-56.146 0-102.49 43.908-105.518 99.973l-9.79 181.262h336.876l-9.79-181.262c-3.028-56.065-49.372-99.973-105.518-99.973z" fill="#deb597"/><g><g fill="#fff"><ellipse cx="169.913" cy="201.577" rx="31.765" ry="25.296"/><ellipse cx="342.087" cy="201.577" rx="31.765" ry="25.296"/></g><g fill="#565e75"><path d="m188.425 184.415c-4.142 0-7.5-3.357-7.5-7.5v-12.362c0-4.143 3.358-7.5 7.5-7.5s7.5 3.357 7.5 7.5v12.362c0 4.143-3.358 7.5-7.5 7.5z"/><path d="m256 192.456c-8.996 0-17.55-3.896-23.47-10.689-2.721-3.123-2.396-7.86.727-10.582 3.124-2.721 7.86-2.396 10.582.727 3.07 3.523 7.503 5.544 12.162 5.544 4.658 0 9.091-2.021 12.161-5.544 2.722-3.122 7.46-3.447 10.582-.727 3.122 2.722 3.448 7.459.727 10.582-5.921 6.794-14.476 10.689-23.471 10.689z"/><path d="m340.287 184.07c-4.143 0-7.5-3.357-7.5-7.5 0-3.764-3.062-6.825-6.825-6.825s-6.826 3.061-6.826 6.825c0 4.143-3.357 7.5-7.5 7.5-4.142 0-7.5-3.357-7.5-7.5 0-12.034 9.791-21.825 21.826-21.825 12.034 0 21.825 9.791 21.825 21.825 0 4.143-3.357 7.5-7.5 7.5z"/></g></g><path d="m92.588 276.446-5.026 93.054h336.876l-5.026-93.054c-42.539 7.558-93.901 13.117-163.412 13.117s-120.873-5.558-163.412-13.117z" fill="#d79882"/><path d="m1.711 334.829c43.708 34.672 99.16 59.902 254.289 59.902s210.581-25.23 254.289-59.902c.552-2.772 1.033-5.608 1.44-8.521 2.677-19.168-14.874-34.985-33.711-30.543-61.855 14.587-126.512 24.703-222.018 24.703s-160.163-10.116-222.018-24.703c-18.837-4.443-36.388 11.375-33.711 30.543.407 2.913.888 5.749 1.44 8.521z" fill="#f9efcd"/><path d="m1.709 334.836.002-.007c34.308 27.216 75.864 48.611 167.174 56.556-10.951-25.68-12.15-55.744-6.893-74.725-48.537-4.218-88.841-11.657-128.009-20.894-18.837-4.443-36.388 11.375-33.711 30.543.406 2.913.884 5.754 1.437 8.527z" fill="#f8debb"/><path d="m256 367.549c-112.17 0-181.788-13.958-254.289-32.72 12.339 61.928 63.266 88.905 254.289 88.905 191.022 0 241.95-26.977 254.289-88.905-72.501 18.762-142.119 32.72-254.289 32.72z" fill="#deb597"/><path d="m85.475 170.89c1.629-23.717 11.344-63.644 43.496-44.358s-1.418 55.31-18.796 72.218z" fill="#f8debb"/><path d="m86.271 208.141c-3.436 21.408 5.008 46.205 11.037 58.61 1.913 3.936 6.439 5.845 10.597 4.483l19.392-6.355c5.413-1.774 7.713-8.151 4.683-12.975-7.365-11.727-15.606-31.378-19.554-46.4z" fill="#f8debb"/><ellipse cx="97.725" cy="196.572" fill="#f9efcd" rx="25.959" ry="30.881"/><path d="m190.399 422.438c-16.594-14.843-25.86-37.141-29.538-58.794-61.376-5.412-109.591-15.99-159.15-28.815 10.788 54.142 51.075 81.568 188.688 87.609z" fill="#d79882"/></g></svg>