<svg id="Capa_1" enable-background="new 0 0 512 512" height="512" viewBox="0 0 512 512" width="512" xmlns="http://www.w3.org/2000/svg"><g><path d="m331.563 143.559c-25.495-25.495-45.412-32.579-75.563-32.579s-49.6 6.615-75.563 32.579c-10.081 18.039-18.253 32.162-31.66 45.569-18.612 18.613-9.011 45.82-9.011 70.259v18.038l18.482 70.127-18.482 70.128v20.027c0 49.257 17.305 74.293 44.54 74.293 36.659 0 50.344-15.565 71.694-15.565s35.035 15.565 71.694 15.565c27.235 0 44.541-25.035 44.541-74.293 0 0 0-16.034 0-20.027l-18.482-70.128 18.482-70.127c0-3.28 0-18.038 0-18.038 0-24.44 9.601-51.647-9.011-70.259-13.408-13.407-21.58-27.53-31.661-45.569z" fill="#f3e872"/><path d="m178.587 146.86c-9.261 16.479-17.232 29.69-29.81 42.267-18.612 18.613-9.011 45.82-9.011 70.259v18.038l18.482 70.127-18.482 70.128v20.027c0 49.257 17.305 74.293 44.541 74.293 34.862 0 48.952-14.066 68.609-15.446-62.772-49.951-83.695-256.111-74.329-349.693z" fill="#edcf76"/><path d="m287.202 0h-62.403c-21.763 0-39.405 17.642-39.405 39.405v40.98c0 10.175 8.249 18.424 18.424 18.424h104.366c10.175 0 18.424-8.249 18.424-18.424v-40.98c-.001-21.763-17.644-39.405-39.406-39.405z" fill="#a1dcfc"/><g fill="#b8e5ff"><g><path d="m228.355 106.31c-4.143 0-7.5-3.357-7.5-7.5v-36.582c0-4.143 3.357-7.5 7.5-7.5s7.5 3.357 7.5 7.5v36.582c0 4.142-3.357 7.5-7.5 7.5z"/><path d="m283.645 106.31c-4.142 0-7.5-3.357-7.5-7.5v-36.582c0-4.143 3.358-7.5 7.5-7.5 4.143 0 7.5 3.357 7.5 7.5v36.582c0 4.142-3.358 7.5-7.5 7.5z"/></g><path d="m256 168.19c30.151 0 40.928-23.003 75.563-24.632-7.058-12.63-15.051-27.175-26.435-44.75h-98.255c-11.385 17.574-19.378 32.12-26.435 44.75 34.634 1.629 45.411 24.632 75.562 24.632z"/><path d="m139.766 277.426h232.469v140.255h-232.469z"/></g><path d="m139.766 277.426v140.254h67.965c-13.501-41.307-22.377-91.799-27.114-140.255h-40.851z" fill="#a1dcfc"/><path d="m214.04 368.112c0 6.131 4.387 11.366 10.417 12.471 10.869 1.993 24.177 3.081 31.544 3.081 7.366 0 20.675-1.089 31.544-3.081 6.03-1.106 10.417-6.34 10.417-12.471v-41.119c0-6.131-4.387-11.366-10.417-12.471-10.869-1.993-24.177-3.081-31.544-3.081-7.366 0-20.675 1.089-31.544 3.081-6.03 1.106-10.417 6.341-10.417 12.471z" fill="#f3e872"/><g><path d="m198.684 470.557c-4.143 0-7.5-3.357-7.5-7.5v-4.964c0-4.143 3.357-7.5 7.5-7.5s7.5 3.357 7.5 7.5v4.964c0 4.142-3.358 7.5-7.5 7.5z" fill="#f3e872"/><path d="m313.316 470.557c-4.143 0-7.5-3.357-7.5-7.5v-4.964c0-4.143 3.357-7.5 7.5-7.5s7.5 3.357 7.5 7.5v4.964c0 4.142-3.357 7.5-7.5 7.5z" fill="#edcf76"/></g><path d="m263.497 355.053h-14.994c-4.143 0-7.5-3.357-7.5-7.5s3.357-7.5 7.5-7.5h14.994c4.142 0 7.5 3.357 7.5 7.5 0 4.142-3.357 7.5-7.5 7.5z" fill="#a1dcfc"/><g><g fill="#eda1ab"><ellipse cx="174.042" cy="238.342" rx="30.241" ry="24.082"/><ellipse cx="337.958" cy="238.342" rx="30.241" ry="24.082"/></g><g fill="#565e75"><path d="m191.666 222.66c-4.143 0-7.5-3.357-7.5-7.5v-12.362c0-4.143 3.357-7.5 7.5-7.5s7.5 3.357 7.5 7.5v12.362c0 4.143-3.357 7.5-7.5 7.5z"/><path d="m320.333 222.66c-4.143 0-7.5-3.357-7.5-7.5v-12.362c0-4.143 3.357-7.5 7.5-7.5s7.5 3.357 7.5 7.5v12.362c0 4.143-3.357 7.5-7.5 7.5z"/><path d="m256 230.019c-8.669 0-16.911-3.754-22.615-10.299-2.722-3.123-2.395-7.86.727-10.582s7.859-2.395 10.582.727c2.854 3.275 6.975 5.154 11.307 5.154 4.331 0 8.452-1.879 11.307-5.154 2.723-3.122 7.457-3.448 10.582-.727 3.122 2.722 3.448 7.459.727 10.582-5.706 6.545-13.948 10.299-22.617 10.299z"/></g></g></g></svg>