<svg id="Capa_1" enable-background="new 0 0 512 512" height="512" viewBox="0 0 512 512" width="512" xmlns="http://www.w3.org/2000/svg"><g><path d="m256 512c58.583 0 106.075-26.287 106.075-72.65 0-21.191-6.3-43.803-21.303-60.353-8.474-9.348-9.807-22.943-3.42-33.824 4.858-8.276 6.722-17.603 6.722-29.546 0-40.836-36.539-68.805-88.074-68.805s-88.074 27.969-88.074 68.805c0 11.943 1.864 21.271 6.722 29.546 6.387 10.881 5.054 24.477-3.42 33.824-15.003 16.55-21.303 39.162-21.303 60.353 0 46.363 47.492 72.65 106.075 72.65z" fill="#f8debb"/><path d="m324.386 496.938c-103.352-32.059-91.42-184.963-89.776-248.381-39.959 6.662-66.684 32.154-66.684 67.07 0 11.943 1.864 21.271 6.722 29.546 6.387 10.881 5.054 24.477-3.42 33.824-15.003 16.55-21.303 39.162-21.303 60.353 0 46.363 47.492 72.65 106.075 72.65 26.06 0 49.92-5.206 68.386-15.062z" fill="#f6c5a3"/><path d="m292.683 445.685h-73.365c-4.143 0-7.5-3.358-7.5-7.5 0-4.143 3.357-7.5 7.5-7.5h73.365c4.143 0 7.5 3.357 7.5 7.5 0 4.142-3.358 7.5-7.5 7.5z" fill="#d79882"/><g fill="#edcf76"><path d="m330.371 130.993h-32.342c-4.143 0-7.5-3.357-7.5-7.5s3.357-7.5 7.5-7.5h32.342c4.143 0 7.5 3.357 7.5 7.5s-3.357 7.5-7.5 7.5z"/><path d="m330.371 85.724h-32.342c-4.143 0-7.5-3.357-7.5-7.5s3.357-7.5 7.5-7.5h32.342c4.143 0 7.5 3.357 7.5 7.5 0 4.142-3.357 7.5-7.5 7.5z"/><path d="m330.371 40.454h-32.342c-4.143 0-7.5-3.357-7.5-7.5s3.357-7.5 7.5-7.5h32.342c4.143 0 7.5 3.357 7.5 7.5s-3.357 7.5-7.5 7.5z"/><path d="m213.971 130.993h-32.342c-4.143 0-7.5-3.357-7.5-7.5s3.357-7.5 7.5-7.5h32.342c4.143 0 7.5 3.357 7.5 7.5s-3.358 7.5-7.5 7.5z"/><path d="m213.971 85.724h-32.342c-4.143 0-7.5-3.357-7.5-7.5s3.357-7.5 7.5-7.5h32.342c4.143 0 7.5 3.357 7.5 7.5 0 4.142-3.358 7.5-7.5 7.5z"/><path d="m213.971 40.454h-32.342c-4.143 0-7.5-3.357-7.5-7.5s3.357-7.5 7.5-7.5h32.342c4.143 0 7.5 3.357 7.5 7.5s-3.358 7.5-7.5 7.5z"/></g><path d="m218.047 172.636h75.907v186.462h-75.907z" fill="#d79882"/><path d="m200.008 125.195c0 22.143 18.038 38.592 18.038 47.441h75.907c0-8.848 18.038-25.297 18.038-47.441v-95.834c.001-16.215-13.145-29.361-29.361-29.361h-53.26c-16.216 0-29.361 13.146-29.361 29.361v95.834z" fill="#f8debb"/><path d="m236.504 0h-7.135c-16.216 0-29.361 13.146-29.361 29.361v95.834c0 22.143 18.038 38.593 18.038 47.441h44.079c-35.471-26.699-33.023-93.598-25.621-172.636z" fill="#f6c5a3"/><g fill="#edcf76"><path d="m293.953 283.541h-75.906c-4.143 0-7.5-3.357-7.5-7.5s3.357-7.5 7.5-7.5h75.906c4.143 0 7.5 3.357 7.5 7.5s-3.357 7.5-7.5 7.5z"/><path d="m293.953 232.352h-75.906c-4.143 0-7.5-3.357-7.5-7.5 0-4.142 3.357-7.5 7.5-7.5h75.906c4.143 0 7.5 3.358 7.5 7.5 0 4.143-3.357 7.5-7.5 7.5z"/></g><g fill="#565e75"><g><path d="m234.769 122.295c-4.143 0-7.5-3.357-7.5-7.5v-73.143c0-4.143 3.357-7.5 7.5-7.5s7.5 3.357 7.5 7.5v73.143c0 4.143-3.358 7.5-7.5 7.5z"/><path d="m277.231 122.295c-4.143 0-7.5-3.357-7.5-7.5v-73.143c0-4.143 3.357-7.5 7.5-7.5s7.5 3.357 7.5 7.5v73.143c0 4.143-3.357 7.5-7.5 7.5z"/></g><circle cx="256" cy="356.007" r="42.107"/></g></g></svg>